<svg xmlns="http://www.w3.org/2000/svg" xmlns:xlink="http://www.w3.org/1999/xlink" width="50" zoomAndPan="magnify" viewBox="0 0 37.5 37.499999" height="50" preserveAspectRatio="xMidYMid meet" version="1.0"><defs><clipPath id="49adf22ce5"><path d="M 2.609375 0.632812 L 36.65625 0.632812 L 36.65625 36.160156 L 2.609375 36.160156 Z M 2.609375 0.632812 " clip-rule="nonzero"/></clipPath></defs><g clip-path="url(#49adf22ce5)"><path fill="#e1bb16" d="M 25.449219 8.65625 C 25.378906 8.519531 25.304688 8.382812 25.226562 8.25 L 28.75 4.144531 C 28.851562 4.246094 28.960938 4.339844 29.078125 4.425781 Z M 10.890625 10.011719 L 6.46875 12.304688 C 6.546875 12.425781 6.613281 12.554688 6.667969 12.6875 L 11.089844 10.394531 C 11.011719 10.273438 10.945312 10.144531 10.890625 10.011719 Z M 19.652344 11.488281 L 15.425781 9.789062 C 15.382812 9.929688 15.328125 10.0625 15.261719 10.191406 L 19.492188 11.886719 C 19.535156 11.75 19.589844 11.613281 19.652344 11.488281 Z M 6.269531 23.082031 C 6.207031 23.019531 6.140625 22.957031 6.074219 22.894531 C 5.082031 21.898438 4.28125 20.761719 3.691406 19.527344 L 2.609375 19.527344 L 2.609375 28.742188 L 6.269531 28.742188 Z M 14.949219 22.90625 L 14.949219 15.996094 L 11.289062 15.996094 L 11.289062 22.222656 C 12.34375 22.671875 13.492188 22.910156 14.675781 22.910156 C 14.765625 22.910156 14.859375 22.910156 14.949219 22.90625 Z M 11.289062 25.976562 L 11.289062 28.742188 L 14.949219 28.742188 L 14.949219 26.453125 C 14.859375 26.453125 14.765625 26.453125 14.675781 26.453125 C 13.511719 26.453125 12.375 26.292969 11.289062 25.976562 Z M 22.824219 17.105469 L 19.964844 17.105469 L 19.964844 21.097656 C 20.246094 20.878906 20.511719 20.640625 20.769531 20.386719 C 21.707031 19.445312 22.402344 18.328125 22.824219 17.105469 Z M 19.964844 25.25 L 19.964844 28.742188 L 23.628906 28.742188 L 23.628906 27.09375 L 21.136719 24.601562 C 20.757812 24.839844 20.367188 25.054688 19.964844 25.25 Z M 28.644531 24.417969 L 32.304688 28.078125 L 32.304688 9.386719 L 28.644531 9.386719 Z M 28.398438 31.863281 L 2.609375 31.863281 L 2.609375 33.441406 L 29.976562 33.441406 Z M 6.066406 14.441406 C 6.195312 14.191406 6.269531 13.902344 6.269531 13.601562 C 6.269531 13.382812 6.234375 13.175781 6.164062 12.980469 C 6.089844 13.464844 6.054688 13.953125 6.066406 14.441406 Z M 13.117188 10.929688 C 14.128906 10.929688 14.949219 10.109375 14.949219 9.097656 C 14.949219 8.089844 14.128906 7.269531 13.117188 7.269531 C 12.109375 7.269531 11.289062 8.089844 11.289062 9.097656 C 11.289062 10.109375 12.109375 10.929688 13.117188 10.929688 Z M 21.796875 14.410156 C 22.398438 14.410156 22.933594 14.117188 23.269531 13.667969 C 23.203125 12.71875 22.980469 11.800781 22.617188 10.945312 C 22.371094 10.820312 22.09375 10.75 21.796875 10.75 C 20.789062 10.75 19.964844 11.570312 19.964844 12.582031 C 19.964844 13.589844 20.789062 14.410156 21.796875 14.410156 Z M 30.476562 0.636719 C 29.464844 0.636719 28.644531 1.457031 28.644531 2.464844 C 28.644531 3.476562 29.464844 4.296875 30.476562 4.296875 C 31.484375 4.296875 32.304688 3.476562 32.304688 2.464844 C 32.304688 1.457031 31.484375 0.636719 30.476562 0.636719 Z M 24.65625 21.242188 C 24.25 21.824219 23.792969 22.375 23.273438 22.894531 C 22.761719 23.40625 22.210938 23.867188 21.625 24.277344 L 23.4375 26.085938 L 26.46875 23.054688 Z M 23.84375 26.496094 L 32.980469 35.632812 C 33.449219 36.097656 34.082031 36.367188 34.71875 36.367188 C 35.277344 36.367188 35.792969 36.160156 36.167969 35.785156 C 37.003906 34.953125 36.933594 33.523438 36.011719 32.601562 L 26.875 23.464844 Z M 6.484375 22.484375 C 4.296875 20.296875 3.089844 17.386719 3.089844 14.292969 C 3.089844 11.199219 4.296875 8.289062 6.484375 6.101562 C 8.671875 3.914062 11.582031 2.710938 14.675781 2.710938 C 17.769531 2.710938 20.679688 3.914062 22.867188 6.101562 C 27.382812 10.621094 27.382812 17.96875 22.867188 22.484375 C 20.679688 24.671875 17.769531 25.878906 14.675781 25.878906 C 11.582031 25.878906 8.671875 24.671875 6.484375 22.484375 Z M 8.175781 20.792969 C 9.910156 22.53125 12.21875 23.488281 14.675781 23.488281 C 17.128906 23.488281 19.4375 22.53125 21.175781 20.792969 C 22.910156 19.058594 23.867188 16.75 23.867188 14.292969 C 23.867188 11.839844 22.910156 9.53125 21.175781 7.792969 C 19.4375 6.058594 17.128906 5.101562 14.675781 5.101562 C 12.21875 5.101562 9.910156 6.058594 8.175781 7.792969 C 4.589844 11.378906 4.589844 17.210938 8.175781 20.792969 Z M 8.175781 20.792969 " fill-opacity="1" fill-rule="nonzero"/></g></svg>