<svg xmlns="http://www.w3.org/2000/svg" xmlns:xlink="http://www.w3.org/1999/xlink" width="50" zoomAndPan="magnify" viewBox="0 0 37.5 37.499999" height="50" preserveAspectRatio="xMidYMid meet" version="1.0"><defs><clipPath id="391ed0b773"><path d="M 1.695312 2.558594 L 35.003906 2.558594 L 35.003906 34.382812 L 1.695312 34.382812 Z M 1.695312 2.558594 " clip-rule="nonzero"/></clipPath></defs><g clip-path="url(#391ed0b773)"><path fill="#e1bb16" d="M 17.675781 2.558594 C 20.226562 2.558594 22.636719 3.15625 24.777344 4.222656 C 24.878906 4.273438 24.941406 4.363281 24.960938 4.472656 C 24.980469 4.585938 24.945312 4.691406 24.867188 4.769531 L 22.40625 7.230469 C 22.214844 7.421875 21.949219 7.480469 21.691406 7.386719 C 20.4375 6.933594 19.085938 6.6875 17.675781 6.6875 C 11.148438 6.6875 5.859375 11.976562 5.859375 18.5 C 5.859375 25.023438 11.148438 30.3125 17.675781 30.3125 C 24.199219 30.3125 29.488281 25.023438 29.488281 18.5 L 27.910156 18.5 C 27.777344 18.5 27.667969 18.429688 27.605469 18.316406 C 27.546875 18.199219 27.554688 18.066406 27.632812 17.960938 L 31.128906 13.019531 C 31.195312 12.929688 31.292969 12.878906 31.40625 12.878906 C 31.523438 12.878906 31.621094 12.929688 31.6875 13.019531 L 35.183594 17.960938 C 35.261719 18.066406 35.269531 18.199219 35.210938 18.316406 C 35.148438 18.429688 35.035156 18.5 34.90625 18.5 L 33.617188 18.5 C 33.617188 27.304688 26.480469 34.441406 17.671875 34.441406 C 8.867188 34.441406 1.730469 27.304688 1.730469 18.5 C 1.730469 9.695312 8.867188 2.558594 17.675781 2.558594 Z M 10.835938 18.714844 L 15.28125 23.164062 C 15.929688 23.8125 16.984375 23.8125 17.632812 23.164062 C 20.816406 19.976562 21.347656 19.378906 24.519531 16.175781 C 25.164062 15.527344 25.160156 14.476562 24.511719 13.832031 C 23.863281 13.1875 22.8125 13.191406 22.167969 13.839844 L 16.453125 19.636719 L 13.183594 16.367188 C 12.535156 15.71875 11.484375 15.71875 10.835938 16.367188 C 10.1875 17.015625 10.1875 18.066406 10.835938 18.714844 Z M 10.835938 18.714844 " fill-opacity="1" fill-rule="evenodd"/></g></svg>