<svg xmlns="http://www.w3.org/2000/svg" xmlns:xlink="http://www.w3.org/1999/xlink" width="50" zoomAndPan="magnify" viewBox="0 0 37.5 37.499999" height="50" preserveAspectRatio="xMidYMid meet" version="1.0"><defs><clipPath id="727bdc23db"><path d="M 11 3.296875 L 26 3.296875 L 26 18 L 11 18 Z M 11 3.296875 " clip-rule="nonzero"/></clipPath><clipPath id="4e7772fbfb"><path d="M 2.8125 20 L 5 20 L 5 33.644531 L 2.8125 33.644531 Z M 2.8125 20 " clip-rule="nonzero"/></clipPath><clipPath id="f3047274b9"><path d="M 6 20 L 33.898438 20 L 33.898438 33 L 6 33 Z M 6 20 " clip-rule="nonzero"/></clipPath></defs><g clip-path="url(#727bdc23db)"><path fill="#e1bb16" d="M 18.363281 17.835938 C 22.371094 17.835938 25.632812 14.574219 25.632812 10.566406 C 25.632812 6.554688 22.371094 3.292969 18.363281 3.292969 C 14.355469 3.292969 11.09375 6.554688 11.09375 10.566406 C 11.09375 14.574219 14.355469 17.835938 18.363281 17.835938 Z M 17.566406 6.226562 L 17.566406 5.28125 C 17.566406 4.917969 17.863281 4.621094 18.230469 4.621094 C 18.59375 4.621094 18.890625 4.917969 18.890625 5.28125 L 18.890625 5.90625 C 19.222656 5.910156 19.550781 5.980469 19.867188 6.113281 C 20.203125 6.257812 20.359375 6.644531 20.214844 6.980469 C 20.074219 7.316406 19.6875 7.472656 19.351562 7.332031 C 18.277344 6.875 17.164062 7.945312 17.609375 9.042969 C 18.09375 10.242188 19.585938 9.59375 20.34375 11.46875 C 20.894531 12.828125 20.230469 14.355469 18.890625 14.902344 L 18.890625 15.847656 C 18.890625 16.210938 18.59375 16.507812 18.230469 16.507812 C 17.863281 16.507812 17.570312 16.214844 17.570312 15.847656 L 17.570312 15.082031 C 17.332031 15.050781 17.09375 14.988281 16.859375 14.890625 C 16.523438 14.75 16.367188 14.359375 16.511719 14.023438 C 16.652344 13.6875 17.042969 13.53125 17.378906 13.675781 C 18.464844 14.136719 19.554688 13.042969 19.117188 11.960938 C 18.632812 10.765625 17.140625 11.414062 16.382812 9.539062 C 15.867188 8.265625 16.417969 6.851562 17.566406 6.226562 Z M 17.566406 6.226562 " fill-opacity="1" fill-rule="nonzero"/></g><g clip-path="url(#4e7772fbfb)"><path fill="#e1bb16" d="M 2.832031 20.480469 L 4.8125 20.480469 L 4.8125 33.699219 L 2.832031 33.699219 Z M 2.832031 20.480469 " fill-opacity="1" fill-rule="nonzero"/></g><g clip-path="url(#f3047274b9)"><path fill="#e1bb16" d="M 31.578125 20.746094 C 21.710938 26.753906 22.429688 26.425781 21.667969 26.425781 L 16.710938 26.425781 C 16.347656 26.425781 16.050781 26.132812 16.050781 25.765625 C 16.050781 25.402344 16.347656 25.105469 16.710938 25.105469 L 21.667969 25.105469 C 22.226562 25.105469 22.671875 24.648438 22.660156 24.09375 C 22.648438 23.558594 22.1875 23.121094 21.628906 23.121094 L 12.894531 23.121094 C 12.039062 23.121094 11.21875 22.898438 10.519531 22.472656 C 9.183594 21.65625 7.535156 21.582031 6.136719 22.246094 L 6.136719 32.4375 L 18.566406 32.4375 L 33.210938 23.386719 C 33.941406 22.9375 34.167969 21.980469 33.71875 21.25 C 33.265625 20.523438 32.308594 20.296875 31.578125 20.746094 Z M 31.578125 20.746094 " fill-opacity="1" fill-rule="nonzero"/></g></svg>