<svg xmlns="http://www.w3.org/2000/svg" xmlns:xlink="http://www.w3.org/1999/xlink" width="50" zoomAndPan="magnify" viewBox="0 0 37.5 37.499999" height="50" preserveAspectRatio="xMidYMid meet" version="1.0"><defs><clipPath id="cd7164aef2"><path d="M 10 1.101562 L 27 1.101562 L 27 20 L 10 20 Z M 10 1.101562 " clip-rule="nonzero"/></clipPath><clipPath id="68d43e7690"><path d="M 2.644531 19 L 34.472656 19 L 34.472656 35.886719 L 2.644531 35.886719 Z M 2.644531 19 " clip-rule="nonzero"/></clipPath></defs><g clip-path="url(#cd7164aef2)"><path fill="#e1bb16" d="M 18.5 19.152344 C 23.160156 19.152344 26.949219 14.207031 26.949219 9.550781 C 26.949219 4.890625 23.160156 1.101562 18.5 1.101562 C 13.84375 1.101562 10.050781 4.890625 10.050781 9.550781 C 10.054688 14.207031 13.84375 19.152344 18.5 19.152344 Z M 18.5 19.152344 " fill-opacity="1" fill-rule="nonzero"/></g><g clip-path="url(#68d43e7690)"><path fill="#e1bb16" d="M 24.84375 19.238281 C 23.203125 20.484375 21.160156 21.230469 18.945312 21.230469 L 18.054688 21.230469 C 15.839844 21.230469 13.796875 20.484375 12.160156 19.238281 C 6.808594 20.101562 2.722656 24.738281 2.722656 30.332031 C 2.722656 33.40625 9.785156 35.898438 18.5 35.898438 C 27.214844 35.898438 34.277344 33.40625 34.277344 30.332031 C 34.277344 24.738281 30.191406 20.101562 24.84375 19.238281 Z M 24.84375 19.238281 " fill-opacity="1" fill-rule="nonzero"/></g></svg>