<svg xmlns="http://www.w3.org/2000/svg" xmlns:xlink="http://www.w3.org/1999/xlink" width="50" zoomAndPan="magnify" viewBox="0 0 37.5 37.499999" height="50" preserveAspectRatio="xMidYMid meet" version="1.0"><defs><clipPath id="eca6f70705"><path d="M 0.75 1.394531 L 36 1.394531 L 36 35.441406 L 0.75 35.441406 Z M 0.75 1.394531 " clip-rule="nonzero"/></clipPath></defs><g clip-path="url(#eca6f70705)"><path fill="#e1bb16" d="M 28.386719 11.347656 L 28.386719 18.953125 C 28.386719 19.410156 28.011719 19.78125 27.554688 19.78125 L 23.433594 19.78125 L 23.433594 14.738281 C 23.433594 13.898438 22.75 13.210938 21.90625 13.210938 L 20.550781 13.210938 C 19.710938 13.210938 19.023438 13.898438 19.023438 14.738281 L 19.023438 19.78125 L 14.902344 19.78125 C 14.445312 19.78125 14.070312 19.410156 14.070312 18.953125 L 14.070312 11.347656 C 14.128906 11.316406 14.183594 11.277344 14.238281 11.238281 L 21.230469 6.160156 L 28.21875 11.238281 C 28.273438 11.277344 28.328125 11.316406 28.386719 11.347656 Z M 4.410156 23.875 L 9.621094 33.078125 C 9.871094 33.523438 9.714844 34.09375 9.269531 34.34375 L 7.496094 35.347656 C 7.050781 35.601562 6.480469 35.441406 6.230469 34.996094 L 1.019531 25.792969 C 0.769531 25.347656 0.925781 24.777344 1.371094 24.523438 L 3.144531 23.523438 C 3.589844 23.269531 4.160156 23.429688 4.410156 23.875 Z M 10.472656 22.269531 L 6.203125 24.742188 L 9.679688 30.882812 C 9.953125 30.722656 10.28125 30.449219 10.601562 30.535156 L 19.710938 32.976562 C 20.871094 33.289062 21.972656 33.148438 23 32.515625 L 35 25.128906 C 36.238281 24.363281 35.839844 20.605469 31.199219 23.308594 L 24.835938 26.996094 C 23.515625 27.765625 21.917969 27.839844 20.460938 27.433594 C 18.910156 27.125 17.410156 26.644531 15.882812 26.238281 C 15.582031 26.15625 15.402344 25.847656 15.484375 25.546875 C 15.566406 25.242188 15.875 25.066406 16.175781 25.144531 C 17.675781 25.546875 19.15625 26.019531 20.683594 26.328125 C 21.472656 26.425781 22.132812 26.179688 22.351562 25.359375 C 22.554688 24.609375 22.082031 23.902344 21.371094 23.660156 C 19.296875 23.277344 17.28125 22.550781 15.695312 21.976562 C 13.382812 21.140625 12.753906 20.949219 10.472656 22.269531 Z M 3.113281 25.070312 C 2.765625 25.121094 2.527344 25.441406 2.578125 25.785156 C 2.628906 26.132812 2.949219 26.371094 3.292969 26.320312 C 3.640625 26.269531 3.878906 25.949219 3.828125 25.605469 C 3.777344 25.257812 3.457031 25.019531 3.113281 25.070312 Z M 13.574219 10.320312 L 21.230469 4.761719 L 28.882812 10.320312 C 29.535156 10.792969 30.449219 10.648438 30.917969 9.996094 C 31.390625 9.34375 31.246094 8.433594 30.59375 7.960938 L 26.851562 5.242188 L 26.851562 2.53125 C 26.851562 2.335938 26.691406 2.179688 26.496094 2.179688 L 25.332031 2.179688 C 25.136719 2.179688 24.976562 2.335938 24.976562 2.53125 L 24.976562 3.878906 L 22.109375 1.796875 C 21.609375 1.417969 20.90625 1.394531 20.375 1.777344 L 11.863281 7.960938 C 11.210938 8.433594 11.066406 9.34375 11.539062 9.996094 C 12.011719 10.648438 12.921875 10.792969 13.574219 10.320312 Z M 13.574219 10.320312 " fill-opacity="1" fill-rule="evenodd"/></g></svg>