<svg xmlns="http://www.w3.org/2000/svg" xmlns:xlink="http://www.w3.org/1999/xlink" width="50" zoomAndPan="magnify" viewBox="0 0 37.5 37.499999" height="50" preserveAspectRatio="xMidYMid meet" version="1.0"><defs><clipPath id="a967d19ba9"><path d="M 22 18 L 36.394531 18 L 36.394531 29 L 22 29 Z M 22 18 " clip-rule="nonzero"/></clipPath><clipPath id="9301528978"><path d="M 0.867188 18 L 15 18 L 15 29 L 0.867188 29 Z M 0.867188 18 " clip-rule="nonzero"/></clipPath><clipPath id="c76ddcd8ef"><path d="M 8 20 L 29 20 L 29 30.558594 L 8 30.558594 Z M 8 20 " clip-rule="nonzero"/></clipPath><clipPath id="7bffd06c12"><path d="M 12 6.136719 L 25 6.136719 L 25 19 L 12 19 Z M 12 6.136719 " clip-rule="nonzero"/></clipPath></defs><path fill="#e1bb16" d="M 28.554688 27.777344 L 35.898438 27.777344 C 35.023438 21.019531 31.644531 19.1875 27.609375 19.1875 C 25.847656 19.1875 24.210938 19.539062 22.855469 20.492188 C 25.691406 21.617188 27.578125 24.027344 28.554688 27.777344 " fill-opacity="1" fill-rule="nonzero"/><g clip-path="url(#a967d19ba9)"><path fill="#e1bb16" d="M 28.554688 27.777344 L 28.554688 28.011719 L 35.898438 28.011719 C 35.964844 28.011719 36.027344 27.984375 36.074219 27.933594 C 36.117188 27.882812 36.140625 27.816406 36.128906 27.746094 C 35.910156 26.039062 35.53125 24.636719 35.015625 23.488281 C 34.246094 21.765625 33.164062 20.621094 31.886719 19.917969 C 30.613281 19.214844 29.148438 18.949219 27.609375 18.949219 C 26.714844 18.949219 25.84375 19.039062 25.023438 19.253906 C 24.199219 19.464844 23.421875 19.804688 22.71875 20.300781 C 22.648438 20.347656 22.609375 20.433594 22.621094 20.519531 C 22.632812 20.605469 22.6875 20.679688 22.769531 20.710938 C 24.148438 21.257812 25.292969 22.113281 26.21875 23.296875 C 27.140625 24.476562 27.847656 25.988281 28.328125 27.835938 C 28.355469 27.941406 28.449219 28.011719 28.554688 28.011719 L 28.554688 27.777344 L 28.785156 27.71875 C 28.289062 25.820312 27.5625 24.25 26.589844 23.003906 C 25.617188 21.761719 24.398438 20.847656 22.941406 20.273438 L 22.855469 20.492188 L 22.992188 20.683594 C 23.644531 20.226562 24.363281 19.910156 25.140625 19.710938 C 25.914062 19.507812 26.746094 19.421875 27.609375 19.421875 C 28.601562 19.421875 29.546875 19.535156 30.414062 19.804688 C 31.71875 20.207031 32.855469 20.957031 33.761719 22.226562 C 34.667969 23.496094 35.339844 25.300781 35.664062 27.808594 L 35.898438 27.777344 L 35.898438 27.542969 L 28.554688 27.542969 L 28.554688 27.777344 L 28.785156 27.71875 L 28.554688 27.777344 " fill-opacity="1" fill-rule="nonzero"/></g><path fill="#e1bb16" d="M 27.609375 7.464844 C 26.308594 7.464844 25.121094 7.949219 24.210938 8.742188 C 24.957031 9.832031 25.390625 11.152344 25.390625 12.570312 C 25.390625 14.035156 24.925781 15.386719 24.136719 16.496094 C 25.058594 17.328125 26.273438 17.839844 27.609375 17.839844 C 30.472656 17.839844 32.796875 15.515625 32.796875 12.652344 C 32.796875 9.789062 30.472656 7.464844 27.609375 7.464844 " fill-opacity="1" fill-rule="nonzero"/><path fill="#e1bb16" d="M 27.609375 7.464844 L 27.609375 7.230469 C 26.25 7.230469 25.007812 7.734375 24.054688 8.5625 C 23.964844 8.640625 23.949219 8.773438 24.015625 8.875 C 24.734375 9.929688 25.15625 11.199219 25.15625 12.570312 C 25.15625 13.984375 24.707031 15.289062 23.945312 16.359375 C 23.875 16.457031 23.890625 16.59375 23.980469 16.671875 C 24.941406 17.539062 26.210938 18.074219 27.609375 18.074219 C 30.605469 18.074219 33.03125 15.644531 33.03125 12.652344 C 33.03125 9.65625 30.605469 7.230469 27.609375 7.230469 L 27.609375 7.699219 C 28.976562 7.699219 30.214844 8.253906 31.109375 9.152344 C 32.007812 10.046875 32.5625 11.285156 32.5625 12.652344 C 32.5625 14.019531 32.007812 15.253906 31.109375 16.152344 C 30.214844 17.046875 28.976562 17.601562 27.609375 17.601562 C 26.332031 17.601562 25.175781 17.117188 24.296875 16.320312 L 24.136719 16.496094 L 24.332031 16.632812 C 25.144531 15.484375 25.628906 14.085938 25.628906 12.570312 C 25.628906 11.101562 25.175781 9.738281 24.40625 8.609375 L 24.210938 8.742188 L 24.363281 8.917969 C 25.234375 8.160156 26.367188 7.699219 27.609375 7.699219 L 27.609375 7.464844 " fill-opacity="1" fill-rule="nonzero"/><path fill="#e1bb16" d="M 8.449219 27.777344 L 1.109375 27.777344 C 1.984375 21.019531 5.359375 19.1875 9.394531 19.1875 C 11.15625 19.1875 12.792969 19.539062 14.148438 20.492188 C 11.3125 21.617188 9.425781 24.027344 8.449219 27.777344 " fill-opacity="1" fill-rule="nonzero"/><g clip-path="url(#9301528978)"><path fill="#e1bb16" d="M 8.449219 27.777344 L 8.449219 27.542969 L 1.109375 27.542969 L 1.109375 27.777344 L 1.34375 27.808594 C 1.558594 26.136719 1.929688 24.777344 2.417969 23.679688 C 3.15625 22.035156 4.160156 20.984375 5.34375 20.332031 C 6.527344 19.675781 7.90625 19.421875 9.394531 19.421875 C 10.257812 19.421875 11.089844 19.507812 11.863281 19.710938 C 12.640625 19.910156 13.359375 20.226562 14.015625 20.683594 L 14.148438 20.492188 L 14.0625 20.273438 C 12.605469 20.847656 11.386719 21.761719 10.414062 23.003906 C 9.441406 24.25 8.714844 25.820312 8.21875 27.71875 L 8.449219 27.777344 L 8.449219 27.542969 L 8.449219 27.777344 L 8.675781 27.835938 C 9.160156 25.988281 9.863281 24.476562 10.785156 23.296875 C 11.710938 22.113281 12.855469 21.257812 14.238281 20.710938 C 14.316406 20.679688 14.375 20.605469 14.382812 20.519531 C 14.394531 20.433594 14.355469 20.347656 14.285156 20.300781 C 13.582031 19.804688 12.804688 19.464844 11.984375 19.253906 C 11.160156 19.039062 10.289062 18.949219 9.394531 18.949219 C 8.367188 18.949219 7.375 19.066406 6.449219 19.355469 C 5.0625 19.78125 3.820312 20.597656 2.859375 21.953125 C 1.894531 23.308594 1.207031 25.1875 0.875 27.746094 C 0.863281 27.816406 0.886719 27.882812 0.929688 27.933594 C 0.976562 27.984375 1.039062 28.011719 1.109375 28.011719 L 8.449219 28.011719 C 8.554688 28.011719 8.648438 27.941406 8.675781 27.835938 L 8.449219 27.777344 " fill-opacity="1" fill-rule="nonzero"/></g><path fill="#e1bb16" d="M 9.394531 7.464844 C 10.699219 7.464844 11.882812 7.949219 12.792969 8.742188 C 12.050781 9.832031 11.613281 11.152344 11.613281 12.570312 C 11.613281 14.035156 12.078125 15.386719 12.867188 16.496094 C 11.945312 17.328125 10.730469 17.839844 9.394531 17.839844 C 6.53125 17.839844 4.207031 15.515625 4.207031 12.652344 C 4.207031 9.789062 6.53125 7.464844 9.394531 7.464844 " fill-opacity="1" fill-rule="nonzero"/><path fill="#e1bb16" d="M 9.394531 7.464844 L 9.394531 7.699219 C 10.636719 7.699219 11.769531 8.160156 12.640625 8.917969 L 12.792969 8.742188 L 12.597656 8.609375 C 11.828125 9.738281 11.375 11.101562 11.375 12.570312 C 11.375 14.085938 11.859375 15.484375 12.671875 16.632812 L 12.867188 16.496094 L 12.707031 16.320312 C 11.828125 17.117188 10.671875 17.601562 9.394531 17.601562 C 8.027344 17.601562 6.789062 17.046875 5.894531 16.152344 C 4.996094 15.253906 4.441406 14.019531 4.441406 12.652344 C 4.441406 11.285156 4.996094 10.046875 5.894531 9.152344 C 6.789062 8.253906 8.027344 7.699219 9.394531 7.699219 L 9.394531 7.230469 C 6.398438 7.230469 3.972656 9.65625 3.972656 12.652344 C 3.972656 15.644531 6.398438 18.074219 9.394531 18.074219 C 10.792969 18.074219 12.0625 17.539062 13.023438 16.671875 C 13.113281 16.59375 13.128906 16.457031 13.058594 16.359375 C 12.296875 15.289062 11.847656 13.984375 11.847656 12.570312 C 11.847656 11.199219 12.269531 9.929688 12.988281 8.875 C 13.058594 8.777344 13.039062 8.640625 12.949219 8.5625 C 12 7.734375 10.757812 7.230469 9.394531 7.230469 L 9.394531 7.464844 " fill-opacity="1" fill-rule="nonzero"/><g clip-path="url(#c76ddcd8ef)"><path fill="#e1bb16" d="M 28.394531 30.625 C 27.351562 22.558594 23.320312 20.371094 18.503906 20.371094 C 13.683594 20.371094 9.65625 22.558594 8.609375 30.625 L 28.394531 30.625 " fill-opacity="1" fill-rule="nonzero"/><path fill="#e1bb16" d="M 28.394531 30.625 L 28.628906 30.597656 C 28.363281 28.5625 27.910156 26.890625 27.300781 25.523438 C 26.382812 23.476562 25.101562 22.117188 23.585938 21.285156 C 22.070312 20.449219 20.335938 20.136719 18.503906 20.136719 C 17.28125 20.136719 16.101562 20.273438 15 20.613281 C 13.351562 21.125 11.878906 22.09375 10.738281 23.699219 C 9.59375 25.308594 8.773438 27.546875 8.378906 30.597656 C 8.367188 30.664062 8.390625 30.730469 8.433594 30.78125 C 8.480469 30.832031 8.542969 30.863281 8.609375 30.863281 L 28.394531 30.863281 C 28.460938 30.863281 28.527344 30.832031 28.570312 30.78125 C 28.617188 30.730469 28.636719 30.664062 28.628906 30.597656 L 28.394531 30.625 L 28.394531 30.390625 L 8.609375 30.390625 L 8.609375 30.625 L 8.84375 30.65625 C 9.105469 28.65625 9.546875 27.03125 10.132812 25.71875 C 11.019531 23.746094 12.222656 22.480469 13.644531 21.695312 C 15.066406 20.910156 16.722656 20.609375 18.503906 20.609375 C 19.6875 20.609375 20.820312 20.742188 21.863281 21.066406 C 23.429688 21.550781 24.796875 22.449219 25.882812 23.972656 C 26.96875 25.5 27.773438 27.65625 28.160156 30.65625 L 28.394531 30.625 L 28.394531 30.390625 L 28.394531 30.625 " fill-opacity="1" fill-rule="nonzero"/></g><g clip-path="url(#7bffd06c12)"><path fill="#e1bb16" d="M 24.691406 12.570312 C 24.691406 15.992188 21.921875 18.761719 18.503906 18.761719 C 15.082031 18.761719 12.3125 15.992188 12.3125 12.570312 C 12.3125 9.152344 15.082031 6.382812 18.503906 6.382812 C 21.921875 6.382812 24.691406 9.152344 24.691406 12.570312 " fill-opacity="1" fill-rule="nonzero"/><path fill="#e1bb16" d="M 24.691406 12.570312 L 24.457031 12.570312 C 24.457031 14.214844 23.789062 15.703125 22.710938 16.78125 C 21.632812 17.859375 20.148438 18.527344 18.503906 18.527344 C 16.855469 18.527344 15.371094 17.859375 14.292969 16.78125 C 13.214844 15.703125 12.546875 14.214844 12.546875 12.570312 C 12.546875 10.925781 13.214844 9.4375 14.292969 8.359375 C 15.371094 7.28125 16.855469 6.617188 18.503906 6.617188 C 20.148438 6.617188 21.632812 7.28125 22.710938 8.359375 C 23.789062 9.441406 24.457031 10.925781 24.457031 12.570312 L 24.929688 12.570312 C 24.929688 9.023438 22.050781 6.144531 18.503906 6.144531 C 14.953125 6.144531 12.074219 9.023438 12.074219 12.570312 C 12.074219 16.121094 14.953125 19 18.503906 19 C 22.050781 19 24.929688 16.121094 24.929688 12.570312 L 24.691406 12.570312 " fill-opacity="1" fill-rule="nonzero"/></g></svg>