<?xml version="1.0" encoding="UTF-8"?>
<!DOCTYPE svg PUBLIC "-//W3C//DTD SVG 1.1//EN" "http://www.w3.org/Graphics/SVG/1.1/DTD/svg11.dtd">
<!-- Creator: CorelDRAW 2019 (64 Bit) -->
<svg xmlns="http://www.w3.org/2000/svg" xml:space="preserve" width="60.9264mm" height="17.5584mm" version="1.1" style="shape-rendering:geometricPrecision; text-rendering:geometricPrecision; image-rendering:optimizeQuality; fill-rule:evenodd; clip-rule:evenodd"
viewBox="0 0 1281.34 369.27"
 xmlns:xlink="http://www.w3.org/1999/xlink"
 xmlns:xodm="http://www.corel.com/coreldraw/odm/2003">
 <defs>
  <style type="text/css">
   <![CDATA[
    .fil0 {fill:#E1BB16}
    .fil1 {fill:#E1BB16;fill-rule:nonzero}
   ]]>
  </style>
 </defs>
 <g id="Camada_x0020_1">
  <metadata id="CorelCorpID_0Corel-Layer"/>
  <g id="_3175872944448">
   <path class="fil0" d="M167.34 99.91c3.08,-10.08 43.28,-73.72 49.8,-84.72 15.99,2.54 34.09,5.26 42.86,14.66 13.35,14.32 3.33,30.03 -6,40 -26.8,28.65 -52.88,25.83 -86.66,30.06zm53.07 -91.37c2.52,-17.8 -5.89,-2.36 -11.61,-1.74 -4.11,0.44 -20.62,-1.76 -26.58,-1.99 -18.92,-0.72 -35.37,-0.07 -53.97,1.76 -34.63,3.41 -59.29,9.06 -85.18,30.07 -16.53,13.42 -29.62,37.62 -20.63,60.18 8.6,21.59 36.13,29.4 58.53,17.04 16.52,-9.12 25.31,-29.42 20.72,-34.39 -4.1,2.1 -0.1,5.68 -8.19,15.66 -4.2,5.19 -6.02,7.83 -11.59,11.62 -9.95,6.78 -26.09,8.55 -36.86,1.37 -24.98,-16.65 -7.63,-49.87 7.19,-62.29 18.97,-15.89 34.44,-22.59 65.53,-28.22 29.5,-5.35 55.97,-6.17 86.51,-4.32 -0.74,1.69 -4.94,6.4 -6.54,8.34l-17.85 25.91c-16.63,26.36 -35.15,64.06 -52.93,92.66 -4.15,6.67 -19.41,29.26 -23.93,34.12 -14.07,15.09 -31.11,31.36 -54.9,32.81 -9.46,0.57 -18.24,0.13 -24.12,-5.62 -4.72,-4.62 -9.07,-12.24 -5.19,-21.2 9.87,-22.78 34.4,-8.33 40.5,-10.41 -3,-7.32 -31.31,-8.07 -40.05,-5.21 -10.4,3.4 -22.26,13.68 -18.57,28.02 6.03,23.42 43.83,26.97 69.32,19.13 31.42,-9.67 49.53,-31.99 65.33,-55.21 12.73,-18.71 16.78,-31.08 25.91,-45.93 2.29,6.83 3.72,16.57 5.69,23.8 2.15,7.89 4.31,14.81 6.86,22.6 7.91,24.26 26.97,62.95 59.06,58.52 15.52,-2.15 25.26,-15.73 31.51,-26.44 7.43,2.56 17.19,7.34 24.68,10.75 21.14,9.62 53.72,23.09 43.93,58.72 -14.36,52.24 -89.13,75.63 -142.61,61.4 -44.01,-11.71 -57.48,-47.55 -41.73,-87.64 11.51,-29.29 27.61,-33.51 30.11,-40.97 -23.82,-0.19 -70.74,60.82 -41.14,103.65 22.39,32.4 73.25,42.63 123.94,31.52 35.22,-7.71 81.06,-36.56 91.98,-72.39 11.1,-36.43 -27.76,-55.22 -53.25,-66.41 -8.36,-3.67 -19.74,-8.39 -27.19,-13.07 1.01,-5.75 7.41,-14.62 9.18,-21.83 -7.11,0.25 -7.91,11.55 -13.6,18.15l-0.88 0.83c-34.87,-19.27 -25.23,-54.71 30.99,-68 25.91,-6.13 56.82,-2.02 63.56,20.05 1.35,4.41 1.14,9.91 -0.82,14.1 -7.05,15.02 -19.93,4.7 -20.52,15.26 14.13,0.01 36.98,-13.72 30.63,-34.19 -8.76,-28.23 -59.02,-27.05 -85.3,-21.3 -59.29,12.98 -81.9,63.6 -27.43,88.22 -3.05,6.89 -17.27,21.53 -30.65,18.4 -10.57,-2.47 -19.05,-16.13 -24.4,-24.69 -12.99,-20.82 -20.38,-45.18 -25.91,-72.52 8.58,-1.9 20.44,-1.92 30.08,-3.86 26.69,-5.38 50.37,-14.35 67.85,-33.08 15.16,-16.26 10.45,-34.64 -4.56,-45.53 -12.65,-9.18 -32.15,-13.89 -50.92,-16.23z"/>
   <g>
    <path class="fil1" d="M455.8 126.33c0.05,0.11 0.47,0.5 1.22,1.11 0.75,0.61 1.84,1.31 3.23,2.09 1.37,0.75 3.09,1.42 5.1,2.04 2.01,0.58 4.29,0.89 6.85,0.89 4.29,0 8.36,-0.81 12.15,-2.45 3.82,-1.62 7.35,-3.79 10.58,-6.44 3.23,-2.68 6.16,-5.71 8.72,-9.14 2.59,-3.43 4.79,-6.94 6.58,-10.53 1.81,-3.6 3.17,-7.13 4.18,-10.62 0.98,-3.48 1.45,-6.6 1.45,-9.39 0,-3.32 -0.47,-6.21 -1.45,-8.66 -1,-2.42 -2.31,-4.46 -3.98,-6.02 -1.64,-1.59 -3.6,-2.76 -5.85,-3.51 -2.29,-0.78 -4.71,-1.14 -7.33,-1.14 -5.15,0 -10.28,0.89 -15.38,2.73 -5.1,1.81 -10.03,4.32 -14.82,7.47 -4.79,3.15 -9.39,6.86 -13.79,11.15 -4.4,4.26 -8.5,8.86 -12.32,13.73 -3.82,4.9 -7.27,10 -10.36,15.33 -3.12,5.29 -5.77,10.56 -7.97,15.8 -2.2,5.21 -3.9,10.28 -5.1,15.21 -1.2,4.93 -1.78,9.44 -1.78,13.6 0,4.79 0.67,9.31 2.06,13.54 1.39,4.23 3.48,7.94 6.24,11.11 2.78,3.15 6.27,5.63 10.42,7.47 4.15,1.81 9.03,2.73 14.57,2.73 4.96,0 10.08,-0.78 15.43,-2.29 5.32,-1.53 10.64,-3.98 15.94,-7.35 5.32,-3.37 10.56,-7.75 15.71,-13.09 5.18,-5.38 10.14,-11.87 14.85,-19.56l2.95 2.28c-5.13,8.33 -10.45,15.32 -15.99,20.98 -5.54,5.66 -11.12,10.23 -16.66,13.68 -5.54,3.46 -11,5.93 -16.41,7.41 -5.38,1.51 -10.5,2.26 -15.35,2.26 -6.97,0 -13.09,-1.22 -18.44,-3.71 -5.32,-2.48 -9.78,-5.74 -13.37,-9.75 -3.59,-4.04 -6.3,-8.61 -8.14,-13.76 -1.81,-5.15 -2.73,-10.39 -2.73,-15.71 0,-4.57 0.64,-9.44 1.92,-14.6 1.28,-5.18 3.09,-10.42 5.43,-15.77 2.34,-5.32 5.15,-10.67 8.44,-15.99 3.29,-5.32 6.97,-10.45 11.03,-15.3 4.04,-4.88 8.44,-9.42 13.18,-13.59 4.74,-4.21 9.7,-7.83 14.88,-10.89 5.21,-3.09 10.56,-5.49 16.11,-7.27 5.51,-1.75 11.11,-2.65 16.86,-2.65 3.56,0 7.02,0.5 10.31,1.51 3.29,1 6.19,2.59 8.69,4.76 2.51,2.2 4.49,4.99 5.96,8.39 1.48,3.4 2.2,7.5 2.2,12.29 0,3.2 -0.47,6.69 -1.48,10.45 -0.98,3.73 -2.4,7.52 -4.26,11.28 -1.89,3.79 -4.18,7.44 -6.88,10.98 -2.68,3.54 -5.74,6.66 -9.14,9.36 -3.4,2.7 -7.13,4.85 -11.26,6.49 -4.1,1.62 -8.47,2.45 -13.09,2.45 -4.96,0 -9.28,-0.83 -12.93,-2.51 -3.68,-1.64 -6.83,-3.71 -9.45,-6.16l2.45 -2.7zm101.19 34.04c0.22,0.06 0.45,0.08 0.67,0.08 0.22,0 0.45,0 0.72,0 1.53,0 2.93,-0.14 4.18,-0.45 1.26,-0.31 2.4,-0.78 3.46,-1.42 1.06,-0.67 2.09,-1.53 3.06,-2.59 0.97,-1.06 1.92,-2.34 2.87,-3.87l2.92 2.28c-2.62,3.71 -5.29,6.3 -8.08,7.77 -2.79,1.45 -5.71,2.2 -8.8,2.2 -1.14,0 -2.17,-0.11 -3.04,-0.33 -2.34,3.93 -4.85,7.25 -7.5,10 -2.68,2.73 -5.4,4.99 -8.16,6.72 -2.78,1.76 -5.54,3.01 -8.24,3.82 -2.73,0.78 -5.27,1.17 -7.61,1.17 -2.4,0 -4.6,-0.42 -6.66,-1.26 -2.04,-0.83 -3.79,-2.06 -5.24,-3.65 -1.48,-1.56 -2.62,-3.46 -3.45,-5.63 -0.81,-2.17 -1.2,-4.62 -1.2,-7.33 0,-2.73 0.42,-5.52 1.28,-8.33 0.89,-2.84 2.06,-5.63 3.56,-8.41 1.51,-2.78 3.26,-5.46 5.27,-8.05 2.01,-2.56 4.18,-4.98 6.52,-7.22 2.34,-2.23 4.77,-4.23 7.27,-6.04 2.51,-1.78 5.01,-3.26 7.49,-4.4l2.62 3.42c-2.87,2.06 -5.79,4.68 -8.78,7.86 -2.95,3.15 -5.66,6.6 -8.08,10.36 -2.42,3.73 -4.4,7.63 -5.96,11.7 -1.53,4.07 -2.31,8 -2.31,11.79 0,3.43 0.75,6.1 2.28,7.97 1.53,1.87 3.84,2.81 6.94,2.81 2.4,0 4.76,-0.5 7.1,-1.48 2.34,-0.97 4.62,-2.31 6.85,-3.98 2.23,-1.7 4.38,-3.71 6.44,-6.02 2.09,-2.31 4.04,-4.77 5.88,-7.38 -1.56,-0.92 -2.95,-2.15 -4.15,-3.71 -1.2,-1.56 -2.2,-3.32 -3.03,-5.29 -0.81,-2.01 -1.42,-4.12 -1.81,-6.41 -0.42,-2.29 -0.61,-4.63 -0.61,-7.02 0,-2.4 0.28,-4.65 0.89,-6.8 0.58,-2.12 1.42,-3.98 2.48,-5.57 1.06,-1.62 2.31,-2.87 3.71,-3.79 1.42,-0.95 2.98,-1.39 4.65,-1.39 1.54,0 2.9,0.39 4.1,1.17 1.2,0.81 2.2,1.89 3.01,3.26 0.84,1.39 1.45,3.04 1.89,4.96 0.42,1.89 0.64,3.93 0.64,6.1 0,1.64 -0.14,3.43 -0.39,5.4 -0.28,1.95 -0.67,3.93 -1.2,5.91 -0.53,1.98 -1.14,3.96 -1.87,5.88 -0.75,1.92 -1.59,3.65 -2.59,5.18zm-11.09 -20.31c0,1.56 0.14,3.29 0.42,5.13 0.25,1.87 0.7,3.65 1.28,5.4 0.61,1.73 1.37,3.34 2.29,4.85 0.95,1.5 2.09,2.68 3.45,3.54 0.98,-1.89 1.79,-3.85 2.48,-5.82 0.67,-1.98 1.25,-3.9 1.7,-5.77 0.47,-1.84 0.81,-3.56 1,-5.18 0.16,-1.59 0.28,-3.01 0.28,-4.21 0,-1.62 -0.14,-3.12 -0.42,-4.49 -0.28,-1.36 -0.64,-2.53 -1.09,-3.54 -0.47,-1 -1.03,-1.81 -1.73,-2.37 -0.67,-0.58 -1.42,-0.86 -2.23,-0.86 -1.11,0 -2.12,0.36 -3.03,1.11 -0.92,0.72 -1.7,1.7 -2.37,2.93 -0.64,1.22 -1.14,2.65 -1.5,4.23 -0.36,1.62 -0.53,3.29 -0.53,5.04zm94.17 0.14c0,2.34 -0.39,4.73 -1.23,7.16 -0.81,2.42 -1.84,4.85 -3.09,7.27 -1.25,2.4 -2.59,4.79 -4.01,7.13 -1.39,2.34 -2.73,4.6 -3.98,6.77 -1.25,2.17 -2.29,4.26 -3.09,6.24 -0.83,1.98 -1.22,3.79 -1.22,5.43 0,1.26 0.25,2.09 0.81,2.54 0.53,0.41 1.14,0.64 1.78,0.64 2.09,0 4.4,-1 6.94,-3.06 2.56,-2.04 5.15,-4.6 7.8,-7.69 2.65,-3.12 5.27,-6.49 7.89,-10.14 2.62,-3.65 4.99,-7.1 7.1,-10.36l2.93 2.28c-0.42,0.67 -1.23,1.95 -2.37,3.87 -1.14,1.95 -2.57,4.15 -4.24,6.63 -1.7,2.48 -3.56,5.05 -5.68,7.75 -2.09,2.7 -4.32,5.18 -6.71,7.44 -2.4,2.26 -4.87,4.12 -7.38,5.57 -2.53,1.48 -5.1,2.2 -7.63,2.2 -1.48,0 -2.81,-0.23 -4.01,-0.72 -1.2,-0.5 -2.23,-1.17 -3.06,-2.04 -0.83,-0.86 -1.5,-1.89 -2,-3.06 -0.48,-1.17 -0.73,-2.4 -0.73,-3.71 0,-2.15 0.48,-4.43 1.42,-6.91 0.95,-2.48 2.15,-5.02 3.56,-7.63 1.4,-2.62 2.95,-5.24 4.65,-7.88 1.67,-2.62 3.23,-5.15 4.65,-7.55 1.42,-2.4 2.59,-4.6 3.54,-6.63 0.95,-2.06 1.42,-3.82 1.42,-5.26 0,-1.7 -0.44,-3.12 -1.34,-4.27 -0.89,-1.14 -2.17,-1.7 -3.79,-1.7 -1.76,0 -3.76,0.73 -6.05,2.15 -2.29,1.45 -4.85,3.56 -7.66,6.35 -2.84,2.76 -5.93,6.18 -9.28,10.23 -3.34,4.07 -6.96,8.66 -10.89,13.85 -2.23,2.98 -4.4,5.88 -6.52,8.63 -0.95,1.2 -1.87,2.42 -2.78,3.68 -0.92,1.26 -1.84,2.51 -2.79,3.71 -0.92,1.23 -1.78,2.4 -2.59,3.51 -0.84,1.11 -1.56,2.09 -2.2,2.9l-7.19 -2.92 9.55 -13.15c1.34,-1.84 2.73,-3.82 4.15,-5.96 1.42,-2.12 2.81,-4.29 4.21,-6.55 1.39,-2.26 2.7,-4.54 3.96,-6.83 1.26,-2.28 2.42,-4.51 3.51,-6.69 1.59,-3.26 2.67,-5.99 3.26,-8.14 0.61,-2.14 0.89,-3.87 0.89,-5.18 0,-1.48 -0.25,-2.42 -0.81,-2.9 -0.53,-0.44 -1.31,-0.69 -2.28,-0.69 -1.03,0 -2.23,0.53 -3.54,1.59 -1.34,1.09 -2.73,2.42 -4.12,4.09 -1.42,1.64 -2.84,3.54 -4.29,5.63 -1.45,2.09 -2.81,4.18 -4.12,6.24 -1.31,2.06 -2.54,4.04 -3.68,5.88 -1.14,1.84 -2.09,3.34 -2.87,4.49l-2.93 -2.28c2.78,-4.35 5.29,-8.33 7.55,-11.95 2.26,-3.62 4.43,-6.74 6.52,-9.33 2.12,-2.62 4.15,-4.65 6.13,-6.1 1.98,-1.42 4.1,-2.15 6.32,-2.15 1.2,0 2.37,0.22 3.48,0.72 1.12,0.5 2.09,1.23 2.93,2.17 0.83,0.95 1.5,2.09 2.01,3.45 0.47,1.37 0.72,2.95 0.72,4.74 0,1.42 -0.17,2.9 -0.47,4.4 2.4,-2.34 4.62,-4.26 6.69,-5.79 2.06,-1.5 3.98,-2.73 5.71,-3.62 1.76,-0.89 3.34,-1.53 4.82,-1.92 1.48,-0.39 2.79,-0.56 3.99,-0.56 1.06,0 2.26,0.17 3.59,0.56 1.36,0.39 2.65,1.09 3.84,2.12 1.2,1.03 2.23,2.48 3.07,4.29 0.83,1.81 1.25,4.18 1.25,7.05zm41.87 -21.71c-0.25,0.5 -0.61,1.03 -1.06,1.59 -0.42,0.58 -0.83,1.22 -1.25,1.98 -0.42,0.72 -0.75,1.59 -1.06,2.56 -0.31,0.97 -0.45,2.15 -0.45,3.51 0,1.14 0.28,2.7 0.87,4.65 0.56,1.95 1.17,4.21 1.81,6.74 0.67,2.5 1.28,5.26 1.84,8.22 0.58,2.98 0.86,6.04 0.86,9.19 0,4.62 -0.61,8.72 -1.87,12.26 -1.25,3.51 -2.93,6.55 -4.99,9.06 4.23,-2.29 8.41,-5.57 12.48,-9.84 4.09,-4.29 8.19,-9.7 12.34,-16.3l2.76 2.45c-2.34,3.87 -4.99,7.69 -7.94,11.48 -2.98,3.76 -6.24,7.19 -9.75,10.2 -3.54,3.01 -7.35,5.46 -11.45,7.35 -4.07,1.87 -8.39,2.81 -12.96,2.81 -4.09,0 -7.52,-0.98 -10.34,-2.9 -2.81,-1.95 -4.54,-4.85 -5.18,-8.69l2.93 -0.58c0,0.33 0.17,0.86 0.45,1.59 0.31,0.75 0.78,1.48 1.45,2.17 0.64,0.7 1.53,1.34 2.65,1.87 1.11,0.56 2.48,0.84 4.12,0.84 2.17,0 4.09,-0.5 5.8,-1.53 1.67,-1 3.15,-2.32 4.4,-3.96 1.25,-1.62 2.31,-3.48 3.17,-5.57 0.89,-2.12 1.59,-4.26 2.09,-6.49 0.53,-2.23 0.89,-4.4 1.11,-6.55 0.2,-2.12 0.31,-4.04 0.31,-5.79 0,-1.73 -0.05,-3.65 -0.2,-5.8 -0.14,-2.12 -0.28,-4.15 -0.45,-6.08 -0.17,-1.92 -0.31,-3.62 -0.45,-5.07 -0.14,-1.42 -0.22,-2.37 -0.22,-2.81l0 -0.14c-0.7,0.75 -1.53,1.87 -2.51,3.34 -1,1.45 -2.04,3.07 -3.15,4.79 -1.11,1.76 -2.23,3.51 -3.34,5.32 -1.11,1.79 -2.12,3.43 -3.04,4.9 -0.89,1.45 -1.61,2.68 -2.2,3.62 -0.56,0.95 -0.86,1.45 -0.86,1.5l-2.93 -2.28c0.05,-0.06 0.72,-1.22 2.04,-3.51 1.31,-2.28 3.03,-5.18 5.18,-8.69 2.15,-3.51 4.6,-7.38 7.3,-11.68 2.73,-4.26 5.54,-8.41 8.41,-12.45l3.26 2.7zm57.56 46.28c-2.5,2.95 -4.96,5.66 -7.41,8.14 -2.45,2.48 -4.9,4.6 -7.33,6.35 -2.4,1.78 -4.82,3.17 -7.22,4.18 -2.4,1 -4.82,1.51 -7.27,1.51 -2.06,0 -3.93,-0.36 -5.57,-1.12 -1.67,-0.72 -3.12,-1.75 -4.35,-3.09 -1.2,-1.34 -2.15,-2.95 -2.81,-4.9 -0.64,-1.92 -0.98,-4.1 -0.98,-6.49 0,-3.73 0.84,-7.6 2.51,-11.59 1.64,-3.96 3.73,-7.83 6.27,-11.59 2.54,-3.74 5.35,-7.3 8.41,-10.67 3.06,-3.4 5.99,-6.38 8.78,-9l3.51 2.45c-1.95,2.9 -4.15,6.16 -6.58,9.81 -2.42,3.65 -4.71,7.41 -6.86,11.29 -2.15,3.9 -3.95,7.8 -5.43,11.67 -1.48,3.9 -2.2,7.5 -2.2,10.84 0,2.23 0.41,4.12 1.25,5.71 0.86,1.56 2.48,2.37 4.87,2.37 2.62,0 5.49,-1.03 8.61,-3.12 3.12,-2.06 6.33,-4.77 9.64,-8.08 3.29,-3.32 6.57,-7.05 9.86,-11.23 3.29,-4.15 6.41,-8.36 9.33,-12.6 2.95,-4.26 5.63,-8.3 8.05,-12.17 2.42,-3.85 4.4,-7.16 5.91,-9.86l5.96 2.93c-3.15,6.21 -6.19,11.98 -9.08,17.35 -2.93,5.35 -5.52,10.17 -7.78,14.43 -2.25,4.29 -4.04,8 -5.38,11.15 -1.34,3.18 -2.01,5.66 -2.01,7.52 0,0.75 0.17,1.39 0.5,1.87 0.3,0.5 0.83,0.75 1.53,0.75 2.03,0.05 4.24,-0.84 6.66,-2.62 2.42,-1.81 4.88,-4.07 7.36,-6.77 2.48,-2.73 4.9,-5.71 7.27,-8.94 2.37,-3.23 4.49,-6.27 6.41,-9.11l2.93 2.28c-0.33,0.56 -1,1.67 -2.03,3.34 -1.03,1.7 -2.31,3.62 -3.85,5.8 -1.53,2.2 -3.26,4.48 -5.21,6.85 -1.98,2.4 -4.04,4.6 -6.21,6.58 -2.17,2.01 -4.43,3.62 -6.77,4.9 -2.34,1.28 -4.65,1.92 -6.94,1.92 -1.42,0 -2.67,-0.25 -3.79,-0.72 -1.14,-0.5 -2.06,-1.14 -2.84,-1.98 -0.75,-0.81 -1.34,-1.76 -1.78,-2.84 -0.45,-1.09 -0.64,-2.23 -0.64,-3.43 0,-1.42 0.22,-2.98 0.67,-4.65 0.48,-1.7 1.14,-3.48 2.01,-5.4zm93.56 -100.97c1.9,0 3.51,0.48 4.8,1.39 1.25,0.92 1.89,2.62 1.89,5.07 0,1.67 -0.33,3.7 -1,6.04 -0.7,2.34 -1.62,4.87 -2.78,7.6 -1.17,2.76 -2.54,5.66 -4.12,8.67 -1.56,3.01 -3.29,6.02 -5.1,9.03 -1.81,2.98 -3.73,5.9 -5.71,8.72 -1.98,2.84 -3.96,5.46 -5.91,7.83 -3.93,4.85 -7.33,8.94 -10.17,12.26 -2.87,3.31 -5.32,6.13 -7.38,8.44 -2.09,2.31 -3.82,4.21 -5.24,5.63 -1.42,1.45 -2.65,2.68 -3.76,3.73 -1.09,1.03 -2.09,1.95 -3.01,2.81 -0.92,0.83 -1.87,1.78 -2.84,2.81 -0.44,2.06 -0.64,4.04 -0.61,5.91 0,1.89 0.03,3.62 0.03,5.18 0,4.74 0.75,8.25 2.28,10.53 1.53,2.29 3.68,3.43 6.44,3.43 1.87,0 3.73,-0.47 5.6,-1.42 1.89,-0.95 3.73,-2.2 5.6,-3.7 1.84,-1.53 3.65,-3.26 5.38,-5.18 1.75,-1.95 3.4,-3.9 4.93,-5.88 1.56,-2.01 2.95,-3.93 4.21,-5.77 1.25,-1.84 2.34,-3.46 3.29,-4.82l3.01 2.28c-0.17,0.23 -0.7,1.09 -1.59,2.59 -0.89,1.48 -2.09,3.29 -3.57,5.41 -1.45,2.15 -3.21,4.4 -5.21,6.83 -2,2.42 -4.21,4.65 -6.55,6.74 -2.34,2.06 -4.79,3.76 -7.38,5.13 -2.56,1.37 -5.21,2.06 -7.86,2.06 -2.23,0 -4.37,-0.44 -6.41,-1.28 -2.06,-0.83 -3.84,-2.17 -5.4,-3.98 -1.53,-1.84 -2.78,-4.15 -3.76,-6.99 -0.95,-2.84 -1.42,-6.24 -1.42,-10.2 0,-4.96 0.58,-10.14 1.76,-15.54 1.17,-5.43 2.76,-10.87 4.79,-16.33 2.01,-5.49 4.37,-10.87 7.1,-16.22 2.7,-5.32 5.6,-10.39 8.69,-15.21 3.06,-4.82 6.27,-9.28 9.61,-13.4 3.34,-4.1 6.66,-7.66 9.89,-10.64 3.23,-2.98 6.35,-5.32 9.33,-7.02 3.01,-1.67 5.71,-2.54 8.16,-2.54zm-48.89 82.77c4.62,-4.79 9.11,-9.64 13.43,-14.57 4.32,-4.93 8.39,-9.81 12.17,-14.6 3.76,-4.82 7.24,-9.5 10.39,-14.04 3.15,-4.54 5.85,-8.83 8.08,-12.87 2.23,-4.01 3.99,-7.69 5.24,-11.01 1.25,-3.32 1.87,-6.19 1.87,-8.58 0,-0.42 -0.22,-1 -0.64,-1.76 -0.45,-0.72 -0.95,-1.09 -1.56,-1.09 -1.67,0 -3.93,1.12 -6.69,3.34 -2.78,2.23 -5.79,5.27 -9.03,9.08 -3.23,3.84 -6.58,8.33 -10.03,13.43 -3.45,5.13 -6.72,10.59 -9.75,16.41 -3.06,5.82 -5.77,11.84 -8.16,18.06 -2.4,6.19 -4.18,12.26 -5.32,18.19zm52.24 -31.34c0.53,-0.92 1.51,-2.53 2.9,-4.82 1.39,-2.29 3.01,-4.82 4.9,-7.58 1.87,-2.79 3.9,-5.57 6.1,-8.39 2.2,-2.78 4.38,-5.18 6.49,-7.13l3.68 2.2c-2.34,3.87 -4.74,7.96 -7.19,12.28 -2.45,4.32 -4.88,8.8 -7.27,13.43l26.64 0 -1.64 4.24 -27.19 0c-2.45,4.9 -4.74,9.78 -6.88,14.63 -2.15,4.85 -4.04,9.47 -5.68,13.87 -1.62,4.4 -2.9,8.53 -3.84,12.37 -0.92,3.82 -1.37,7.16 -1.37,9.97 0,3.54 0.81,6.1 2.45,7.63 1.62,1.56 3.62,2.34 6.02,2.34 2.15,0 4.32,-0.64 6.55,-1.92 2.23,-1.28 4.4,-2.9 6.57,-4.85 2.15,-1.98 4.18,-4.12 6.1,-6.46 1.95,-2.34 3.65,-4.54 5.15,-6.6 1.5,-2.06 2.73,-3.87 3.7,-5.43 0.98,-1.53 1.59,-2.51 1.81,-2.9l3.01 2.28c-1.89,3.18 -4.04,6.52 -6.43,10.06 -2.4,3.54 -5.07,6.8 -7.97,9.83 -2.93,3.01 -6.07,5.52 -9.5,7.5 -3.43,1.98 -7.13,2.98 -11.12,2.98 -2.45,0 -4.57,-0.45 -6.41,-1.31 -1.81,-0.86 -3.34,-2.06 -4.6,-3.62 -1.26,-1.56 -2.2,-3.4 -2.81,-5.52 -0.64,-2.12 -0.95,-4.43 -0.95,-6.94 0,-1.64 0.25,-3.96 0.78,-6.94 0.5,-2.98 1.39,-6.55 2.65,-10.64 1.25,-4.12 2.93,-8.72 5.02,-13.85 2.09,-5.1 4.76,-10.61 7.97,-16.49l-13.57 0 1.64 -4.24 14.29 0zm74.03 45.13c0.22,0.06 0.44,0.08 0.67,0.08 0.22,0 0.44,0 0.72,0 1.53,0 2.92,-0.14 4.18,-0.45 1.26,-0.31 2.4,-0.78 3.46,-1.42 1.06,-0.67 2.09,-1.53 3.06,-2.59 0.97,-1.06 1.92,-2.34 2.87,-3.87l2.93 2.28c-2.62,3.71 -5.29,6.3 -8.08,7.77 -2.78,1.45 -5.71,2.2 -8.8,2.2 -1.14,0 -2.17,-0.11 -3.04,-0.33 -2.34,3.93 -4.85,7.25 -7.5,10 -2.67,2.73 -5.4,4.99 -8.16,6.72 -2.79,1.76 -5.54,3.01 -8.25,3.82 -2.73,0.78 -5.27,1.17 -7.61,1.17 -2.4,0 -4.6,-0.42 -6.66,-1.26 -2.03,-0.83 -3.79,-2.06 -5.24,-3.65 -1.48,-1.56 -2.62,-3.46 -3.45,-5.63 -0.81,-2.17 -1.2,-4.62 -1.2,-7.33 0,-2.73 0.42,-5.52 1.28,-8.33 0.89,-2.84 2.06,-5.63 3.56,-8.41 1.51,-2.78 3.26,-5.46 5.27,-8.05 2.01,-2.56 4.18,-4.98 6.52,-7.22 2.34,-2.23 4.77,-4.23 7.27,-6.04 2.51,-1.78 5.02,-3.26 7.5,-4.4l2.62 3.42c-2.87,2.06 -5.79,4.68 -8.78,7.86 -2.95,3.15 -5.66,6.6 -8.08,10.36 -2.42,3.73 -4.4,7.63 -5.96,11.7 -1.53,4.07 -2.31,8 -2.31,11.79 0,3.43 0.75,6.1 2.29,7.97 1.53,1.87 3.84,2.81 6.94,2.81 2.4,0 4.77,-0.5 7.11,-1.48 2.34,-0.97 4.62,-2.31 6.85,-3.98 2.23,-1.7 4.37,-3.71 6.44,-6.02 2.09,-2.31 4.04,-4.77 5.88,-7.38 -1.56,-0.92 -2.95,-2.15 -4.15,-3.71 -1.2,-1.56 -2.2,-3.32 -3.03,-5.29 -0.81,-2.01 -1.42,-4.12 -1.81,-6.41 -0.42,-2.29 -0.61,-4.63 -0.61,-7.02 0,-2.4 0.28,-4.65 0.89,-6.8 0.58,-2.12 1.42,-3.98 2.48,-5.57 1.06,-1.62 2.31,-2.87 3.71,-3.79 1.42,-0.95 2.98,-1.39 4.65,-1.39 1.54,0 2.9,0.39 4.09,1.17 1.2,0.81 2.2,1.89 3.01,3.26 0.84,1.39 1.45,3.04 1.89,4.96 0.42,1.89 0.64,3.93 0.64,6.1 0,1.64 -0.14,3.43 -0.39,5.4 -0.28,1.95 -0.67,3.93 -1.2,5.91 -0.53,1.98 -1.14,3.96 -1.87,5.88 -0.75,1.92 -1.59,3.65 -2.59,5.18zm-11.09 -20.31c0,1.56 0.14,3.29 0.42,5.13 0.25,1.87 0.7,3.65 1.28,5.4 0.61,1.73 1.36,3.34 2.28,4.85 0.95,1.5 2.09,2.68 3.46,3.54 0.98,-1.89 1.78,-3.85 2.48,-5.82 0.67,-1.98 1.25,-3.9 1.7,-5.77 0.48,-1.84 0.81,-3.56 1,-5.18 0.17,-1.59 0.28,-3.01 0.28,-4.21 0,-1.62 -0.14,-3.12 -0.42,-4.49 -0.28,-1.36 -0.64,-2.53 -1.09,-3.54 -0.47,-1 -1.03,-1.81 -1.73,-2.37 -0.67,-0.58 -1.42,-0.86 -2.23,-0.86 -1.11,0 -2.12,0.36 -3.04,1.11 -0.92,0.72 -1.7,1.7 -2.37,2.93 -0.64,1.22 -1.14,2.65 -1.5,4.23 -0.36,1.62 -0.53,3.29 -0.53,5.04zm77.53 14.35c-0.84,1.2 -1.78,2.81 -2.9,4.87 -1.11,2.04 -2.42,4.24 -3.9,6.61 -1.45,2.37 -3.06,4.76 -4.85,7.22 -1.76,2.45 -3.71,4.65 -5.8,6.6 -2.09,1.98 -4.37,3.57 -6.8,4.82 -2.45,1.25 -5.07,1.89 -7.86,1.89 -1.51,0 -2.95,-0.25 -4.32,-0.7 -1.36,-0.48 -2.56,-1.2 -3.59,-2.17 -1.03,-0.97 -1.84,-2.2 -2.45,-3.62 -0.59,-1.45 -0.89,-3.15 -0.89,-5.1 0,-2.68 0.53,-5.46 1.59,-8.39 1.06,-2.9 2.31,-5.71 3.71,-8.44 1.42,-2.73 2.84,-5.21 4.26,-7.47 1.42,-2.26 2.45,-4.07 3.09,-5.43 0.67,-1.36 0.97,-2.53 0.97,-3.51 0,-0.7 -0.22,-1.34 -0.7,-1.87 -0.45,-0.56 -1.03,-1.09 -1.7,-1.59 -0.7,-0.53 -1.39,-1.06 -2.12,-1.64 -0.75,-0.56 -1.36,-1.25 -1.84,-2.09 -1.36,2.2 -2.76,4.4 -4.18,6.63 -1.26,1.9 -2.59,4.04 -4.07,6.41 -1.48,2.37 -2.9,4.68 -4.27,6.97l-2.93 -2.28 17.47 -27.33 2.37 1.23c-0.11,0.31 -0.28,0.83 -0.53,1.53 -0.25,0.72 -0.36,1.48 -0.36,2.28 0,0.61 0.08,1.2 0.28,1.75 0.19,0.59 0.58,1.12 1.17,1.62 2.2,1.95 3.9,3.46 5.15,4.51 1.25,1.06 2.17,1.89 2.73,2.54 0.58,0.61 0.92,1.14 1.06,1.56 0.14,0.39 0.22,0.92 0.22,1.59 0,0.64 -0.11,1.42 -0.33,2.37 -0.22,0.92 -0.58,2.04 -1.11,3.34 -0.5,1.31 -1.23,2.84 -2.12,4.6 -0.89,1.78 -2.03,3.84 -3.37,6.16 -0.84,1.42 -1.65,2.87 -2.42,4.29 -0.78,1.45 -1.51,2.9 -2.12,4.37 -0.61,1.48 -1.14,2.95 -1.51,4.4 -0.39,1.48 -0.58,2.9 -0.58,4.26 0,1.03 0.17,1.87 0.44,2.48 0.31,0.61 0.7,1.12 1.2,1.42 0.47,0.33 1,0.56 1.59,0.67 0.56,0.11 1.14,0.17 1.67,0.17 1.78,0 3.56,-0.53 5.35,-1.62 1.75,-1.06 3.51,-2.42 5.21,-4.13 1.73,-1.67 3.37,-3.59 4.99,-5.74 1.62,-2.15 3.15,-4.35 4.62,-6.57 1.45,-2.23 2.81,-4.37 4.07,-6.41 1.25,-2.03 2.37,-3.82 3.34,-5.35l3.04 2.28z"/>
    <path class="fil1" d="M1010.47 110.17c0,1.09 -0.25,2.23 -0.81,3.4 -0.53,1.17 -1.22,2.23 -2.09,3.15 -0.83,0.92 -1.75,1.67 -2.81,2.28 -1.03,0.58 -2.06,0.89 -3.09,0.89 -0.92,0 -1.64,-0.33 -2.12,-1.03 -0.5,-0.67 -0.72,-1.51 -0.72,-2.48 0,-0.86 0.14,-1.9 0.47,-3.09 0.33,-1.2 0.81,-2.34 1.48,-3.4 0.64,-1.06 1.45,-1.98 2.37,-2.73 0.92,-0.75 1.98,-1.14 3.17,-1.14 1.14,0 2.12,0.44 2.93,1.31 0.84,0.86 1.23,1.81 1.23,2.84zm-15.24 18.14c-0.72,1.42 -1.7,3.26 -2.98,5.57 -1.28,2.31 -2.68,4.85 -4.12,7.61 -1.48,2.76 -2.98,5.63 -4.49,8.64 -1.53,3.04 -2.9,5.96 -4.12,8.83 -1.23,2.84 -2.23,5.54 -2.98,8.03 -0.78,2.51 -1.14,4.62 -1.14,6.38 0,1.59 0.3,2.65 0.97,3.23 0.64,0.56 1.56,0.83 2.76,0.83 2.26,0 4.43,-0.73 6.55,-2.2 2.12,-1.45 4.24,-3.37 6.32,-5.74 2.09,-2.37 4.15,-5.07 6.16,-8.14 2.01,-3.03 4.04,-6.1 6.05,-9.22l2.93 2.28c-1.56,2.84 -3.34,5.85 -5.35,9.06 -1.98,3.23 -4.18,6.21 -6.63,8.94 -2.45,2.76 -5.15,5.02 -8.08,6.83 -2.95,1.78 -6.16,2.7 -9.64,2.7 -3.26,0 -5.77,-1 -7.52,-2.95 -1.73,-1.95 -2.59,-4.49 -2.59,-7.58 0,-3.65 0.84,-7.47 2.51,-11.45 1.7,-3.96 3.82,-7.88 6.35,-11.78 2.51,-3.9 5.26,-7.63 8.22,-11.23 2.98,-3.59 5.71,-6.85 8.22,-9.78l2.62 1.14zm73.86 0c-0.7,1.42 -1.7,3.26 -2.98,5.54 -1.28,2.29 -2.64,4.79 -4.12,7.55 -1.48,2.76 -2.95,5.63 -4.43,8.61 -1.5,2.98 -2.87,5.91 -4.1,8.78 -1.22,2.87 -2.23,5.55 -3.01,8.08 -0.81,2.53 -1.2,4.65 -1.2,6.41 0,1.73 0.33,2.87 1.03,3.4 0.67,0.5 1.56,0.75 2.65,0.75 1.59,0 3.21,-0.45 4.85,-1.37 1.67,-0.94 3.31,-2.14 4.9,-3.59 1.62,-1.48 3.18,-3.15 4.71,-4.98 1.51,-1.84 2.95,-3.71 4.26,-5.6 1.34,-1.87 2.56,-3.68 3.65,-5.38 1.08,-1.73 2.01,-3.18 2.76,-4.37l2.95 2.28c-0.92,1.76 -2.01,3.62 -3.26,5.63 -1.25,2.04 -2.65,4.04 -4.12,6.1 -1.51,2.03 -3.12,4.01 -4.87,5.9 -1.73,1.9 -3.57,3.6 -5.49,5.07 -1.95,1.45 -3.96,2.62 -6.1,3.51 -2.12,0.86 -4.29,1.31 -6.52,1.31 -3.26,0 -5.66,-1 -7.19,-2.95 -1.53,-1.95 -2.29,-4.49 -2.29,-7.58 0,-0.22 0.03,-0.7 0.05,-1.45 0.03,-0.72 0.08,-1.31 0.2,-1.76 -2.73,3.43 -5.32,6.27 -7.8,8.5 -2.48,2.23 -4.87,4.01 -7.19,5.3 -2.31,1.31 -4.54,2.23 -6.69,2.76 -2.15,0.5 -4.21,0.75 -6.16,0.75 -2.07,0 -4.01,-0.33 -5.85,-1 -1.81,-0.69 -3.43,-1.67 -4.79,-2.98 -1.39,-1.31 -2.48,-2.92 -3.29,-4.82 -0.78,-1.89 -1.17,-4.09 -1.17,-6.6 0,-3.12 0.7,-6.66 2.09,-10.67 1.36,-3.98 3.84,-8.3 7.38,-12.93 2.98,-3.99 6.1,-7.33 9.33,-10.03 3.23,-2.73 6.44,-4.93 9.56,-6.58 3.12,-1.67 6.1,-2.84 8.94,-3.57 2.81,-0.7 5.35,-1.06 7.58,-1.06 5.01,0 8.81,0.84 11.37,2.51 2.53,1.64 4.09,4.21 4.62,7.63 1.11,-1.36 2.26,-2.73 3.45,-4.09 1.17,-1.37 2.4,-2.73 3.65,-4.15l2.62 1.14zm-25.05 31.01c0.7,-1.14 1.56,-2.59 2.59,-4.37 1.06,-1.75 2.15,-3.59 3.29,-5.46 1.14,-1.87 2.26,-3.68 3.34,-5.43 1.09,-1.73 2.04,-3.2 2.84,-4.4 0,-0.5 -0.05,-1.28 -0.19,-2.37 -0.14,-1.09 -0.5,-2.2 -1.12,-3.31 -0.58,-1.11 -1.53,-2.06 -2.84,-2.9 -1.31,-0.81 -3.12,-1.23 -5.46,-1.23 -1.7,0 -3.6,0.28 -5.68,0.78 -2.09,0.53 -4.32,1.39 -6.69,2.62 -2.37,1.23 -4.82,2.84 -7.3,4.85 -2.51,2.03 -5.01,4.52 -7.52,7.52 -3.76,4.51 -6.66,9.05 -8.69,13.6 -2.03,4.54 -3.06,8.63 -3.06,12.28 0,3.09 0.7,5.49 2.12,7.16 1.42,1.7 3.43,2.53 6.05,2.53 3.01,0 5.79,-0.67 8.41,-2 2.62,-1.31 5.04,-3.04 7.35,-5.18 2.29,-2.12 4.46,-4.46 6.52,-7.05 2.06,-2.59 4.07,-5.13 6.04,-7.63z"/>
   </g>
   <g>
    <path class="fil1" d="M629.51 239.1c0.17,0.06 0.36,0.08 0.64,0.08l1.95 0c4.26,0 8.52,-0.58 12.81,-1.73 4.32,-1.14 8.19,-2.73 11.67,-4.76 3.48,-2.07 6.33,-4.52 8.5,-7.36 2.17,-2.87 3.26,-5.99 3.26,-9.42 0,-1.87 -0.39,-3.51 -1.23,-4.96 -0.81,-1.42 -1.95,-2.65 -3.37,-3.62 -1.45,-0.98 -3.2,-1.73 -5.23,-2.26 -2.04,-0.5 -4.29,-0.75 -6.74,-0.75 -4.29,0 -8.47,0.53 -12.57,1.62 -4.07,1.09 -7.91,2.56 -11.51,4.46 -3.59,1.87 -6.88,4.07 -9.86,6.6 -3.01,2.53 -5.57,5.29 -7.77,8.25 -2.17,2.95 -3.84,6.04 -5.04,9.28 -1.2,3.21 -1.81,6.41 -1.81,9.61 0,3.21 0.61,6.27 1.81,9.14 3.76,0.11 7.24,0.39 10.53,0.83 3.26,0.42 6.07,1.09 8.47,1.98 2.4,0.92 4.29,2.06 5.66,3.48 1.34,1.42 2.03,3.12 2.03,5.13 0,2.2 -0.83,3.84 -2.45,4.98 -1.64,1.14 -3.68,1.73 -6.13,1.73 -1.95,0 -3.96,-0.33 -6.05,-0.98 -2.06,-0.67 -4.07,-1.59 -5.99,-2.76 -1.92,-1.17 -3.79,-2.56 -5.54,-4.23 -1.79,-1.64 -3.37,-3.48 -4.79,-5.52 -6.02,0.5 -11.62,1.89 -16.77,4.21 -5.13,2.31 -9.56,5.32 -13.29,9 -3.73,3.65 -6.66,7.88 -8.78,12.65 -2.12,4.74 -3.18,9.78 -3.18,15.05 0,4.29 0.7,8.19 2.15,11.65 1.45,3.46 3.59,6.41 6.46,8.83 2.84,2.45 6.41,4.35 10.7,5.66 4.26,1.31 9.19,1.95 14.79,1.95 6.21,0 12.09,-0.94 17.69,-2.81 5.57,-1.9 10.73,-4.27 15.46,-7.16 4.73,-2.87 9.03,-6.05 12.9,-9.5 3.84,-3.46 7.22,-6.74 10.06,-9.83 2.87,-3.09 5.15,-5.82 6.91,-8.19 1.73,-2.37 2.87,-3.9 3.43,-4.63l2.93 2.29c-1.22,1.81 -2.93,4.15 -5.04,7.07 -2.12,2.9 -4.71,5.99 -7.72,9.25 -3.01,3.26 -6.49,6.55 -10.45,9.84 -3.96,3.29 -8.36,6.27 -13.23,8.94 -4.85,2.67 -10.17,4.82 -15.94,6.49 -5.77,1.67 -12.01,2.48 -18.69,2.48 -7.36,0 -13.68,-0.92 -19.03,-2.76 -5.32,-1.87 -9.75,-4.35 -13.26,-7.47 -3.51,-3.15 -6.1,-6.77 -7.8,-10.87 -1.67,-4.12 -2.53,-8.44 -2.53,-13.01 0,-3.23 0.42,-6.49 1.22,-9.81 0.84,-3.32 2.09,-6.55 3.76,-9.72 1.7,-3.15 3.87,-6.13 6.55,-8.97 2.65,-2.81 5.82,-5.32 9.44,-7.49 3.65,-2.17 7.86,-3.96 12.59,-5.32 4.71,-1.37 10.03,-2.17 15.91,-2.45 -0.98,-1.95 -1.76,-4.01 -2.28,-6.16 -0.56,-2.15 -0.84,-4.38 -0.84,-6.66 0,-4.18 0.72,-8.13 2.15,-11.87 1.39,-3.73 3.34,-7.16 5.82,-10.28 2.48,-3.12 5.4,-5.91 8.75,-8.36 3.34,-2.45 6.91,-4.54 10.73,-6.24 3.82,-1.73 7.77,-3.04 11.87,-3.93 4.12,-0.89 8.19,-1.34 12.2,-1.34 4.15,0 7.83,0.42 11.06,1.25 3.23,0.83 5.96,2.03 8.22,3.54 2.23,1.53 3.93,3.37 5.13,5.51 1.2,2.15 1.81,4.52 1.81,7.08 0,2.81 -0.58,5.49 -1.76,7.99 -1.17,2.51 -2.76,4.77 -4.74,6.8 -2.01,2.07 -4.32,3.87 -6.94,5.49 -2.65,1.59 -5.46,2.95 -8.42,4.04 -2.98,1.09 -6.02,1.92 -9.19,2.48 -3.15,0.58 -6.19,0.86 -9.14,0.86 -0.98,0 -1.76,-0.03 -2.37,-0.08 -0.58,-0.05 -0.95,-0.08 -1.06,-0.08l0.5 -4.23zm-2.12 25.46c0,-1.31 -0.58,-2.4 -1.76,-3.23 -1.17,-0.83 -2.7,-1.5 -4.6,-2.01 -1.87,-0.47 -3.98,-0.86 -6.35,-1.09 -2.37,-0.25 -4.77,-0.41 -7.22,-0.47 1.03,1.53 2.17,2.9 3.45,4.07 1.28,1.17 2.59,2.15 3.96,2.95 1.36,0.83 2.73,1.45 4.12,1.89 1.39,0.42 2.7,0.64 3.96,0.64 1.48,0 2.59,-0.28 3.32,-0.81 0.72,-0.56 1.11,-1.2 1.11,-1.95zm99.82 6.27c1.56,-1.84 3.21,-3.57 4.87,-5.13 1.7,-1.59 3.37,-2.95 5.07,-4.1 1.67,-1.14 3.37,-2.04 5.02,-2.65 1.67,-0.61 3.26,-0.95 4.79,-0.95 1.17,0 2.37,0.22 3.54,0.61 1.17,0.42 2.23,1.03 3.15,1.89 0.92,0.84 1.64,1.89 2.2,3.2 0.53,1.31 0.81,2.87 0.81,4.65 0,2.62 -0.36,5.18 -1.06,7.72 -0.7,2.54 -1.62,4.99 -2.7,7.38 -1.09,2.4 -2.23,4.71 -3.46,6.94 -1.23,2.23 -2.4,4.37 -3.48,6.41 -1.09,2.07 -1.98,3.99 -2.68,5.8 -0.72,1.84 -1.06,3.51 -1.06,5.04 0,1.17 0.3,2.03 0.92,2.56 0.64,0.5 1.31,0.78 2.01,0.78 1.42,0 3.09,-0.83 5.01,-2.45 1.95,-1.64 3.96,-3.73 6.07,-6.3 2.15,-2.56 4.26,-5.38 6.41,-8.44 2.17,-3.06 4.21,-6.07 6.19,-9.03l2.93 2.29c-0.7,1.14 -1.62,2.65 -2.73,4.54 -1.12,1.87 -2.4,3.87 -3.87,6.05 -1.48,2.15 -3.06,4.32 -4.82,6.52 -1.73,2.2 -3.57,4.18 -5.52,5.96 -1.92,1.76 -3.93,3.2 -5.99,4.32 -2.06,1.11 -4.15,1.67 -6.21,1.67 -1.14,0 -2.23,-0.17 -3.29,-0.48 -1.09,-0.33 -2.01,-0.86 -2.84,-1.59 -0.81,-0.75 -1.45,-1.73 -1.95,-2.9 -0.47,-1.2 -0.73,-2.67 -0.73,-4.43 0,-2.4 0.39,-4.74 1.23,-7.02 0.81,-2.28 1.84,-4.54 3.09,-6.77 1.25,-2.23 2.59,-4.46 4.04,-6.66 1.45,-2.2 2.79,-4.37 4.04,-6.55 1.25,-2.2 2.29,-4.37 3.09,-6.58 0.83,-2.2 1.22,-4.46 1.22,-6.74 0,-1.14 -0.2,-2.06 -0.64,-2.73 -0.45,-0.7 -1.25,-1.03 -2.45,-1.03 -1.89,0 -3.93,0.78 -6.05,2.34 -2.12,1.53 -4.32,3.62 -6.6,6.24 -2.29,2.62 -4.62,5.65 -7.02,9.11 -2.4,3.45 -4.77,7.08 -7.13,10.92 -2.37,3.85 -4.71,7.72 -7.02,11.68 -2.31,3.96 -4.54,7.74 -6.66,11.39l-6.85 -3.59c2.87,-5.93 5.6,-11.23 8.11,-15.91 2.54,-4.68 4.77,-8.91 6.66,-12.7 1.89,-3.79 3.4,-7.24 4.49,-10.36 1.09,-3.12 1.64,-6.07 1.64,-8.86 0,-0.53 -0.05,-1.11 -0.17,-1.67 -0.11,-0.58 -0.33,-1.09 -0.64,-1.5 -0.33,-0.44 -0.75,-0.81 -1.28,-1.11 -0.5,-0.31 -1.17,-0.45 -2.01,-0.45 -1.84,0 -3.7,0.86 -5.63,2.56 -1.89,1.73 -3.9,4.07 -6.05,7.02 -2.12,2.98 -4.37,6.44 -6.8,10.36 -2.42,3.96 -5.04,8.13 -7.83,12.53 -2.81,4.41 -5.85,8.95 -9.11,13.6 -3.26,4.65 -6.82,9.17 -10.7,13.51l-5.63 -3.76c1.73,-2.62 3.57,-5.38 5.52,-8.27 1.92,-2.93 3.82,-5.88 5.71,-8.86 1.87,-3.01 3.68,-5.99 5.38,-8.95 1.73,-2.95 3.23,-5.76 4.54,-8.44 1.31,-2.67 2.34,-5.13 3.09,-7.35 0.75,-2.23 1.14,-4.12 1.14,-5.71 0,-1.84 -0.47,-3.18 -1.39,-4.01 -0.92,-0.81 -2.12,-1.23 -3.59,-1.23 -1.73,0 -3.43,0.64 -5.1,1.89 -1.64,1.25 -3.4,3.01 -5.21,5.29 -1.84,2.29 -3.79,5.04 -5.88,8.22 -2.09,3.18 -4.48,6.69 -7.16,10.48l-2.93 -2.29c2.9,-4.57 5.49,-8.58 7.8,-12.06 2.31,-3.48 4.49,-6.41 6.58,-8.75 2.06,-2.34 4.12,-4.09 6.16,-5.29 2.03,-1.2 4.26,-1.81 6.66,-1.81 0.7,0 1.62,0.14 2.73,0.42 1.11,0.28 2.2,0.75 3.29,1.48 1.09,0.7 2.06,1.67 2.9,2.93 0.86,1.25 1.36,2.87 1.53,4.82 3.04,-3.93 6.21,-7.05 9.53,-9.39 3.34,-2.34 6.46,-3.51 9.39,-3.51 2.12,0 3.93,0.42 5.4,1.25 1.45,0.86 2.65,1.95 3.54,3.31 0.89,1.37 1.56,2.9 1.95,4.62 0.42,1.7 0.61,3.43 0.61,5.18 0,0.42 0,0.89 -0.03,1.39 -0.03,0.48 -0.08,0.97 -0.11,1.45zm70.1 -26.77l-18.53 37.22c3.29,-4.18 6.72,-8.08 10.31,-11.7 3.59,-3.62 7.25,-6.58 11.01,-8.86 2.78,-1.64 5.23,-2.76 7.35,-3.4 2.12,-0.61 4.12,-0.92 6.04,-0.92 1.84,0 3.37,0.28 4.57,0.89 1.2,0.58 2.15,1.39 2.84,2.37 0.72,0.98 1.2,2.06 1.48,3.23 0.28,1.17 0.42,2.31 0.42,3.46 0,2.56 -0.45,5.1 -1.31,7.6 -0.89,2.48 -1.95,4.96 -3.23,7.41 -1.28,2.45 -2.68,4.85 -4.21,7.22 -1.53,2.37 -2.92,4.68 -4.21,6.94 -1.28,2.29 -2.34,4.49 -3.23,6.66 -0.86,2.17 -1.28,4.29 -1.28,6.3 0,0.98 0.11,1.79 0.36,2.4 0.25,0.64 0.56,1.12 0.97,1.48 0.42,0.36 0.86,0.59 1.34,0.7 0.5,0.11 0.98,0.17 1.48,0.17 1.03,0 2.26,-0.48 3.62,-1.45 1.39,-0.95 2.87,-2.2 4.46,-3.73 1.59,-1.56 3.2,-3.32 4.85,-5.32 1.67,-1.98 3.29,-4.01 4.82,-6.1 1.56,-2.12 3.01,-4.18 4.37,-6.21 1.36,-2.04 2.56,-3.9 3.59,-5.6l3.01 2.29c-0.59,1.2 -1.48,2.79 -2.65,4.74 -1.17,1.95 -2.53,4.07 -4.12,6.33 -1.59,2.25 -3.32,4.51 -5.18,6.77 -1.87,2.26 -3.84,4.32 -5.9,6.18 -2.09,1.84 -4.18,3.34 -6.33,4.52 -2.17,1.17 -4.26,1.75 -6.32,1.75 -1.42,0 -2.79,-0.22 -4.1,-0.64 -1.31,-0.45 -2.45,-1.11 -3.43,-2.01 -0.98,-0.89 -1.75,-2.06 -2.37,-3.48 -0.59,-1.39 -0.89,-3.09 -0.89,-5.05 0,-2.34 0.47,-5.04 1.42,-8.08 0.95,-3.06 2.78,-6.55 5.51,-10.45 2.23,-3.21 4.15,-5.91 5.8,-8.05 1.62,-2.15 2.98,-4.01 4.04,-5.63 1.06,-1.62 1.84,-3.06 2.31,-4.4 0.5,-1.34 0.75,-2.81 0.75,-4.46 0,-1.42 -0.42,-2.51 -1.22,-3.26 -0.84,-0.75 -1.76,-1.14 -2.79,-1.14 -2.76,0 -5.63,0.78 -8.55,2.37 -2.95,1.59 -5.85,3.65 -8.75,6.24 -2.87,2.59 -5.71,5.54 -8.5,8.86 -2.76,3.32 -5.38,6.72 -7.86,10.17 -2.48,3.46 -4.77,6.83 -6.86,10.14 -2.12,3.34 -3.93,6.3 -5.43,8.94 -1.53,2.65 -2.7,4.76 -3.56,6.38 -0.84,1.59 -1.28,2.42 -1.34,2.48 -2.28,4.68 -4.52,9.22 -6.69,13.6 -2.17,4.37 -4.24,8.52 -6.16,12.45 -1.95,3.9 -3.73,7.49 -5.35,10.72 -1.64,3.23 -3.06,6.05 -4.26,8.44 -1.2,2.4 -2.12,4.26 -2.81,5.63 -0.67,1.36 -1.03,2.06 -1.09,2.12l-8.92 -5.04c4.49,-8.44 8.5,-16.05 12.09,-22.87 3.6,-6.8 7.02,-13.21 10.28,-19.2 3.26,-6.02 6.46,-11.87 9.64,-17.53 3.15,-5.66 6.49,-11.56 10.03,-17.75 3.54,-6.18 7.38,-12.81 11.56,-19.92 4.15,-7.1 8.91,-15.1 14.24,-24.04l2.84 1.14zm89.41 43.01c-0.84,1.2 -1.79,2.81 -2.9,4.87 -1.11,2.04 -2.42,4.24 -3.9,6.61 -1.45,2.37 -3.06,4.76 -4.85,7.22 -1.76,2.45 -3.71,4.65 -5.8,6.6 -2.09,1.98 -4.37,3.57 -6.8,4.82 -2.45,1.25 -5.07,1.89 -7.86,1.89 -1.51,0 -2.95,-0.25 -4.32,-0.7 -1.36,-0.47 -2.56,-1.2 -3.59,-2.17 -1.03,-0.97 -1.84,-2.2 -2.45,-3.62 -0.59,-1.45 -0.89,-3.15 -0.89,-5.1 0,-2.68 0.53,-5.46 1.59,-8.39 1.06,-2.9 2.31,-5.71 3.71,-8.44 1.42,-2.73 2.84,-5.21 4.26,-7.46 1.42,-2.26 2.45,-4.07 3.09,-5.43 0.67,-1.36 0.97,-2.53 0.97,-3.51 0,-0.7 -0.22,-1.34 -0.7,-1.87 -0.45,-0.56 -1.03,-1.09 -1.7,-1.59 -0.7,-0.53 -1.39,-1.06 -2.12,-1.64 -0.75,-0.56 -1.36,-1.25 -1.84,-2.09 -1.36,2.2 -2.76,4.4 -4.18,6.63 -1.26,1.89 -2.59,4.04 -4.07,6.41 -1.48,2.37 -2.9,4.68 -4.27,6.97l-2.93 -2.29 17.47 -27.33 2.37 1.23c-0.11,0.3 -0.28,0.83 -0.53,1.53 -0.25,0.72 -0.36,1.48 -0.36,2.28 0,0.61 0.08,1.2 0.28,1.75 0.19,0.59 0.58,1.12 1.17,1.62 2.2,1.95 3.9,3.46 5.15,4.52 1.25,1.06 2.17,1.89 2.73,2.54 0.58,0.61 0.92,1.14 1.06,1.56 0.14,0.39 0.22,0.92 0.22,1.59 0,0.64 -0.11,1.42 -0.33,2.37 -0.22,0.92 -0.58,2.04 -1.11,3.34 -0.5,1.31 -1.23,2.84 -2.12,4.6 -0.89,1.78 -2.03,3.84 -3.37,6.16 -0.84,1.42 -1.65,2.87 -2.42,4.29 -0.78,1.45 -1.51,2.9 -2.12,4.38 -0.61,1.48 -1.14,2.95 -1.51,4.4 -0.39,1.48 -0.58,2.9 -0.58,4.26 0,1.03 0.17,1.87 0.44,2.48 0.31,0.61 0.7,1.12 1.2,1.42 0.47,0.33 1,0.56 1.59,0.67 0.56,0.11 1.14,0.17 1.67,0.17 1.78,0 3.56,-0.53 5.35,-1.62 1.75,-1.06 3.51,-2.42 5.21,-4.13 1.73,-1.67 3.37,-3.59 4.99,-5.74 1.62,-2.15 3.15,-4.34 4.62,-6.57 1.45,-2.23 2.82,-4.38 4.07,-6.41 1.25,-2.03 2.37,-3.82 3.34,-5.35l3.04 2.29zm3.17 9.56c-0.11,0.64 -0.2,1.31 -0.25,1.95 -0.05,0.67 -0.08,1.31 -0.08,1.98 0,1.95 0.28,3.82 0.86,5.57 0.56,1.79 1.39,3.32 2.53,4.65 1.12,1.34 2.48,2.4 4.15,3.15 1.67,0.75 3.54,1.14 5.68,1.14 7.1,0 13.99,-2.42 20.64,-7.27 6.63,-4.82 13.23,-12.51 19.84,-23.01l2.76 2.45c-3.59,5.99 -7.22,11.03 -10.92,15.15 -3.71,4.1 -7.38,7.44 -11.06,9.97 -3.68,2.56 -7.27,4.43 -10.81,5.57 -3.54,1.14 -6.91,1.7 -10.14,1.7 -2.34,0 -4.82,-0.33 -7.41,-0.97 -2.62,-0.64 -5.01,-1.76 -7.24,-3.26 -2.2,-1.53 -4.01,-3.57 -5.46,-6.13 -1.45,-2.56 -2.17,-5.74 -2.17,-9.56 0,-4.07 0.69,-7.99 2.09,-11.79 1.39,-3.79 3.2,-7.3 5.43,-10.56 2.23,-3.29 4.79,-6.27 7.66,-8.94 2.9,-2.7 5.82,-4.99 8.78,-6.91 2.98,-1.89 5.88,-3.37 8.69,-4.43 2.84,-1.06 5.35,-1.62 7.52,-1.62 1.42,0 2.84,0.22 4.32,0.67 1.47,0.44 2.79,1.11 3.95,2.03 1.17,0.92 2.12,2.15 2.87,3.68 0.73,1.53 1.09,3.34 1.09,5.46 0,2.9 -0.67,5.6 -1.98,8.13 -1.34,2.53 -3.12,4.87 -5.35,7.02 -2.23,2.15 -4.82,4.07 -7.77,5.79 -2.93,1.7 -5.99,3.15 -9.22,4.35 -3.2,1.2 -6.44,2.17 -9.7,2.87 -3.26,0.7 -6.38,1.09 -9.31,1.14zm0.64 -3.51c3.65,-0.39 7.07,-1.14 10.28,-2.28 3.2,-1.14 6.16,-2.54 8.83,-4.21 2.65,-1.64 5.04,-3.45 7.13,-5.43 2.09,-1.95 3.85,-3.93 5.26,-5.96 1.42,-2.01 2.51,-3.93 3.26,-5.79 0.75,-1.84 1.14,-3.51 1.14,-4.96 0,-1.48 -0.39,-2.65 -1.17,-3.51 -0.81,-0.86 -1.73,-1.31 -2.82,-1.31 -2.4,0 -5.1,0.86 -8.08,2.57 -3.01,1.73 -5.99,4.09 -9,7.1 -2.98,3.01 -5.79,6.57 -8.44,10.64 -2.65,4.1 -4.76,8.47 -6.41,13.15zm78.93 -41.96c-0.25,0.5 -0.61,1.03 -1.06,1.59 -0.42,0.58 -0.83,1.22 -1.25,1.98 -0.42,0.72 -0.75,1.59 -1.06,2.56 -0.31,0.97 -0.45,2.15 -0.45,3.51 0,1.14 0.28,2.7 0.87,4.65 0.56,1.95 1.17,4.21 1.81,6.74 0.67,2.51 1.28,5.27 1.84,8.22 0.58,2.98 0.86,6.04 0.86,9.19 0,4.63 -0.61,8.72 -1.87,12.26 -1.25,3.51 -2.93,6.55 -4.99,9.05 4.23,-2.28 8.41,-5.57 12.48,-9.83 4.1,-4.29 8.19,-9.7 12.34,-16.3l2.76 2.45c-2.34,3.87 -4.99,7.69 -7.94,11.48 -2.98,3.76 -6.24,7.19 -9.75,10.2 -3.54,3.01 -7.36,5.46 -11.45,7.35 -4.07,1.87 -8.39,2.81 -12.96,2.81 -4.1,0 -7.52,-0.98 -10.34,-2.9 -2.81,-1.95 -4.54,-4.85 -5.18,-8.69l2.93 -0.58c0,0.33 0.16,0.86 0.44,1.59 0.31,0.75 0.78,1.48 1.45,2.17 0.64,0.7 1.53,1.34 2.65,1.87 1.11,0.56 2.48,0.84 4.12,0.84 2.17,0 4.1,-0.5 5.8,-1.53 1.67,-1 3.15,-2.31 4.4,-3.96 1.25,-1.62 2.31,-3.48 3.18,-5.57 0.89,-2.12 1.59,-4.26 2.09,-6.49 0.53,-2.23 0.89,-4.4 1.11,-6.55 0.2,-2.12 0.31,-4.04 0.31,-5.79 0,-1.73 -0.06,-3.65 -0.2,-5.79 -0.14,-2.12 -0.28,-4.15 -0.45,-6.08 -0.17,-1.92 -0.3,-3.62 -0.44,-5.07 -0.14,-1.42 -0.23,-2.37 -0.23,-2.81l0 -0.14c-0.69,0.75 -1.53,1.87 -2.5,3.34 -1,1.45 -2.04,3.07 -3.15,4.79 -1.11,1.76 -2.23,3.51 -3.34,5.32 -1.11,1.78 -2.12,3.43 -3.04,4.9 -0.89,1.45 -1.61,2.68 -2.2,3.62 -0.56,0.95 -0.86,1.45 -0.86,1.5l-2.92 -2.29c0.05,-0.05 0.72,-1.22 2.03,-3.51 1.31,-2.29 3.03,-5.18 5.18,-8.69 2.15,-3.51 4.6,-7.38 7.3,-11.68 2.73,-4.26 5.54,-8.41 8.41,-12.45l3.26 2.7zm84.42 9.81c-0.7,1.42 -1.7,3.26 -2.98,5.54 -1.28,2.28 -2.65,4.79 -4.12,7.55 -1.48,2.76 -2.95,5.63 -4.43,8.61 -1.5,2.98 -2.87,5.91 -4.1,8.78 -1.22,2.87 -2.23,5.54 -3.01,8.08 -0.81,2.53 -1.2,4.65 -1.2,6.41 0,1.73 0.33,2.87 1.03,3.4 0.67,0.5 1.56,0.75 2.65,0.75 1.59,0 3.2,-0.44 4.85,-1.36 1.67,-0.95 3.31,-2.14 4.9,-3.59 1.62,-1.48 3.18,-3.15 4.71,-4.99 1.51,-1.84 2.95,-3.71 4.26,-5.6 1.34,-1.87 2.56,-3.68 3.65,-5.38 1.09,-1.73 2.01,-3.18 2.76,-4.38l2.95 2.29c-0.92,1.76 -2.01,3.62 -3.26,5.63 -1.25,2.04 -2.65,4.04 -4.12,6.1 -1.51,2.03 -3.12,4.01 -4.87,5.9 -1.73,1.89 -3.57,3.6 -5.49,5.07 -1.95,1.45 -3.96,2.62 -6.1,3.51 -2.12,0.86 -4.29,1.31 -6.52,1.31 -3.26,0 -5.65,-1 -7.19,-2.95 -1.53,-1.95 -2.28,-4.49 -2.28,-7.58 0,-0.22 0.03,-0.7 0.05,-1.45 0.03,-0.73 0.08,-1.31 0.2,-1.76 -2.73,3.43 -5.32,6.27 -7.8,8.5 -2.48,2.23 -4.88,4.01 -7.19,5.29 -2.31,1.31 -4.54,2.23 -6.69,2.76 -2.15,0.5 -4.21,0.75 -6.16,0.75 -2.06,0 -4.01,-0.33 -5.85,-1 -1.81,-0.69 -3.43,-1.67 -4.79,-2.98 -1.39,-1.31 -2.48,-2.93 -3.29,-4.82 -0.78,-1.89 -1.17,-4.09 -1.17,-6.6 0,-3.12 0.7,-6.66 2.09,-10.67 1.37,-3.98 3.85,-8.3 7.38,-12.93 2.98,-3.99 6.1,-7.33 9.33,-10.03 3.23,-2.73 6.44,-4.93 9.56,-6.57 3.12,-1.67 6.1,-2.84 8.95,-3.57 2.81,-0.69 5.35,-1.06 7.58,-1.06 5.02,0 8.81,0.84 11.37,2.51 2.53,1.64 4.1,4.21 4.62,7.63 1.11,-1.36 2.26,-2.73 3.46,-4.09 1.17,-1.36 2.4,-2.73 3.65,-4.15l2.62 1.14zm-25.05 31.01c0.7,-1.14 1.56,-2.59 2.59,-4.38 1.06,-1.75 2.15,-3.59 3.29,-5.46 1.14,-1.87 2.26,-3.68 3.34,-5.43 1.09,-1.73 2.03,-3.21 2.84,-4.4 0,-0.5 -0.06,-1.28 -0.2,-2.37 -0.14,-1.08 -0.5,-2.2 -1.12,-3.31 -0.58,-1.11 -1.53,-2.06 -2.84,-2.9 -1.31,-0.81 -3.12,-1.22 -5.46,-1.22 -1.7,0 -3.6,0.28 -5.68,0.78 -2.09,0.53 -4.32,1.39 -6.69,2.62 -2.37,1.23 -4.82,2.84 -7.3,4.85 -2.51,2.03 -5.02,4.51 -7.52,7.52 -3.76,4.51 -6.66,9.05 -8.69,13.6 -2.03,4.54 -3.06,8.64 -3.06,12.29 0,3.09 0.7,5.49 2.12,7.16 1.42,1.7 3.43,2.53 6.05,2.53 3.01,0 5.79,-0.67 8.41,-2.01 2.62,-1.31 5.04,-3.04 7.35,-5.18 2.29,-2.12 4.46,-4.46 6.52,-7.05 2.06,-2.59 4.07,-5.13 6.04,-7.63zm85.53 -4.9c-0.84,1.2 -1.79,2.81 -2.9,4.87 -1.11,2.04 -2.42,4.24 -3.9,6.61 -1.45,2.37 -3.06,4.76 -4.85,7.22 -1.76,2.45 -3.71,4.65 -5.8,6.6 -2.09,1.98 -4.37,3.57 -6.8,4.82 -2.45,1.25 -5.07,1.89 -7.86,1.89 -1.51,0 -2.95,-0.25 -4.32,-0.7 -1.36,-0.47 -2.56,-1.2 -3.59,-2.17 -1.03,-0.97 -1.84,-2.2 -2.45,-3.62 -0.59,-1.45 -0.89,-3.15 -0.89,-5.1 0,-2.68 0.53,-5.46 1.59,-8.39 1.06,-2.9 2.31,-5.71 3.71,-8.44 1.42,-2.73 2.84,-5.21 4.26,-7.46 1.42,-2.26 2.45,-4.07 3.09,-5.43 0.67,-1.36 0.97,-2.53 0.97,-3.51 0,-0.7 -0.22,-1.34 -0.69,-1.87 -0.45,-0.56 -1.03,-1.09 -1.7,-1.59 -0.7,-0.53 -1.39,-1.06 -2.12,-1.64 -0.75,-0.56 -1.37,-1.25 -1.84,-2.09 -1.36,2.2 -2.76,4.4 -4.18,6.63 -1.26,1.89 -2.59,4.04 -4.07,6.41 -1.48,2.37 -2.9,4.68 -4.27,6.97l-2.92 -2.29 17.47 -27.33 2.37 1.23c-0.11,0.3 -0.28,0.83 -0.53,1.53 -0.25,0.72 -0.36,1.48 -0.36,2.28 0,0.61 0.08,1.2 0.28,1.75 0.2,0.59 0.58,1.12 1.17,1.62 2.2,1.95 3.9,3.46 5.15,4.52 1.25,1.06 2.17,1.89 2.73,2.54 0.58,0.61 0.92,1.14 1.06,1.56 0.14,0.39 0.22,0.92 0.22,1.59 0,0.64 -0.11,1.42 -0.33,2.37 -0.22,0.92 -0.58,2.04 -1.11,3.34 -0.5,1.31 -1.23,2.84 -2.12,4.6 -0.89,1.78 -2.03,3.84 -3.37,6.16 -0.84,1.42 -1.64,2.87 -2.42,4.29 -0.78,1.45 -1.51,2.9 -2.12,4.38 -0.61,1.48 -1.14,2.95 -1.51,4.4 -0.39,1.48 -0.58,2.9 -0.58,4.26 0,1.03 0.17,1.87 0.45,2.48 0.31,0.61 0.7,1.12 1.2,1.42 0.47,0.33 1,0.56 1.59,0.67 0.56,0.11 1.14,0.17 1.67,0.17 1.78,0 3.56,-0.53 5.35,-1.62 1.75,-1.06 3.51,-2.42 5.21,-4.13 1.73,-1.67 3.37,-3.59 4.98,-5.74 1.62,-2.15 3.15,-4.34 4.63,-6.57 1.45,-2.23 2.81,-4.38 4.07,-6.41 1.25,-2.03 2.37,-3.82 3.34,-5.35l3.04 2.29z"/>
    <path class="fil1" d="M1147.97 242.84c0,1.09 -0.25,2.23 -0.81,3.4 -0.53,1.17 -1.22,2.23 -2.09,3.15 -0.83,0.92 -1.75,1.67 -2.81,2.29 -1.03,0.58 -2.07,0.89 -3.09,0.89 -0.92,0 -1.65,-0.33 -2.12,-1.03 -0.5,-0.67 -0.72,-1.51 -0.72,-2.48 0,-0.86 0.14,-1.89 0.47,-3.09 0.33,-1.2 0.81,-2.34 1.48,-3.4 0.64,-1.06 1.45,-1.98 2.37,-2.73 0.92,-0.75 1.98,-1.14 3.18,-1.14 1.14,0 2.12,0.45 2.92,1.31 0.84,0.86 1.23,1.81 1.23,2.84zm-15.24 18.14c-0.72,1.42 -1.7,3.26 -2.98,5.57 -1.28,2.32 -2.67,4.85 -4.12,7.61 -1.48,2.76 -2.98,5.63 -4.49,8.64 -1.53,3.04 -2.9,5.96 -4.12,8.83 -1.23,2.84 -2.23,5.54 -2.98,8.02 -0.78,2.51 -1.14,4.63 -1.14,6.38 0,1.59 0.3,2.65 0.97,3.23 0.64,0.56 1.56,0.83 2.76,0.83 2.25,0 4.43,-0.72 6.55,-2.2 2.12,-1.45 4.24,-3.37 6.32,-5.74 2.09,-2.37 4.15,-5.07 6.16,-8.14 2.01,-3.03 4.04,-6.1 6.05,-9.22l2.93 2.29c-1.56,2.84 -3.34,5.85 -5.35,9.06 -1.98,3.23 -4.18,6.21 -6.63,8.94 -2.45,2.76 -5.15,5.01 -8.08,6.83 -2.95,1.78 -6.16,2.7 -9.64,2.7 -3.26,0 -5.77,-1 -7.52,-2.95 -1.73,-1.95 -2.59,-4.49 -2.59,-7.58 0,-3.65 0.84,-7.47 2.51,-11.45 1.7,-3.96 3.82,-7.88 6.35,-11.78 2.51,-3.9 5.27,-7.63 8.22,-11.23 2.98,-3.59 5.71,-6.85 8.22,-9.78l2.62 1.14zm73.86 0c-0.7,1.42 -1.7,3.26 -2.98,5.54 -1.28,2.28 -2.65,4.79 -4.12,7.55 -1.48,2.76 -2.95,5.63 -4.43,8.61 -1.5,2.98 -2.87,5.91 -4.1,8.78 -1.22,2.87 -2.23,5.54 -3.01,8.08 -0.81,2.53 -1.2,4.65 -1.2,6.41 0,1.73 0.33,2.87 1.03,3.4 0.67,0.5 1.56,0.75 2.65,0.75 1.59,0 3.2,-0.44 4.85,-1.36 1.67,-0.95 3.31,-2.14 4.9,-3.59 1.62,-1.48 3.18,-3.15 4.71,-4.99 1.51,-1.84 2.95,-3.71 4.26,-5.6 1.34,-1.87 2.56,-3.68 3.65,-5.38 1.09,-1.73 2.01,-3.18 2.76,-4.38l2.95 2.29c-0.92,1.76 -2.01,3.62 -3.26,5.63 -1.25,2.04 -2.65,4.04 -4.12,6.1 -1.51,2.03 -3.12,4.01 -4.87,5.9 -1.73,1.89 -3.57,3.6 -5.49,5.07 -1.95,1.45 -3.96,2.62 -6.1,3.51 -2.12,0.86 -4.29,1.31 -6.52,1.31 -3.26,0 -5.66,-1 -7.19,-2.95 -1.53,-1.95 -2.29,-4.49 -2.29,-7.58 0,-0.22 0.03,-0.7 0.06,-1.45 0.03,-0.73 0.08,-1.31 0.19,-1.76 -2.73,3.43 -5.32,6.27 -7.8,8.5 -2.48,2.23 -4.88,4.01 -7.19,5.29 -2.31,1.31 -4.54,2.23 -6.69,2.76 -2.15,0.5 -4.21,0.75 -6.16,0.75 -2.06,0 -4.01,-0.33 -5.85,-1 -1.81,-0.69 -3.43,-1.67 -4.79,-2.98 -1.39,-1.31 -2.48,-2.93 -3.29,-4.82 -0.78,-1.89 -1.17,-4.09 -1.17,-6.6 0,-3.12 0.7,-6.66 2.09,-10.67 1.37,-3.98 3.85,-8.3 7.38,-12.93 2.98,-3.99 6.1,-7.33 9.33,-10.03 3.23,-2.73 6.44,-4.93 9.56,-6.57 3.12,-1.67 6.1,-2.84 8.94,-3.57 2.81,-0.69 5.35,-1.06 7.58,-1.06 5.01,0 8.81,0.84 11.37,2.51 2.53,1.64 4.1,4.21 4.62,7.63 1.11,-1.36 2.26,-2.73 3.45,-4.09 1.17,-1.36 2.4,-2.73 3.65,-4.15l2.62 1.14zm-25.05 31.01c0.7,-1.14 1.56,-2.59 2.59,-4.38 1.06,-1.75 2.15,-3.59 3.29,-5.46 1.14,-1.87 2.26,-3.68 3.34,-5.43 1.09,-1.73 2.03,-3.21 2.84,-4.4 0,-0.5 -0.06,-1.28 -0.2,-2.37 -0.14,-1.08 -0.5,-2.2 -1.12,-3.31 -0.58,-1.11 -1.53,-2.06 -2.84,-2.9 -1.31,-0.81 -3.12,-1.22 -5.46,-1.22 -1.7,0 -3.59,0.28 -5.68,0.78 -2.09,0.53 -4.32,1.39 -6.69,2.62 -2.37,1.23 -4.82,2.84 -7.3,4.85 -2.51,2.03 -5.02,4.51 -7.52,7.52 -3.76,4.51 -6.66,9.05 -8.69,13.6 -2.03,4.54 -3.06,8.64 -3.06,12.29 0,3.09 0.7,5.49 2.12,7.16 1.42,1.7 3.43,2.53 6.05,2.53 3.01,0 5.79,-0.67 8.41,-2.01 2.62,-1.31 5.04,-3.04 7.35,-5.18 2.29,-2.12 4.46,-4.46 6.52,-7.05 2.06,-2.59 4.07,-5.13 6.04,-7.63zm93.11 -95.51c1.89,0 3.51,0.48 4.8,1.39 1.25,0.92 1.89,2.62 1.89,5.07 0,1.67 -0.33,3.71 -1,6.04 -0.7,2.34 -1.62,4.88 -2.79,7.61 -1.17,2.76 -2.53,5.66 -4.12,8.66 -1.56,3.01 -3.29,6.02 -5.1,9.03 -1.81,2.98 -3.73,5.91 -5.71,8.72 -1.98,2.84 -3.96,5.46 -5.9,7.83 -3.93,4.85 -7.33,8.94 -10.17,12.26 -2.87,3.31 -5.32,6.13 -7.38,8.44 -2.09,2.31 -3.82,4.21 -5.24,5.63 -1.42,1.45 -2.65,2.67 -3.76,3.73 -1.09,1.03 -2.09,1.95 -3.01,2.81 -0.92,0.83 -1.87,1.78 -2.84,2.81 -0.44,2.06 -0.64,4.04 -0.61,5.9 0,1.9 0.03,3.62 0.03,5.18 0,4.74 0.75,8.24 2.29,10.53 1.53,2.28 3.68,3.43 6.44,3.43 1.87,0 3.73,-0.48 5.6,-1.42 1.89,-0.95 3.73,-2.2 5.6,-3.7 1.84,-1.53 3.65,-3.26 5.38,-5.18 1.75,-1.95 3.4,-3.9 4.93,-5.88 1.56,-2.01 2.95,-3.93 4.21,-5.77 1.25,-1.84 2.34,-3.45 3.29,-4.82l3.01 2.29c-0.17,0.22 -0.7,1.09 -1.59,2.59 -0.89,1.48 -2.09,3.29 -3.57,5.41 -1.45,2.15 -3.2,4.4 -5.21,6.82 -2.01,2.42 -4.21,4.65 -6.55,6.74 -2.34,2.06 -4.79,3.76 -7.38,5.13 -2.56,1.37 -5.21,2.06 -7.86,2.06 -2.23,0 -4.37,-0.44 -6.41,-1.28 -2.06,-0.83 -3.84,-2.17 -5.4,-3.98 -1.53,-1.84 -2.78,-4.15 -3.76,-6.99 -0.95,-2.84 -1.42,-6.24 -1.42,-10.2 0,-4.96 0.58,-10.14 1.76,-15.54 1.17,-5.43 2.76,-10.87 4.79,-16.33 2.01,-5.49 4.37,-10.87 7.1,-16.21 2.7,-5.32 5.6,-10.39 8.69,-15.21 3.06,-4.82 6.27,-9.28 9.61,-13.4 3.34,-4.1 6.66,-7.66 9.89,-10.64 3.23,-2.98 6.35,-5.32 9.33,-7.02 3.01,-1.67 5.71,-2.54 8.16,-2.54zm-48.89 82.77c4.62,-4.79 9.11,-9.64 13.43,-14.57 4.32,-4.93 8.39,-9.81 12.17,-14.6 3.76,-4.82 7.24,-9.5 10.39,-14.04 3.15,-4.54 5.85,-8.83 8.08,-12.87 2.23,-4.01 3.99,-7.69 5.24,-11 1.25,-3.32 1.87,-6.19 1.87,-8.58 0,-0.42 -0.23,-1 -0.64,-1.76 -0.45,-0.73 -0.95,-1.09 -1.56,-1.09 -1.67,0 -3.93,1.11 -6.69,3.34 -2.78,2.23 -5.79,5.27 -9.03,9.09 -3.23,3.84 -6.58,8.33 -10.03,13.43 -3.46,5.13 -6.72,10.58 -9.75,16.41 -3.06,5.82 -5.77,11.84 -8.16,18.06 -2.4,6.19 -4.18,12.26 -5.32,18.19z"/>
   </g>
  </g>
 </g>
</svg>
