<?xml version="1.0" encoding="UTF-8"?>
<!DOCTYPE svg PUBLIC "-//W3C//DTD SVG 1.1//EN" "http://www.w3.org/Graphics/SVG/1.1/DTD/svg11.dtd">
<!-- Creator: CorelDRAW 2019 (64 Bit) -->
<svg xmlns="http://www.w3.org/2000/svg" xml:space="preserve" width="59.0755mm" height="20.2732mm" version="1.1" style="shape-rendering:geometricPrecision; text-rendering:geometricPrecision; image-rendering:optimizeQuality; fill-rule:evenodd; clip-rule:evenodd"
viewBox="0 0 1387.32 476.09"
 xmlns:xlink="http://www.w3.org/1999/xlink"
 xmlns:xodm="http://www.corel.com/coreldraw/odm/2003">
 <defs>
  <style type="text/css">
   <![CDATA[
    .fil0 {fill:black}
    .fil1 {fill:black;fill-rule:nonzero}
   ]]>
  </style>
 </defs>
 <g id="Camada_x0020_1">
  <metadata id="CorelCorpID_0Corel-Layer"/>
  <path class="fil0" d="M220.13 131.43c4.05,-13.26 56.93,-96.97 65.51,-111.45 21.03,3.34 44.84,6.91 56.38,19.28 17.56,18.84 4.38,39.51 -7.89,52.62 -35.26,37.69 -69.56,33.98 -114,39.55zm69.81 -120.19c3.31,-23.42 -7.75,-3.1 -15.27,-2.29 -5.41,0.58 -27.13,-2.31 -34.97,-2.61 -24.88,-0.94 -46.53,-0.1 -70.99,2.31 -45.56,4.49 -78,11.92 -112.06,39.56 -21.75,17.65 -38.96,49.48 -27.13,79.17 11.31,28.4 47.53,38.68 76.99,22.41 21.73,-11.99 33.3,-38.7 27.25,-45.24 -5.4,2.76 -0.13,7.47 -10.77,20.6 -5.53,6.82 -7.91,10.3 -15.24,15.29 -13.09,8.91 -34.33,11.25 -48.49,1.81 -32.86,-21.9 -10.04,-65.61 9.46,-81.94 24.96,-20.9 45.31,-29.72 86.2,-37.13 38.8,-7.03 73.62,-8.12 113.8,-5.68 -0.98,2.23 -6.51,8.43 -8.6,10.97l-23.49 34.09c-21.88,34.68 -46.24,84.26 -69.63,121.9 -5.46,8.78 -25.53,38.49 -31.48,44.88 -18.51,19.85 -40.93,41.26 -72.22,43.16 -12.44,0.76 -23.99,0.17 -31.72,-7.39 -6.22,-6.08 -11.93,-16.11 -6.82,-27.89 12.98,-29.97 45.25,-10.96 53.27,-13.7 -3.95,-9.63 -41.19,-10.61 -52.68,-6.85 -13.68,4.48 -29.28,18 -24.43,36.86 7.93,30.81 57.65,35.48 91.19,25.17 41.33,-12.71 65.16,-42.08 85.93,-72.62 16.74,-24.62 22.07,-40.88 34.08,-60.42 3.01,8.99 4.89,21.8 7.49,31.31 2.83,10.38 5.67,19.49 9.02,29.74 10.41,31.92 35.48,82.82 77.69,76.98 20.42,-2.82 33.23,-20.69 41.45,-34.79 9.77,3.37 22.61,9.66 32.47,14.14 27.81,12.65 70.67,30.38 57.79,77.24 -18.89,68.73 -117.25,99.49 -187.6,80.77 -57.89,-15.4 -75.61,-62.55 -54.89,-115.28 15.14,-38.53 36.31,-44.09 39.61,-53.89 -31.33,-0.25 -93.06,80.01 -54.12,136.34 29.46,42.62 96.35,56.07 163.04,41.47 46.33,-10.15 106.63,-48.09 121,-95.23 14.6,-47.92 -36.52,-72.64 -70.04,-87.36 -11,-4.83 -25.96,-11.04 -35.76,-17.19 1.33,-7.56 9.75,-19.24 12.07,-28.71 -9.35,0.32 -10.4,15.2 -17.89,23.87l-1.16 1.1c-45.87,-25.36 -33.19,-71.97 40.76,-89.46 34.08,-8.06 74.75,-2.66 83.61,26.38 1.77,5.81 1.5,13.04 -1.08,18.55 -9.28,19.76 -26.21,6.19 -26.99,20.08 18.58,0.01 48.65,-18.06 40.3,-44.98 -11.52,-37.13 -77.64,-35.59 -112.21,-28.02 -78,17.08 -107.74,83.66 -36.09,116.05 -4.02,9.07 -22.72,28.32 -40.32,24.21 -13.91,-3.25 -25.06,-21.22 -32.1,-32.49 -17.09,-27.39 -26.81,-59.44 -34.08,-95.4 11.28,-2.5 26.89,-2.53 39.57,-5.08 35.11,-7.08 66.27,-18.87 89.25,-43.52 19.95,-21.39 13.75,-45.57 -5.99,-59.89 -16.65,-12.08 -42.3,-18.27 -66.98,-21.35z"/>
  <g id="_2310549466672">
   <path class="fil1" d="M543.81 181.53c4.24,0 8.15,0.36 11.76,1.16 3.61,0.76 6.73,1.72 9.35,2.85 2.62,1.13 4.67,2.35 6.16,3.65 1.49,1.29 2.25,2.48 2.25,3.55 0,2.22 -0.1,5.14 -0.27,8.68 -0.16,3.58 -0.36,7.89 -0.63,12.92l-4.21 -0.13c0.03,-0.46 0.07,-0.89 0.07,-1.29 0.03,-0.43 0.03,-0.83 0.03,-1.29 -0.03,-2.25 -0.3,-4.38 -0.76,-6.39 -0.46,-2.02 -1.33,-3.95 -2.55,-5.8 -1.29,-1.82 -2.85,-3.48 -4.64,-4.9 -1.79,-1.43 -3.75,-2.62 -5.9,-3.58 -2.12,-0.96 -4.41,-1.72 -6.83,-2.22 -2.42,-0.5 -4.91,-0.76 -7.42,-0.76 -4.34,0 -8.29,0.7 -11.83,2.02 -3.55,1.36 -6.69,3.21 -9.48,5.6 -2.79,2.39 -5.2,5.17 -7.26,8.45 -2.05,3.25 -3.78,6.76 -5.1,10.6 -1.36,3.81 -2.35,7.82 -3.02,12.03 -0.66,4.21 -0.99,8.45 -0.99,12.76 0,5.1 0.43,9.87 1.26,14.38 0.83,4.51 2.05,8.65 3.58,12.43 1.56,3.78 3.45,7.19 5.63,10.17 2.22,3.02 4.67,5.57 7.42,7.66 2.72,2.09 5.7,3.68 8.88,4.77 3.18,1.13 6.53,1.66 10.07,1.66 2.45,0 4.97,-0.27 7.59,-0.8 2.62,-0.53 5.23,-1.36 7.95,-2.52 2.68,-1.16 5.37,-2.62 8.12,-4.37 2.72,-1.76 5.47,-3.88 8.18,-6.33 0.27,0.13 0.56,0.3 0.89,0.5 0.33,0.17 0.66,0.4 0.93,0.63 0.3,0.27 0.56,0.53 0.76,0.83 0.2,0.27 0.33,0.56 0.33,0.86 0,0.2 -0.13,0.46 -0.4,0.83 -3.18,3.48 -6.39,6.43 -9.61,8.78 -3.25,2.35 -6.5,4.28 -9.78,5.73 -3.25,1.46 -6.56,2.49 -9.87,3.12 -3.31,0.63 -6.63,0.96 -9.91,0.96 -4.38,0 -8.55,-0.6 -12.49,-1.82 -3.98,-1.23 -7.66,-2.95 -11.07,-5.24 -3.38,-2.25 -6.46,-5 -9.21,-8.22 -2.75,-3.21 -5.1,-6.83 -7.02,-10.84 -1.96,-4.01 -3.45,-8.39 -4.51,-13.09 -1.06,-4.71 -1.59,-9.68 -1.59,-14.91 0,-5.07 0.53,-10.14 1.56,-15.25 1,-5.1 2.52,-9.97 4.54,-14.61 2.02,-4.67 4.57,-9.01 7.62,-13.05 3.08,-4.08 6.63,-7.59 10.7,-10.57 4.08,-2.98 8.68,-5.34 13.78,-7.02 5.14,-1.72 10.77,-2.55 16.9,-2.55zm40.4 86.26c0,-3.28 0.33,-6.59 1.03,-9.97 0.66,-3.35 1.69,-6.63 3.02,-9.78 1.33,-3.15 2.95,-6.1 4.91,-8.88 1.95,-2.75 4.21,-5.17 6.79,-7.26 2.55,-2.05 5.4,-3.71 8.52,-4.9 3.15,-1.19 6.56,-1.79 10.27,-1.79 4.14,0 7.79,0.86 10.97,2.62 3.21,1.76 5.87,4.04 8.05,6.93 2.15,2.85 3.81,6.13 4.91,9.77 1.12,3.65 1.69,7.39 1.69,11.2 0,3.28 -0.33,6.59 -1.03,9.97 -0.66,3.35 -1.69,6.63 -3.02,9.78 -1.36,3.15 -3.02,6.1 -4.97,8.88 -1.95,2.75 -4.21,5.17 -6.76,7.26 -2.55,2.05 -5.4,3.71 -8.55,4.91 -3.15,1.19 -6.56,1.79 -10.24,1.79 -4.14,0 -7.82,-0.86 -11,-2.62 -3.18,-1.76 -5.86,-4.04 -8.02,-6.93 -2.12,-2.85 -3.78,-6.13 -4.87,-9.78 -1.13,-3.64 -1.69,-7.39 -1.69,-11.2zm11.6 -4.61c0,2.19 0.17,4.41 0.53,6.69 0.33,2.25 0.86,4.44 1.56,6.53 0.73,2.12 1.59,4.08 2.65,5.9 1.06,1.86 2.29,3.45 3.75,4.8 1.43,1.36 3.05,2.42 4.84,3.18 1.79,0.8 3.78,1.19 5.96,1.19 2.35,0 4.44,-0.53 6.23,-1.56 1.79,-1 3.35,-2.35 4.64,-4.04 1.32,-1.69 2.42,-3.61 3.28,-5.77 0.86,-2.19 1.52,-4.41 2.05,-6.73 0.53,-2.32 0.89,-4.61 1.09,-6.86 0.2,-2.28 0.3,-4.38 0.3,-6.26 0,-2.25 -0.16,-4.47 -0.5,-6.73 -0.33,-2.25 -0.86,-4.44 -1.59,-6.53 -0.7,-2.09 -1.59,-4.04 -2.62,-5.87 -1.06,-1.82 -2.32,-3.41 -3.74,-4.74 -1.46,-1.36 -3.08,-2.42 -4.87,-3.18 -1.79,-0.79 -3.78,-1.16 -5.93,-1.16 -2.35,0 -4.44,0.5 -6.23,1.49 -1.82,0.99 -3.35,2.35 -4.67,4.04 -1.32,1.66 -2.39,3.58 -3.25,5.77 -0.86,2.16 -1.56,4.41 -2.05,6.7 -0.53,2.29 -0.89,4.57 -1.09,6.86 -0.23,2.29 -0.33,4.38 -0.33,6.26zm68.6 -23.33c0,-1.33 -0.1,-2.42 -0.3,-3.35 -0.2,-0.89 -0.5,-1.62 -0.89,-2.15 -0.43,-0.53 -0.93,-0.89 -1.52,-1.13 -0.63,-0.23 -1.36,-0.36 -2.19,-0.36 -1.19,0 -2.58,0.17 -4.18,0.5 -1.62,0.33 -3.48,0.76 -5.53,1.32l-0.73 -3.51c2.29,-0.8 4.51,-1.53 6.63,-2.19 2.12,-0.66 4.04,-1.26 5.83,-1.72 1.79,-0.5 3.35,-0.86 4.71,-1.12 1.36,-0.27 2.42,-0.4 3.21,-0.4 1.89,0 3.35,0.56 4.37,1.69 1.06,1.09 1.59,3.02 1.59,5.73 0,0.33 -0.04,1.09 -0.1,2.25 -0.07,1.19 -0.13,2.68 -0.27,4.51 -0.1,1.82 -0.23,3.88 -0.4,6.23 -0.17,2.35 -0.36,4.84 -0.56,7.49 -0.23,2.68 -0.46,5.4 -0.7,8.25 -0.27,2.82 -0.56,5.63 -0.83,8.45l0.27 0.07c2.48,-8.35 5.1,-15.41 7.92,-21.14 2.82,-5.73 5.7,-10.41 8.58,-13.98 2.92,-3.58 5.83,-6.16 8.72,-7.75 2.88,-1.56 5.63,-2.35 8.25,-2.35 1.79,0 3.55,0.33 5.24,1 1.69,0.7 3.18,1.79 4.47,3.25 1.32,1.49 2.35,3.41 3.15,5.77 0.76,2.35 1.16,5.2 1.16,8.52 0,0.96 -0.07,2.28 -0.16,3.91 -0.1,1.62 -0.27,3.45 -0.4,5.47 -0.16,1.99 -0.36,4.14 -0.56,6.36 -0.23,2.25 -0.4,4.47 -0.56,6.63 -0.17,2.19 -0.3,4.24 -0.43,6.2 -0.1,1.96 -0.16,3.68 -0.16,5.14 0,2.52 0.1,4.57 0.33,6.16 0.2,1.59 0.56,2.82 1.03,3.75 0.5,0.93 1.13,1.56 1.96,1.89 0.79,0.36 1.79,0.53 2.95,0.53 1.69,0 3.45,-0.23 5.23,-0.7 1.82,-0.5 3.64,-1.13 5.5,-1.99l0.93 2.52c-1.16,0.96 -2.65,1.92 -4.44,2.88 -1.76,0.96 -3.64,1.86 -5.6,2.65 -1.96,0.83 -3.91,1.49 -5.83,1.99 -1.95,0.5 -3.68,0.73 -5.17,0.73 -1.72,0 -3.11,-0.46 -4.11,-1.39 -0.99,-0.93 -1.76,-2.22 -2.25,-3.84 -0.5,-1.63 -0.83,-3.51 -0.96,-5.67 -0.17,-2.19 -0.23,-4.51 -0.23,-6.99 0,-3.05 0.1,-6.16 0.33,-9.41 0.2,-3.21 0.43,-6.26 0.7,-9.18 0.27,-2.92 0.5,-5.57 0.7,-7.95 0.2,-2.35 0.33,-4.27 0.33,-5.7 0,-3.78 -0.73,-6.56 -2.16,-8.35 -1.42,-1.82 -3.31,-2.72 -5.67,-2.72 -1.89,0 -3.88,0.79 -5.93,2.39 -2.09,1.59 -4.14,3.78 -6.2,6.53 -2.05,2.78 -4.01,6.03 -5.93,9.81 -1.89,3.78 -3.58,7.85 -5.1,12.23 -1.52,4.37 -2.79,8.98 -3.78,13.75 -1.03,4.8 -1.66,9.58 -1.89,14.38l-10.17 1.26 -0.76 -0.03c0.27,-3.08 0.5,-6.43 0.73,-10.07 0.23,-3.61 0.43,-7.29 0.63,-11.04 0.2,-3.74 0.36,-7.42 0.5,-11.1 0.17,-3.68 0.3,-7.12 0.4,-10.31 0.13,-3.18 0.2,-6.03 0.23,-8.55 0.07,-2.55 0.1,-4.54 0.1,-6zm83.31 38.31c0.2,2.45 0.86,4.57 1.96,6.36 1.09,1.79 2.42,3.25 4.01,4.37 1.59,1.13 3.35,1.96 5.27,2.52 1.92,0.56 3.84,0.83 5.73,0.83 1.79,0 3.51,-0.23 5.17,-0.73 1.63,-0.5 3.08,-1.19 4.34,-2.09 1.26,-0.89 2.29,-2.02 3.05,-3.35 0.76,-1.33 1.13,-2.82 1.13,-4.47 0,-1.72 -0.4,-3.21 -1.19,-4.51 -0.83,-1.29 -1.89,-2.49 -3.25,-3.55 -1.36,-1.06 -2.95,-2.05 -4.74,-2.95 -1.79,-0.93 -3.68,-1.86 -5.6,-2.78 -1.72,-0.8 -3.45,-1.63 -5.17,-2.45 -1.76,-0.83 -3.41,-1.72 -5.04,-2.68 -1.62,-0.96 -3.15,-2.02 -4.54,-3.15 -1.43,-1.16 -2.65,-2.39 -3.68,-3.78 -1.06,-1.36 -1.89,-2.92 -2.48,-4.61 -0.6,-1.69 -0.89,-3.58 -0.89,-5.67 0,-2.22 0.4,-4.28 1.16,-6.16 0.76,-1.86 1.82,-3.55 3.18,-5.07 1.32,-1.49 2.88,-2.82 4.67,-3.94 1.76,-1.13 3.65,-2.09 5.63,-2.85 2.02,-0.76 4.08,-1.32 6.2,-1.69 2.12,-0.36 4.18,-0.56 6.2,-0.56 2.59,0 5.04,0.3 7.36,0.86 2.28,0.56 4.34,1.39 6.06,2.45 1.72,1.09 3.11,2.42 4.11,3.98 1.03,1.56 1.52,3.28 1.52,5.24 0,0.73 -0.13,1.56 -0.36,2.42 -0.27,0.89 -0.7,1.69 -1.33,2.45 -0.6,0.76 -1.43,1.39 -2.42,1.92 -0.99,0.53 -2.22,0.8 -3.68,0.83 -1.36,0 -2.79,-0.2 -4.28,-0.63l-0.16 -0.5c0.46,-1.03 0.79,-1.99 0.99,-2.85 0.17,-0.89 0.27,-1.69 0.27,-2.42 -0.03,-1.49 -0.4,-2.75 -1.13,-3.78 -0.73,-1.03 -1.66,-1.86 -2.75,-2.48 -1.09,-0.66 -2.32,-1.13 -3.64,-1.43 -1.36,-0.3 -2.68,-0.43 -3.98,-0.43 -2.28,0 -4.34,0.3 -6.16,0.93 -1.79,0.6 -3.35,1.42 -4.57,2.45 -1.26,1.03 -2.22,2.15 -2.88,3.45 -0.66,1.33 -1,2.65 -1,4.04 0,1.79 0.46,3.38 1.43,4.77 0.93,1.43 2.19,2.72 3.75,3.91 1.52,1.16 3.31,2.29 5.34,3.31 2.02,1.03 4.14,2.05 6.36,3.12 2.45,1.16 4.9,2.35 7.32,3.61 2.42,1.23 4.57,2.65 6.49,4.24 1.92,1.59 3.45,3.41 4.64,5.47 1.19,2.05 1.76,4.47 1.76,7.26 0,3.31 -0.73,6.3 -2.19,8.88 -1.49,2.59 -3.45,4.77 -5.9,6.56 -2.45,1.76 -5.3,3.12 -8.48,4.04 -3.18,0.93 -6.5,1.39 -9.91,1.39 -1.72,0 -3.51,-0.13 -5.34,-0.4 -1.82,-0.27 -3.58,-0.66 -5.3,-1.16 -1.72,-0.53 -3.35,-1.16 -4.87,-1.92 -1.56,-0.76 -2.88,-1.62 -4.04,-2.62 -1.16,-0.99 -2.05,-2.09 -2.72,-3.31 -0.66,-1.19 -0.99,-2.55 -0.99,-4.01 0,-1.26 0.27,-2.32 0.8,-3.18 0.53,-0.89 1.23,-1.59 2.12,-2.15 0.86,-0.53 1.86,-0.96 2.91,-1.23 1.09,-0.27 2.22,-0.43 3.35,-0.46l0.4 0.33zm70.42 -43.25c0,2.19 -0.1,4.54 -0.23,7.06 -0.13,2.52 -0.33,5.07 -0.53,7.65 -0.2,2.59 -0.43,5.17 -0.7,7.72 -0.23,2.59 -0.46,5.04 -0.66,7.32 -0.2,2.29 -0.4,4.41 -0.53,6.33 -0.13,1.92 -0.23,3.55 -0.23,4.84 0,3.84 0.73,6.66 2.19,8.45 1.46,1.76 3.41,2.65 5.83,2.65 2.75,0 5.57,-1.46 8.45,-4.44 2.88,-2.95 5.63,-7.29 8.25,-12.99 2.62,-5.67 4.84,-12.09 6.7,-19.19 1.86,-7.09 3.02,-14.75 3.55,-23l10.3 -1.26 0.76 0.07c-0.3,3.08 -0.56,6.33 -0.8,9.77 -0.27,3.45 -0.46,6.89 -0.66,10.34 -0.2,3.45 -0.33,6.83 -0.43,10.11 -0.1,3.31 -0.17,6.36 -0.17,9.15 0,5.27 0.33,9.58 0.93,12.92 0.63,3.35 1.43,6 2.39,7.92 0.96,1.92 2.09,3.25 3.31,3.98 1.26,0.73 2.52,1.09 3.78,1.09 0.73,0 1.49,-0.1 2.22,-0.3 0.73,-0.2 1.39,-0.43 2.05,-0.7 0.63,-0.27 1.23,-0.56 1.76,-0.89 0.53,-0.33 0.99,-0.63 1.39,-0.86l1.59 2.22c-0.93,0.96 -1.99,1.89 -3.18,2.75 -1.19,0.86 -2.48,1.59 -3.81,2.22 -1.33,0.63 -2.72,1.12 -4.18,1.49 -1.43,0.36 -2.92,0.53 -4.41,0.53 -1.86,0 -3.68,-0.36 -5.47,-1.12 -1.76,-0.73 -3.32,-1.99 -4.67,-3.75 -1.36,-1.72 -2.45,-4.08 -3.28,-6.99 -0.83,-2.88 -1.23,-6.53 -1.23,-10.87 0,-1.39 0.03,-2.78 0.1,-4.21 0.07,-1.43 0.17,-2.92 0.27,-4.51 0.13,-1.59 0.33,-3.31 0.53,-5.14 0.2,-1.82 0.46,-3.84 0.76,-6.03l-0.56 -0.1c-2.19,8.12 -4.57,14.95 -7.16,20.45 -2.55,5.5 -5.2,9.91 -7.89,13.29 -2.72,3.35 -5.43,5.77 -8.15,7.19 -2.72,1.46 -5.3,2.19 -7.75,2.19 -1.86,0 -3.61,-0.33 -5.34,-0.96 -1.69,-0.63 -3.18,-1.66 -4.51,-3.11 -1.33,-1.43 -2.39,-3.35 -3.18,-5.7 -0.8,-2.35 -1.19,-5.27 -1.19,-8.71 0,-2.29 0.13,-4.91 0.36,-7.92 0.27,-2.98 0.56,-6.16 0.86,-9.54 0.3,-3.38 0.6,-6.89 0.86,-10.47 0.27,-3.61 0.36,-7.19 0.36,-10.74 0,-1.39 -0.03,-2.65 -0.13,-3.68 -0.1,-1.03 -0.3,-1.89 -0.63,-2.55 -0.33,-0.7 -0.8,-1.19 -1.43,-1.52 -0.63,-0.33 -1.49,-0.5 -2.62,-0.5 -1.09,0 -2.52,0.17 -4.27,0.5 -1.76,0.33 -3.61,0.76 -5.57,1.32l-0.73 -3.51c2.65,-0.93 5.14,-1.76 7.39,-2.45 2.29,-0.7 4.34,-1.26 6.13,-1.72 1.79,-0.43 3.31,-0.8 4.57,-1.03 1.23,-0.2 2.15,-0.33 2.72,-0.33 1.19,0 2.12,0.23 2.88,0.63 0.73,0.43 1.32,1.03 1.79,1.86 0.46,0.8 0.76,1.79 0.96,2.92 0.17,1.13 0.27,2.42 0.27,3.88zm86.43 -69.52c-0.66,5.5 -1.29,11.17 -1.92,16.93 -0.63,5.77 -1.23,11.6 -1.82,17.53 -0.56,5.9 -1.09,11.83 -1.56,17.79 -0.5,5.93 -0.93,11.8 -1.26,17.6 -0.37,5.77 -0.63,11.43 -0.83,17 -0.2,5.57 -0.3,10.9 -0.3,16.01 0,3.21 0.03,5.96 0.13,8.25 0.07,2.32 0.2,4.24 0.37,5.83 0.2,1.59 0.43,2.88 0.73,3.84 0.33,0.96 0.7,1.72 1.16,2.22 0.43,0.53 0.99,0.86 1.59,1.06 0.63,0.17 1.36,0.27 2.19,0.27 1.56,0 3.21,-0.23 5.04,-0.7 1.79,-0.5 3.61,-1.13 5.43,-1.99l0.93 2.52c-1.16,0.96 -2.62,1.92 -4.38,2.88 -1.76,0.96 -3.61,1.86 -5.57,2.65 -1.95,0.83 -3.84,1.49 -5.7,1.99 -1.86,0.5 -3.48,0.73 -4.84,0.73 -1.76,0 -3.11,-0.43 -4.14,-1.32 -1.03,-0.89 -1.79,-2.32 -2.32,-4.34 -0.53,-1.99 -0.89,-4.61 -1.03,-7.85 -0.17,-3.21 -0.23,-7.12 -0.23,-11.77 0,-1.69 0.07,-4.07 0.17,-7.19 0.1,-3.11 0.23,-6.76 0.4,-10.9 0.2,-4.14 0.4,-8.68 0.6,-13.59 0.23,-4.94 0.5,-10.01 0.73,-15.28 0.26,-5.27 0.53,-10.57 0.83,-15.91 0.3,-5.37 0.6,-10.54 0.89,-15.54 0.27,-5 0.56,-9.71 0.83,-14.15 0.23,-4.44 0.5,-8.35 0.73,-11.77 0.03,-0.76 0.23,-1.42 0.66,-1.99 0.43,-0.6 0.96,-1.03 1.62,-1.36 0.66,-0.36 1.43,-0.6 2.25,-0.76 0.79,-0.17 1.66,-0.27 2.48,-0.27 1.96,0 3.98,0.53 6.13,1.56zm39.8 25.35c-1.36,6.16 -2.48,12.49 -3.41,19.05 -0.93,6.56 -1.72,13.02 -2.35,19.39 1.52,0.07 2.98,0.13 4.44,0.16 1.42,0.04 2.78,0.04 4.01,0.07 1.26,0.03 2.39,0.07 3.41,0.07 1.03,0 1.86,0 2.55,0 2.95,0 5.34,-0.17 7.22,-0.53 0.17,0.53 0.3,1.06 0.4,1.49 0.1,0.46 0.13,0.89 0.13,1.26 0,1.43 -0.6,2.35 -1.76,2.79 -1.19,0.43 -2.88,0.63 -5.14,0.63 -2.12,0 -4.51,-0.13 -7.16,-0.4 -2.62,-0.26 -5.54,-0.5 -8.65,-0.73 -0.36,3.48 -0.66,6.83 -0.89,10.14 -0.27,3.28 -0.46,6.36 -0.6,9.28 -0.13,2.92 -0.27,5.63 -0.33,8.12 -0.07,2.49 -0.07,4.64 -0.07,6.5 0,3.48 0.16,6.56 0.53,9.28 0.33,2.72 0.96,5 1.89,6.93 0.89,1.89 2.15,3.31 3.74,4.34 1.56,0.99 3.58,1.49 6,1.49 1.76,0 3.71,-0.3 5.87,-0.93 2.15,-0.6 4.61,-1.59 7.36,-2.95 0.86,0.86 1.36,1.92 1.49,3.21 -2.02,1.32 -4.04,2.52 -6.07,3.61 -2.05,1.06 -4.04,1.99 -6.03,2.78 -1.95,0.76 -3.88,1.36 -5.73,1.79 -1.82,0.43 -3.58,0.63 -5.24,0.63 -2.15,0 -4.14,-0.4 -5.93,-1.19 -1.79,-0.79 -3.35,-2.19 -4.67,-4.21 -1.29,-2.02 -2.32,-4.74 -3.05,-8.18 -0.73,-3.45 -1.09,-7.75 -1.09,-13.02 0,-2.92 0.03,-5.96 0.13,-9.08 0.1,-3.15 0.23,-6.3 0.4,-9.51 0.16,-3.18 0.36,-6.4 0.63,-9.61 0.27,-3.18 0.56,-6.36 0.86,-9.45 -2.55,0.03 -4.91,0.13 -7.09,0.3 -2.19,0.2 -4.04,0.46 -5.6,0.86 -0.1,-0.2 -0.16,-0.43 -0.16,-0.7 0,-0.66 0.33,-1.29 0.99,-1.92 0.66,-0.6 1.59,-1.13 2.78,-1.62 1.16,-0.46 2.59,-0.86 4.24,-1.19 1.66,-0.33 3.45,-0.56 5.44,-0.7 0.73,-6.76 1.52,-13.16 2.39,-19.15 0.83,-6.03 1.69,-11.4 2.52,-16.14 0.17,-0.83 0.46,-1.52 0.89,-2.09 0.43,-0.53 0.96,-0.96 1.52,-1.29 0.6,-0.33 1.23,-0.56 1.89,-0.7 0.7,-0.13 1.36,-0.2 1.99,-0.2 1.09,0 2.05,0.13 2.92,0.37 0.83,0.23 1.66,0.53 2.39,0.96zm21.74 77.05c0,-3.28 0.33,-6.59 1.03,-9.97 0.66,-3.35 1.69,-6.63 3.02,-9.78 1.33,-3.15 2.95,-6.1 4.91,-8.88 1.95,-2.75 4.21,-5.17 6.79,-7.26 2.55,-2.05 5.4,-3.71 8.52,-4.9 3.15,-1.19 6.56,-1.79 10.27,-1.79 4.14,0 7.79,0.86 10.97,2.62 3.21,1.76 5.87,4.04 8.05,6.93 2.15,2.85 3.81,6.13 4.91,9.77 1.12,3.65 1.69,7.39 1.69,11.2 0,3.28 -0.33,6.59 -1.03,9.97 -0.66,3.35 -1.69,6.63 -3.02,9.78 -1.36,3.15 -3.02,6.1 -4.97,8.88 -1.95,2.75 -4.21,5.17 -6.76,7.26 -2.55,2.05 -5.4,3.71 -8.55,4.91 -3.15,1.19 -6.56,1.79 -10.24,1.79 -4.14,0 -7.82,-0.86 -11,-2.62 -3.18,-1.76 -5.86,-4.04 -8.02,-6.93 -2.12,-2.85 -3.78,-6.13 -4.87,-9.78 -1.13,-3.64 -1.69,-7.39 -1.69,-11.2zm11.6 -4.61c0,2.19 0.17,4.41 0.53,6.69 0.33,2.25 0.86,4.44 1.56,6.53 0.73,2.12 1.59,4.08 2.65,5.9 1.06,1.86 2.29,3.45 3.75,4.8 1.43,1.36 3.05,2.42 4.84,3.18 1.79,0.8 3.78,1.19 5.96,1.19 2.35,0 4.44,-0.53 6.23,-1.56 1.79,-1 3.35,-2.35 4.64,-4.04 1.32,-1.69 2.42,-3.61 3.28,-5.77 0.86,-2.19 1.52,-4.41 2.05,-6.73 0.53,-2.32 0.89,-4.61 1.09,-6.86 0.2,-2.28 0.3,-4.38 0.3,-6.26 0,-2.25 -0.16,-4.47 -0.5,-6.73 -0.33,-2.25 -0.86,-4.44 -1.59,-6.53 -0.7,-2.09 -1.59,-4.04 -2.62,-5.87 -1.06,-1.82 -2.32,-3.41 -3.74,-4.74 -1.46,-1.36 -3.08,-2.42 -4.87,-3.18 -1.79,-0.79 -3.78,-1.16 -5.93,-1.16 -2.35,0 -4.44,0.5 -6.23,1.49 -1.82,0.99 -3.35,2.35 -4.67,4.04 -1.32,1.66 -2.39,3.58 -3.25,5.77 -0.86,2.16 -1.56,4.41 -2.05,6.7 -0.53,2.29 -0.89,4.57 -1.09,6.86 -0.23,2.29 -0.33,4.38 -0.33,6.26zm66.78 33.77l-0.76 -0.03c0.27,-3.08 0.5,-6.43 0.73,-10.07 0.23,-3.61 0.43,-7.29 0.63,-11.04 0.2,-3.74 0.36,-7.42 0.5,-11.1 0.17,-3.68 0.3,-7.12 0.4,-10.31 0.13,-3.18 0.2,-6.03 0.23,-8.55 0.07,-2.55 0.1,-4.54 0.1,-6 0,-1.19 -0.07,-2.22 -0.17,-3.08 -0.1,-0.89 -0.3,-1.62 -0.66,-2.19 -0.33,-0.6 -0.83,-1.03 -1.46,-1.29 -0.66,-0.27 -1.52,-0.43 -2.62,-0.43 -0.56,0 -1.13,0.03 -1.72,0.1 -0.56,0.07 -1.23,0.16 -1.92,0.3 -0.73,0.13 -1.52,0.3 -2.42,0.53 -0.89,0.2 -1.92,0.43 -3.08,0.73l-0.73 -3.48c5.37,-1.95 9.74,-3.31 13.06,-4.11 3.35,-0.79 5.6,-1.19 6.76,-1.19 2.12,0 3.68,0.63 4.57,1.89 0.93,1.23 1.39,3.08 1.39,5.53 0,0.23 -0.04,0.89 -0.1,1.99 -0.07,1.13 -0.13,2.55 -0.27,4.31 -0.1,1.76 -0.23,3.81 -0.4,6.13 -0.17,2.35 -0.36,4.84 -0.56,7.52 -0.23,2.65 -0.46,5.43 -0.7,8.35 -0.27,2.88 -0.56,5.77 -0.83,8.65l0.46 0.03c1.56,-6.33 3.31,-12.23 5.27,-17.73 1.96,-5.47 4.18,-10.24 6.59,-14.28 2.45,-4.04 5.14,-7.22 8.09,-9.54 2.91,-2.32 6.13,-3.48 9.61,-3.48 1.26,0 2.39,0.2 3.45,0.6 1.09,0.36 1.99,0.93 2.79,1.63 0.76,0.7 1.39,1.52 1.86,2.45 0.43,0.96 0.66,2.02 0.66,3.15 0,1.46 -0.3,2.85 -0.93,4.21 -0.66,1.32 -1.66,2.52 -3.02,3.54l-0.36 0c-1.36,-1.12 -2.65,-1.95 -3.88,-2.45 -1.19,-0.5 -2.49,-0.73 -3.84,-0.73 -1.46,0 -2.88,0.27 -4.24,0.83 -1.36,0.53 -2.59,1.32 -3.71,2.35 -1.86,1.69 -3.58,3.91 -5.17,6.7 -1.59,2.75 -3.02,5.83 -4.34,9.18 -1.29,3.38 -2.48,6.93 -3.55,10.6 -1.03,3.71 -1.95,7.32 -2.72,10.84 -0.76,3.51 -1.36,6.83 -1.82,9.91 -0.5,3.08 -0.83,5.67 -0.99,7.79l-10.17 1.26z"/>
   <path class="fil1" d="M1110.71 205.46c-1.13,0 -2.15,-0.23 -3.02,-0.7 -0.86,-0.5 -1.63,-1.09 -2.22,-1.86 -0.63,-0.76 -1.09,-1.63 -1.42,-2.62 -0.33,-0.99 -0.46,-2.02 -0.46,-3.05 0,-1.46 0.23,-2.75 0.73,-3.84 0.46,-1.13 1.09,-2.05 1.89,-2.82 0.76,-0.76 1.62,-1.32 2.55,-1.69 0.96,-0.4 1.86,-0.56 2.79,-0.56 1.09,0 2.09,0.2 2.95,0.6 0.86,0.4 1.62,0.96 2.25,1.69 0.63,0.7 1.13,1.53 1.46,2.45 0.33,0.89 0.53,1.89 0.53,2.98 0,1.13 -0.2,2.25 -0.6,3.35 -0.4,1.13 -0.93,2.15 -1.63,3.05 -0.7,0.89 -1.52,1.63 -2.52,2.19 -0.99,0.56 -2.09,0.83 -3.28,0.83zm4.21 21.94c-0.53,3.68 -0.99,7.39 -1.39,11.1 -0.4,3.68 -0.7,7.29 -0.96,10.74 -0.23,3.48 -0.4,6.76 -0.53,9.84 -0.1,3.08 -0.16,5.87 -0.16,8.35 0,3.38 0.07,6.26 0.13,8.68 0.1,2.42 0.27,4.44 0.5,6.1 0.23,1.66 0.5,2.95 0.86,3.94 0.33,0.99 0.76,1.76 1.26,2.29 0.5,0.53 1.09,0.89 1.76,1.03 0.66,0.17 1.39,0.27 2.25,0.27 1.56,0 3.21,-0.23 5,-0.7 1.79,-0.5 3.61,-1.13 5.47,-1.99l0.93 2.52c-1.16,0.96 -2.62,1.92 -4.41,2.88 -1.76,0.96 -3.61,1.86 -5.54,2.65 -1.95,0.83 -3.84,1.49 -5.73,1.99 -1.86,0.5 -3.45,0.73 -4.8,0.73 -0.93,0 -1.76,-0.07 -2.48,-0.2 -0.73,-0.16 -1.43,-0.53 -2.02,-1.09 -0.6,-0.6 -1.13,-1.46 -1.59,-2.59 -0.46,-1.13 -0.86,-2.65 -1.16,-4.61 -0.33,-1.92 -0.56,-4.38 -0.73,-7.29 -0.13,-2.92 -0.23,-6.43 -0.23,-10.57 0,-2.42 0.03,-5.17 0.07,-8.22 0.07,-3.08 0.13,-6.36 0.23,-9.87 0.1,-3.51 0.23,-7.19 0.4,-11.1 0.16,-3.91 0.36,-7.92 0.63,-12.06 0.07,-0.89 0.3,-1.66 0.73,-2.22 0.4,-0.56 0.93,-0.99 1.56,-1.29 0.6,-0.33 1.26,-0.53 1.95,-0.63 0.7,-0.13 1.33,-0.16 1.92,-0.16 2.15,0 4.21,0.5 6.1,1.49zm59.68 18.39c0,-2.55 -0.43,-4.77 -1.26,-6.66 -0.86,-1.86 -1.96,-3.41 -3.31,-4.61 -1.36,-1.19 -2.88,-2.09 -4.61,-2.65 -1.72,-0.6 -3.45,-0.89 -5.14,-0.89 -2.32,0 -4.24,0.27 -5.83,0.73 -1.59,0.5 -2.88,1.16 -3.88,1.99 -0.96,0.86 -1.69,1.86 -2.12,2.98 -0.43,1.16 -0.66,2.39 -0.66,3.75 0,1.52 0.3,3.11 0.86,4.67 0.56,1.56 1.39,3.08 2.48,4.57l-0.2 0.53c-1.82,0.93 -3.68,1.36 -5.57,1.36 -1.09,0 -2.12,-0.17 -3.08,-0.5 -0.96,-0.33 -1.79,-0.83 -2.49,-1.49 -0.7,-0.63 -1.23,-1.43 -1.66,-2.35 -0.4,-0.96 -0.6,-1.99 -0.6,-3.18 0,-1.89 0.46,-3.68 1.39,-5.37 0.93,-1.69 2.15,-3.21 3.64,-4.61 1.52,-1.39 3.31,-2.65 5.3,-3.74 2.02,-1.09 4.07,-2.02 6.23,-2.79 2.12,-0.76 4.28,-1.36 6.43,-1.76 2.15,-0.4 4.14,-0.6 6,-0.6 3.38,0 6.3,0.43 8.71,1.36 2.39,0.89 4.34,2.22 5.87,3.94 1.49,1.72 2.59,3.81 3.28,6.3 0.7,2.45 1.06,5.24 1.06,8.35 0,2.12 -0.1,4.47 -0.27,7.03 -0.17,2.55 -0.4,5.23 -0.6,8.02 -0.23,2.82 -0.43,5.7 -0.63,8.68 -0.17,2.98 -0.27,5.93 -0.27,8.88 0,4.67 0.86,8.15 2.62,10.5 1.72,2.35 3.98,3.51 6.79,3.51 2.52,0 5.3,-0.93 8.35,-2.75l1.43 2.09c-2.19,2.15 -4.54,3.81 -7.09,4.94 -2.55,1.13 -5.23,1.69 -8.05,1.72 -2.12,-0.03 -4.04,-0.36 -5.83,-1.09 -1.79,-0.7 -3.31,-1.76 -4.61,-3.18 -1.29,-1.39 -2.32,-3.18 -3.02,-5.3 -0.7,-2.15 -1.06,-4.61 -1.06,-7.42 0,-0.86 0.03,-1.69 0.07,-2.52 0.03,-0.86 0.16,-1.75 0.33,-2.68l-0.3 0c-1.39,2.79 -3.02,5.54 -4.84,8.22 -1.82,2.72 -3.84,5.14 -6.03,7.26 -2.19,2.12 -4.51,3.81 -6.99,5.14 -2.45,1.29 -5.07,1.95 -7.79,1.95 -2.22,0 -4.27,-0.4 -6.1,-1.16 -1.86,-0.76 -3.45,-1.86 -4.74,-3.21 -1.33,-1.36 -2.32,-2.95 -3.05,-4.8 -0.73,-1.86 -1.09,-3.91 -1.09,-6.1 0,-2.85 0.53,-5.43 1.56,-7.79 1.06,-2.32 2.52,-4.41 4.38,-6.26 1.86,-1.82 4.07,-3.41 6.69,-4.77 2.59,-1.33 5.4,-2.45 8.42,-3.35 3.05,-0.89 6.26,-1.56 9.68,-1.99 3.38,-0.43 6.86,-0.66 10.37,-0.66 0.23,-2.02 0.43,-4.01 0.56,-5.9 0.17,-1.92 0.23,-4.04 0.23,-6.33zm-29.82 33.34c0,1.29 0.17,2.49 0.43,3.65 0.26,1.12 0.7,2.15 1.29,3.02 0.6,0.89 1.36,1.56 2.29,2.05 0.93,0.53 2.05,0.76 3.35,0.76 1.46,0 2.95,-0.33 4.51,-1.03 1.56,-0.66 3.08,-1.63 4.57,-2.82 1.52,-1.19 2.95,-2.62 4.34,-4.27 1.36,-1.69 2.59,-3.48 3.71,-5.47 1.09,-1.99 1.99,-4.04 2.72,-6.23 0.73,-2.19 1.23,-4.44 1.46,-6.73 -2.42,0.07 -4.77,0.2 -7.16,0.46 -2.35,0.23 -4.61,0.63 -6.73,1.13 -2.12,0.53 -4.08,1.19 -5.9,2.05 -1.79,0.83 -3.35,1.89 -4.67,3.12 -1.29,1.26 -2.32,2.72 -3.08,4.44 -0.73,1.69 -1.13,3.64 -1.13,5.86z"/>
  </g>
  <g id="_2310554601296">
   <path class="fil1" d="M662.38 330.88c0,-1.36 -0.1,-2.52 -0.33,-3.48 -0.2,-0.96 -0.6,-1.76 -1.16,-2.35 -0.56,-0.6 -1.33,-1.03 -2.35,-1.33 -1,-0.27 -2.29,-0.4 -3.88,-0.4 -1.03,0 -2.19,0.07 -3.48,0.17 -1.32,0.1 -2.78,0.26 -4.44,0.46l-0.53 -4.51c3.18,-0.5 6.13,-0.93 8.85,-1.29 2.72,-0.37 5.27,-0.7 7.62,-0.96 2.39,-0.3 4.61,-0.5 6.69,-0.63 2.05,-0.13 4.01,-0.2 5.87,-0.2 5.1,0 9.97,-0.03 14.55,-0.1 4.57,-0.1 8.65,-0.16 12.19,-0.27 3.51,-0.07 6.43,-0.16 8.72,-0.23 2.28,-0.07 3.68,-0.13 4.21,-0.13 1.49,0 2.62,0.36 3.41,1.06 0.8,0.7 1.19,1.76 1.19,3.21 0,0.6 -0.07,1.72 -0.16,3.41 -0.1,1.69 -0.27,3.61 -0.43,5.8 -0.2,2.19 -0.4,4.47 -0.63,6.93 -0.2,2.42 -0.46,4.67 -0.73,6.79l-4.64 -0.17c0.07,-1.23 0.1,-2.35 0.13,-3.45 0.03,-1.06 0.07,-2.05 0.07,-3.02 0,-2.72 -0.17,-4.9 -0.5,-6.59 -0.33,-1.72 -0.93,-3.05 -1.76,-4.01 -0.86,-1 -2.05,-1.66 -3.55,-1.99 -1.49,-0.36 -3.38,-0.56 -5.67,-0.6 -3.21,-0.03 -6.03,-0.07 -8.45,-0.07 -2.42,-0.03 -4.74,-0.03 -6.99,-0.03l-2.55 0c-1.26,0 -2.48,0 -3.78,0.03 -1.29,0 -2.82,0.07 -4.64,0.1 -0.07,2.72 -0.13,5.7 -0.2,9.01 -0.1,3.32 -0.2,6.86 -0.3,10.67 -0.07,3.78 -0.2,7.79 -0.3,12 -0.1,4.21 -0.23,8.52 -0.36,12.99 4.18,0.2 7.89,0.33 11.1,0.43 3.25,0.07 6.23,0.1 8.98,0.1 3.35,0 6.3,-0.1 8.88,-0.3 2.55,-0.23 5,-0.56 7.29,-1 0.53,1.43 0.8,2.68 0.8,3.81 0,0.96 -0.3,1.76 -0.89,2.39 -0.56,0.66 -1.39,1.19 -2.45,1.59 -1.09,0.4 -2.39,0.7 -3.91,0.86 -1.49,0.2 -3.21,0.27 -5.07,0.27 -3.35,0 -7.12,-0.16 -11.33,-0.56 -4.24,-0.36 -8.75,-0.83 -13.59,-1.36 -0.07,1.86 -0.13,4.11 -0.23,6.76 -0.1,2.65 -0.23,5.43 -0.33,8.42 -0.13,2.98 -0.3,6.03 -0.46,9.15 -0.2,3.15 -0.37,6.13 -0.53,8.98 -0.2,2.88 -0.4,5.5 -0.6,7.89 -0.2,2.35 -0.43,4.31 -0.66,5.83 3.15,-0.46 6.2,-0.8 9.18,-1 2.98,-0.2 5.67,-0.3 8.12,-0.3 3.38,0 6.56,0.07 9.51,0.27 2.98,0.17 5.9,0.27 8.81,0.27 1.96,0 3.64,-0.27 5.14,-0.83 1.46,-0.53 2.75,-1.46 3.84,-2.85 1.13,-1.36 2.02,-3.21 2.75,-5.57 0.73,-2.32 1.29,-5.27 1.72,-8.88l4.38 0.27c-0.1,5.43 -0.5,9.91 -1.16,13.42 -0.7,3.55 -1.62,6.33 -2.85,8.35 -1.23,2.05 -2.68,3.48 -4.44,4.24 -1.76,0.8 -3.71,1.19 -5.93,1.19 -1.72,0 -3.64,-0.13 -5.77,-0.46 -2.09,-0.33 -4.41,-0.7 -6.89,-1.09 -2.48,-0.4 -5.2,-0.76 -8.09,-1.09 -2.88,-0.33 -6,-0.5 -9.34,-0.5 -2.95,0 -6.2,0.2 -9.74,0.56 -3.55,0.36 -7.16,0.99 -10.87,1.86l-0.89 -0.1c0.5,-3.21 0.93,-7.12 1.29,-11.73 0.36,-4.61 0.7,-9.61 0.99,-15.08 0.3,-5.43 0.53,-11.2 0.73,-17.27 0.2,-6.03 0.36,-12.16 0.5,-18.33 0.13,-6.16 0.2,-12.26 0.27,-18.29 0.03,-6.03 0.07,-11.76 0.07,-17.17zm65.25 31.95c2.29,-0.8 4.51,-1.53 6.63,-2.19 2.12,-0.66 4.04,-1.26 5.83,-1.72 1.79,-0.5 3.35,-0.86 4.71,-1.12 1.36,-0.27 2.42,-0.4 3.21,-0.4 1.89,0 3.35,0.56 4.37,1.69 1.06,1.09 1.59,3.02 1.59,5.73 0,0.66 -0.07,2.05 -0.2,4.14 -0.13,2.12 -0.3,4.8 -0.56,7.99 -0.23,3.21 -0.53,6.89 -0.89,11 -0.33,4.11 -0.76,8.45 -1.19,13.09l0.27 0.07c2.29,-8.25 4.71,-15.14 7.26,-20.71 2.55,-5.6 5.17,-10.11 7.82,-13.52 2.65,-3.45 5.3,-5.9 7.98,-7.36 2.68,-1.49 5.3,-2.22 7.82,-2.22 2.25,0 4.14,0.56 5.7,1.66 1.52,1.09 2.78,2.55 3.78,4.31 0.96,1.79 1.69,3.81 2.12,6.06 0.46,2.25 0.7,4.54 0.7,6.86 0,2.05 -0.07,4.21 -0.2,6.5 -0.13,2.25 -0.3,4.51 -0.5,6.73 -0.2,2.22 -0.4,4.34 -0.6,6.33 -0.2,1.99 -0.4,3.71 -0.56,5.2l0.3 0.07c2.25,-8.35 4.67,-15.38 7.26,-21.01 2.55,-5.63 5.2,-10.17 7.85,-13.62 2.68,-3.41 5.37,-5.86 8.05,-7.36 2.68,-1.46 5.27,-2.19 7.79,-2.19 1.63,0 3.21,0.33 4.74,1 1.49,0.7 2.85,1.79 4.04,3.28 1.16,1.52 2.12,3.45 2.85,5.8 0.7,2.39 1.06,5.2 1.06,8.55 0,0.93 -0.07,2.22 -0.17,3.88 -0.13,1.62 -0.26,3.45 -0.43,5.43 -0.17,2.02 -0.33,4.14 -0.56,6.4 -0.2,2.25 -0.4,4.44 -0.56,6.63 -0.13,2.15 -0.3,4.24 -0.4,6.2 -0.1,1.95 -0.17,3.64 -0.17,5.07 0,2.52 0.1,4.57 0.3,6.16 0.23,1.59 0.56,2.82 1.06,3.75 0.5,0.93 1.13,1.56 1.92,1.89 0.83,0.36 1.82,0.53 2.98,0.53 1.69,0 3.41,-0.23 5.24,-0.7 1.82,-0.5 3.64,-1.13 5.5,-1.99l0.89 2.52c-1.16,0.96 -2.62,1.92 -4.41,2.88 -1.79,0.96 -3.65,1.86 -5.6,2.65 -1.96,0.83 -3.91,1.49 -5.87,1.99 -1.92,0.5 -3.64,0.73 -5.14,0.73 -1.76,0 -3.12,-0.46 -4.11,-1.39 -1.03,-0.93 -1.76,-2.22 -2.29,-3.84 -0.5,-1.63 -0.79,-3.51 -0.96,-5.67 -0.13,-2.19 -0.2,-4.51 -0.2,-6.99 0,-3.02 0.1,-6.16 0.3,-9.48 0.2,-3.28 0.46,-6.43 0.7,-9.41 0.27,-2.98 0.5,-5.67 0.73,-8.09 0.2,-2.42 0.3,-4.24 0.3,-5.47 0,-3.51 -0.63,-6.16 -1.86,-7.92 -1.26,-1.76 -2.95,-2.65 -5.07,-2.65 -1.66,0 -3.41,0.79 -5.27,2.35 -1.86,1.56 -3.74,3.74 -5.6,6.49 -1.86,2.75 -3.65,6 -5.37,9.71 -1.76,3.75 -3.32,7.79 -4.71,12.16 -1.39,4.38 -2.55,8.95 -3.51,13.72 -0.96,4.77 -1.56,9.54 -1.86,14.35l-10.14 1.26 -0.8 -0.03c0.36,-6.79 0.7,-12.82 0.99,-18.06 0.3,-5.27 0.6,-9.84 0.83,-13.75 0.23,-3.91 0.43,-7.22 0.6,-9.94 0.13,-2.72 0.2,-4.97 0.2,-6.76 0,-3.61 -0.63,-6.36 -1.86,-8.18 -1.26,-1.86 -2.85,-2.78 -4.77,-2.78 -1.72,0 -3.55,0.76 -5.44,2.32 -1.89,1.52 -3.74,3.65 -5.6,6.36 -1.86,2.72 -3.61,5.93 -5.3,9.64 -1.72,3.71 -3.25,7.72 -4.64,12.03 -1.36,4.31 -2.52,8.82 -3.45,13.59 -0.89,4.74 -1.52,9.51 -1.79,14.32l-10.17 1.26 -0.76 -0.03c0.27,-3.08 0.5,-6.43 0.73,-10.07 0.23,-3.61 0.43,-7.29 0.63,-11.04 0.2,-3.74 0.36,-7.42 0.5,-11.1 0.17,-3.68 0.3,-7.12 0.4,-10.31 0.13,-3.18 0.2,-6.03 0.23,-8.55 0.07,-2.55 0.1,-4.54 0.1,-6 0,-1.33 -0.1,-2.42 -0.3,-3.35 -0.2,-0.89 -0.5,-1.62 -0.89,-2.15 -0.43,-0.53 -0.93,-0.89 -1.52,-1.13 -0.63,-0.23 -1.36,-0.36 -2.19,-0.36 -1.19,0 -2.58,0.17 -4.18,0.5 -1.62,0.33 -3.48,0.76 -5.53,1.32l-0.73 -3.51zm121.52 -0.23c3.64,-1.09 6.73,-1.99 9.28,-2.68 2.55,-0.66 4.71,-1.19 6.43,-1.59 1.72,-0.4 3.08,-0.66 4.07,-0.79 1,-0.17 1.72,-0.23 2.22,-0.23 0.8,0 1.56,0.13 2.29,0.36 0.7,0.23 1.32,0.66 1.86,1.26 0.53,0.56 0.96,1.36 1.23,2.35 0.3,0.96 0.46,2.19 0.46,3.65 0,0.5 -0.03,1.46 -0.1,2.88 -0.03,1.43 -0.13,3.38 -0.27,5.9 -0.13,2.48 -0.3,5.57 -0.5,9.21 -0.2,3.64 -0.46,7.92 -0.8,12.82l0.56 0.07c2.55,-6.3 5.27,-11.83 8.18,-16.67 2.95,-4.84 5.9,-8.91 8.95,-12.23 3.02,-3.28 6.03,-5.8 9.05,-7.49 3.02,-1.69 5.86,-2.55 8.58,-2.55 2.22,0 4.14,0.4 5.83,1.23 1.69,0.83 3.15,1.92 4.41,3.31 1.23,1.36 2.28,2.95 3.11,4.77 0.83,1.79 1.52,3.64 2.05,5.6 0.5,1.99 0.86,3.94 1.09,5.96 0.23,1.99 0.36,3.88 0.36,5.63 0,4.74 -0.5,9.21 -1.46,13.36 -0.99,4.14 -2.32,7.92 -4.01,11.37 -1.66,3.45 -3.65,6.53 -5.96,9.25 -2.29,2.72 -4.77,5 -7.46,6.89 -2.65,1.86 -5.47,3.28 -8.38,4.24 -2.92,0.99 -5.87,1.49 -8.82,1.49 -3.15,0 -6.2,-0.56 -9.18,-1.69 -2.98,-1.13 -5.77,-3.02 -8.38,-5.63 -0.36,8.12 -0.73,16.5 -1.06,25.15 -0.36,8.68 -0.56,17.7 -0.6,27.14l-10.21 1.16 -0.99 -0.07c0.46,-6.03 0.93,-12.39 1.36,-19.05 0.4,-6.63 0.8,-13.32 1.16,-20.02 0.37,-6.69 0.66,-13.29 0.96,-19.78 0.3,-6.5 0.53,-12.59 0.73,-18.26 0.2,-5.7 0.36,-10.87 0.46,-15.51 0.13,-4.67 0.16,-8.52 0.16,-11.53 0,-1.23 -0.07,-2.32 -0.2,-3.25 -0.13,-0.93 -0.36,-1.69 -0.73,-2.29 -0.4,-0.63 -0.93,-1.09 -1.62,-1.39 -0.73,-0.3 -1.66,-0.46 -2.82,-0.46 -1.23,0 -2.65,0.13 -4.38,0.4 -1.72,0.27 -3.78,0.7 -6.23,1.29l-0.73 -3.58zm25.15 54.74c2.75,2.35 5.5,4.04 8.22,5.17 2.75,1.09 5.5,1.62 8.25,1.62 3.61,0 6.96,-0.76 10.01,-2.28 3.05,-1.56 5.7,-3.84 7.92,-6.89 2.22,-3.02 3.94,-6.79 5.2,-11.27 1.23,-4.47 1.86,-9.68 1.86,-15.61 0,-2.19 -0.17,-4.47 -0.5,-6.79 -0.36,-2.32 -0.89,-4.44 -1.63,-6.33 -0.73,-1.89 -1.66,-3.45 -2.85,-4.67 -1.19,-1.23 -2.62,-1.82 -4.31,-1.82 -1.95,0 -3.91,0.53 -5.86,1.53 -1.96,1.03 -3.81,2.42 -5.67,4.14 -1.82,1.72 -3.58,3.75 -5.27,6.1 -1.66,2.32 -3.25,4.77 -4.74,7.39 -1.49,2.62 -2.85,5.3 -4.08,8.05 -1.23,2.78 -2.32,5.47 -3.25,8.09 -0.89,2.62 -1.66,5.1 -2.22,7.42 -0.56,2.35 -0.93,4.41 -1.09,6.16zm72.08 11.27l-0.76 -0.03c0.27,-3.08 0.5,-6.43 0.73,-10.07 0.23,-3.61 0.43,-7.29 0.63,-11.04 0.2,-3.74 0.36,-7.42 0.5,-11.1 0.17,-3.68 0.3,-7.12 0.4,-10.31 0.13,-3.18 0.2,-6.03 0.23,-8.55 0.07,-2.55 0.1,-4.54 0.1,-6 0,-1.19 -0.07,-2.22 -0.17,-3.08 -0.1,-0.89 -0.3,-1.62 -0.66,-2.19 -0.33,-0.6 -0.83,-1.03 -1.46,-1.29 -0.66,-0.27 -1.52,-0.43 -2.62,-0.43 -0.56,0 -1.13,0.03 -1.72,0.1 -0.56,0.07 -1.23,0.16 -1.92,0.3 -0.73,0.13 -1.52,0.3 -2.42,0.53 -0.89,0.2 -1.92,0.43 -3.08,0.73l-0.73 -3.48c5.37,-1.95 9.74,-3.31 13.06,-4.11 3.35,-0.79 5.6,-1.19 6.76,-1.19 2.12,0 3.68,0.63 4.57,1.89 0.93,1.23 1.39,3.08 1.39,5.53 0,0.23 -0.04,0.89 -0.1,1.99 -0.07,1.13 -0.13,2.55 -0.27,4.31 -0.1,1.76 -0.23,3.81 -0.4,6.13 -0.17,2.35 -0.36,4.84 -0.56,7.52 -0.23,2.65 -0.46,5.43 -0.7,8.35 -0.27,2.88 -0.56,5.77 -0.83,8.65l0.46 0.03c1.56,-6.33 3.31,-12.23 5.27,-17.73 1.96,-5.47 4.18,-10.24 6.59,-14.28 2.45,-4.04 5.14,-7.22 8.09,-9.54 2.91,-2.32 6.13,-3.48 9.61,-3.48 1.26,0 2.39,0.2 3.45,0.6 1.09,0.36 1.99,0.93 2.79,1.63 0.76,0.7 1.39,1.52 1.86,2.45 0.43,0.96 0.66,2.02 0.66,3.15 0,1.46 -0.3,2.85 -0.93,4.21 -0.66,1.32 -1.66,2.52 -3.02,3.54l-0.36 0c-1.36,-1.12 -2.65,-1.95 -3.88,-2.45 -1.19,-0.5 -2.49,-0.73 -3.84,-0.73 -1.46,0 -2.88,0.27 -4.24,0.83 -1.36,0.53 -2.59,1.32 -3.71,2.35 -1.86,1.69 -3.58,3.91 -5.17,6.7 -1.59,2.75 -3.02,5.83 -4.34,9.18 -1.29,3.38 -2.48,6.93 -3.55,10.6 -1.03,3.71 -1.95,7.32 -2.72,10.84 -0.76,3.51 -1.36,6.83 -1.82,9.91 -0.5,3.08 -0.83,5.67 -0.99,7.79l-10.17 1.26zm98.62 -16.3c0.17,0.1 0.43,0.23 0.73,0.4 0.3,0.2 0.6,0.4 0.86,0.6 0.26,0.2 0.5,0.43 0.66,0.66 0.2,0.27 0.3,0.5 0.3,0.73 0,0.13 -0.03,0.23 -0.13,0.36 -1.82,2.55 -3.78,4.74 -5.86,6.59 -2.09,1.86 -4.24,3.41 -6.5,4.64 -2.25,1.26 -4.54,2.19 -6.86,2.79 -2.35,0.6 -4.64,0.89 -6.89,0.89 -3.88,0 -7.46,-0.8 -10.7,-2.39 -3.21,-1.59 -6,-3.75 -8.32,-6.5 -2.35,-2.75 -4.18,-5.96 -5.47,-9.68 -1.33,-3.71 -1.99,-7.69 -1.99,-11.93 0,-3.45 0.4,-6.93 1.16,-10.37 0.76,-3.48 1.86,-6.76 3.28,-9.91 1.46,-3.15 3.21,-6.06 5.27,-8.78 2.09,-2.68 4.44,-5.04 7.06,-7.03 2.65,-1.99 5.54,-3.54 8.71,-4.67 3.15,-1.16 6.53,-1.72 10.18,-1.72 2.39,0 4.67,0.33 6.82,0.99 2.19,0.63 4.08,1.56 5.7,2.79 1.66,1.23 2.95,2.72 3.91,4.47 0.96,1.79 1.46,3.81 1.46,6.1 0,3.28 -1.06,6.16 -3.21,8.62 -2.15,2.45 -5.14,4.54 -8.91,6.26 -3.78,1.72 -8.25,3.11 -13.39,4.18 -5.1,1.03 -10.67,1.82 -16.6,2.35l0 0.8c0,4.14 0.5,7.95 1.56,11.37 1.06,3.45 2.52,6.36 4.34,8.81 1.86,2.45 4.01,4.34 6.53,5.7 2.48,1.36 5.17,2.05 8.05,2.05 2.92,0 5.9,-0.73 8.95,-2.15 3.05,-1.46 6.16,-3.78 9.31,-7.02zm-9.14 -38.97c0,-1.49 -0.23,-2.88 -0.76,-4.18 -0.5,-1.29 -1.19,-2.42 -2.09,-3.38 -0.86,-0.96 -1.92,-1.72 -3.18,-2.25 -1.23,-0.56 -2.55,-0.83 -3.98,-0.83 -2.09,0 -4.01,0.36 -5.7,1.09 -1.72,0.76 -3.28,1.76 -4.64,3.05 -1.36,1.29 -2.55,2.78 -3.58,4.47 -1.03,1.69 -1.92,3.51 -2.65,5.4 -0.73,1.92 -1.32,3.88 -1.76,5.87 -0.46,2.02 -0.79,3.98 -0.99,5.9 4.61,-0.33 8.71,-0.89 12.36,-1.69 3.64,-0.8 6.73,-1.82 9.25,-3.05 2.48,-1.26 4.41,-2.75 5.73,-4.47 1.32,-1.72 1.99,-3.71 1.99,-5.93zm28.33 36.48c0.2,2.45 0.86,4.57 1.96,6.36 1.09,1.79 2.42,3.25 4.01,4.37 1.59,1.13 3.35,1.96 5.27,2.52 1.92,0.56 3.84,0.83 5.73,0.83 1.79,0 3.51,-0.23 5.17,-0.73 1.63,-0.5 3.08,-1.19 4.34,-2.09 1.26,-0.89 2.29,-2.02 3.05,-3.35 0.76,-1.33 1.13,-2.82 1.13,-4.47 0,-1.72 -0.4,-3.21 -1.19,-4.51 -0.83,-1.29 -1.89,-2.49 -3.25,-3.55 -1.36,-1.06 -2.95,-2.05 -4.74,-2.95 -1.79,-0.93 -3.68,-1.86 -5.6,-2.78 -1.72,-0.8 -3.45,-1.63 -5.17,-2.45 -1.76,-0.83 -3.41,-1.72 -5.04,-2.68 -1.62,-0.96 -3.15,-2.02 -4.54,-3.15 -1.43,-1.16 -2.65,-2.39 -3.68,-3.78 -1.06,-1.36 -1.89,-2.92 -2.48,-4.61 -0.6,-1.69 -0.89,-3.58 -0.89,-5.67 0,-2.22 0.4,-4.28 1.16,-6.16 0.76,-1.86 1.82,-3.55 3.18,-5.07 1.32,-1.49 2.88,-2.82 4.67,-3.94 1.76,-1.13 3.65,-2.09 5.63,-2.85 2.02,-0.76 4.08,-1.32 6.2,-1.69 2.12,-0.36 4.18,-0.56 6.2,-0.56 2.59,0 5.04,0.3 7.36,0.86 2.28,0.56 4.34,1.39 6.06,2.45 1.72,1.09 3.11,2.42 4.11,3.98 1.03,1.56 1.52,3.28 1.52,5.24 0,0.73 -0.13,1.56 -0.36,2.42 -0.27,0.89 -0.7,1.69 -1.33,2.45 -0.6,0.76 -1.43,1.39 -2.42,1.92 -0.99,0.53 -2.22,0.8 -3.68,0.83 -1.36,0 -2.79,-0.2 -4.28,-0.63l-0.16 -0.5c0.46,-1.03 0.79,-1.99 0.99,-2.85 0.17,-0.89 0.27,-1.69 0.27,-2.42 -0.03,-1.49 -0.4,-2.75 -1.13,-3.78 -0.73,-1.03 -1.66,-1.86 -2.75,-2.48 -1.09,-0.66 -2.32,-1.13 -3.64,-1.43 -1.36,-0.3 -2.68,-0.43 -3.98,-0.43 -2.28,0 -4.34,0.3 -6.16,0.93 -1.79,0.6 -3.35,1.42 -4.57,2.45 -1.26,1.03 -2.22,2.15 -2.88,3.45 -0.66,1.33 -1,2.65 -1,4.04 0,1.79 0.46,3.38 1.43,4.77 0.93,1.43 2.19,2.72 3.75,3.91 1.52,1.16 3.31,2.29 5.34,3.31 2.02,1.03 4.14,2.05 6.36,3.12 2.45,1.16 4.9,2.35 7.32,3.61 2.42,1.23 4.57,2.65 6.49,4.24 1.92,1.59 3.45,3.41 4.64,5.47 1.19,2.05 1.76,4.47 1.76,7.26 0,3.31 -0.73,6.3 -2.19,8.88 -1.49,2.59 -3.45,4.77 -5.9,6.56 -2.45,1.76 -5.3,3.12 -8.48,4.04 -3.18,0.93 -6.5,1.39 -9.91,1.39 -1.72,0 -3.51,-0.13 -5.34,-0.4 -1.82,-0.27 -3.58,-0.66 -5.3,-1.16 -1.72,-0.53 -3.35,-1.16 -4.87,-1.92 -1.56,-0.76 -2.88,-1.62 -4.04,-2.62 -1.16,-0.99 -2.05,-2.09 -2.72,-3.31 -0.66,-1.19 -0.99,-2.55 -0.99,-4.01 0,-1.26 0.27,-2.32 0.8,-3.18 0.53,-0.89 1.23,-1.59 2.12,-2.15 0.86,-0.53 1.86,-0.96 2.91,-1.23 1.09,-0.27 2.22,-0.43 3.35,-0.46l0.4 0.33zm91 -32.37c0,-2.55 -0.43,-4.77 -1.26,-6.66 -0.86,-1.86 -1.96,-3.41 -3.31,-4.61 -1.36,-1.19 -2.88,-2.09 -4.61,-2.65 -1.72,-0.6 -3.45,-0.89 -5.14,-0.89 -2.32,0 -4.24,0.27 -5.83,0.73 -1.59,0.5 -2.88,1.16 -3.88,1.99 -0.96,0.86 -1.69,1.86 -2.12,2.98 -0.43,1.16 -0.66,2.39 -0.66,3.75 0,1.52 0.3,3.11 0.86,4.67 0.56,1.56 1.39,3.08 2.48,4.57l-0.2 0.53c-1.82,0.93 -3.68,1.36 -5.57,1.36 -1.09,0 -2.12,-0.17 -3.08,-0.5 -0.96,-0.33 -1.79,-0.83 -2.49,-1.49 -0.7,-0.63 -1.23,-1.43 -1.66,-2.35 -0.4,-0.96 -0.6,-1.99 -0.6,-3.18 0,-1.89 0.46,-3.68 1.39,-5.37 0.93,-1.69 2.15,-3.21 3.64,-4.61 1.52,-1.39 3.31,-2.65 5.3,-3.74 2.02,-1.09 4.07,-2.02 6.23,-2.79 2.12,-0.76 4.28,-1.36 6.43,-1.76 2.15,-0.4 4.14,-0.6 6,-0.6 3.38,0 6.3,0.43 8.71,1.36 2.39,0.89 4.34,2.22 5.87,3.94 1.49,1.72 2.59,3.81 3.28,6.3 0.7,2.45 1.06,5.24 1.06,8.35 0,2.12 -0.1,4.47 -0.27,7.03 -0.17,2.55 -0.4,5.23 -0.6,8.02 -0.23,2.82 -0.43,5.7 -0.63,8.68 -0.17,2.98 -0.27,5.93 -0.27,8.88 0,4.67 0.86,8.15 2.62,10.5 1.72,2.35 3.98,3.51 6.79,3.51 2.52,0 5.3,-0.93 8.35,-2.75l1.43 2.09c-2.19,2.15 -4.54,3.81 -7.09,4.94 -2.55,1.13 -5.23,1.69 -8.05,1.72 -2.12,-0.03 -4.04,-0.36 -5.83,-1.09 -1.79,-0.7 -3.31,-1.76 -4.61,-3.18 -1.29,-1.39 -2.32,-3.18 -3.02,-5.3 -0.7,-2.15 -1.06,-4.61 -1.06,-7.42 0,-0.86 0.03,-1.69 0.07,-2.52 0.03,-0.86 0.16,-1.75 0.33,-2.68l-0.3 0c-1.39,2.79 -3.02,5.54 -4.84,8.22 -1.82,2.72 -3.84,5.14 -6.03,7.26 -2.19,2.12 -4.51,3.81 -6.99,5.14 -2.45,1.29 -5.07,1.95 -7.79,1.95 -2.22,0 -4.27,-0.4 -6.1,-1.16 -1.86,-0.76 -3.45,-1.86 -4.74,-3.21 -1.33,-1.36 -2.32,-2.95 -3.05,-4.8 -0.73,-1.86 -1.09,-3.91 -1.09,-6.1 0,-2.85 0.53,-5.43 1.56,-7.79 1.06,-2.32 2.52,-4.41 4.38,-6.26 1.86,-1.82 4.07,-3.41 6.69,-4.77 2.59,-1.33 5.4,-2.45 8.42,-3.35 3.05,-0.89 6.26,-1.56 9.68,-1.99 3.38,-0.43 6.86,-0.66 10.37,-0.66 0.23,-2.02 0.43,-4.01 0.56,-5.9 0.17,-1.92 0.23,-4.04 0.23,-6.33zm-29.82 33.34c0,1.29 0.17,2.49 0.43,3.65 0.26,1.12 0.7,2.15 1.29,3.02 0.6,0.89 1.36,1.56 2.29,2.05 0.93,0.53 2.05,0.76 3.35,0.76 1.46,0 2.95,-0.33 4.51,-1.03 1.56,-0.66 3.08,-1.63 4.57,-2.82 1.52,-1.19 2.95,-2.62 4.34,-4.27 1.36,-1.69 2.59,-3.48 3.71,-5.47 1.09,-1.99 1.99,-4.04 2.72,-6.23 0.73,-2.19 1.23,-4.44 1.46,-6.73 -2.42,0.07 -4.77,0.2 -7.16,0.46 -2.35,0.23 -4.61,0.63 -6.73,1.13 -2.12,0.53 -4.08,1.19 -5.9,2.05 -1.79,0.83 -3.35,1.89 -4.67,3.12 -1.29,1.26 -2.32,2.72 -3.08,4.44 -0.73,1.69 -1.13,3.64 -1.13,5.86zm67.67 17.83l-0.76 -0.03c0.27,-3.08 0.5,-6.43 0.73,-10.07 0.23,-3.61 0.43,-7.29 0.63,-11.04 0.2,-3.74 0.36,-7.42 0.5,-11.1 0.17,-3.68 0.3,-7.12 0.4,-10.31 0.13,-3.18 0.2,-6.03 0.23,-8.55 0.07,-2.55 0.1,-4.54 0.1,-6 0,-1.19 -0.07,-2.22 -0.17,-3.08 -0.1,-0.89 -0.3,-1.62 -0.66,-2.19 -0.33,-0.6 -0.83,-1.03 -1.46,-1.29 -0.66,-0.27 -1.52,-0.43 -2.62,-0.43 -0.56,0 -1.13,0.03 -1.72,0.1 -0.56,0.07 -1.23,0.16 -1.92,0.3 -0.73,0.13 -1.52,0.3 -2.42,0.53 -0.89,0.2 -1.92,0.43 -3.08,0.73l-0.73 -3.48c5.37,-1.95 9.74,-3.31 13.06,-4.11 3.35,-0.79 5.6,-1.19 6.76,-1.19 2.12,0 3.68,0.63 4.57,1.89 0.93,1.23 1.39,3.08 1.39,5.53 0,0.23 -0.04,0.89 -0.1,1.99 -0.07,1.13 -0.13,2.55 -0.27,4.31 -0.1,1.76 -0.23,3.81 -0.4,6.13 -0.17,2.35 -0.36,4.84 -0.56,7.52 -0.23,2.65 -0.46,5.43 -0.7,8.35 -0.27,2.88 -0.56,5.77 -0.83,8.65l0.46 0.03c1.56,-6.33 3.31,-12.23 5.27,-17.73 1.96,-5.47 4.18,-10.24 6.59,-14.28 2.45,-4.04 5.14,-7.22 8.09,-9.54 2.91,-2.32 6.13,-3.48 9.61,-3.48 1.26,0 2.39,0.2 3.45,0.6 1.09,0.36 1.99,0.93 2.79,1.63 0.76,0.7 1.39,1.52 1.86,2.45 0.43,0.96 0.66,2.02 0.66,3.15 0,1.46 -0.3,2.85 -0.93,4.21 -0.66,1.32 -1.66,2.52 -3.02,3.54l-0.36 0c-1.36,-1.12 -2.65,-1.95 -3.88,-2.45 -1.19,-0.5 -2.49,-0.73 -3.84,-0.73 -1.46,0 -2.88,0.27 -4.24,0.83 -1.36,0.53 -2.59,1.32 -3.71,2.35 -1.86,1.69 -3.58,3.91 -5.17,6.7 -1.59,2.75 -3.02,5.83 -4.34,9.18 -1.29,3.38 -2.48,6.93 -3.55,10.6 -1.03,3.71 -1.95,7.32 -2.72,10.84 -0.76,3.51 -1.36,6.83 -1.82,9.91 -0.5,3.08 -0.83,5.67 -0.99,7.79l-10.17 1.26z"/>
   <path class="fil1" d="M1259.27 337.11c-1.13,0 -2.15,-0.23 -3.02,-0.7 -0.86,-0.5 -1.63,-1.09 -2.22,-1.86 -0.63,-0.76 -1.09,-1.63 -1.42,-2.62 -0.33,-0.99 -0.46,-2.02 -0.46,-3.05 0,-1.46 0.23,-2.75 0.73,-3.84 0.46,-1.13 1.09,-2.05 1.89,-2.82 0.76,-0.76 1.62,-1.32 2.55,-1.69 0.96,-0.4 1.86,-0.56 2.79,-0.56 1.09,0 2.09,0.2 2.95,0.6 0.86,0.4 1.62,0.96 2.25,1.69 0.63,0.7 1.13,1.53 1.46,2.45 0.33,0.89 0.53,1.89 0.53,2.98 0,1.13 -0.2,2.25 -0.6,3.35 -0.4,1.13 -0.93,2.15 -1.63,3.05 -0.7,0.89 -1.52,1.63 -2.52,2.19 -0.99,0.56 -2.09,0.83 -3.28,0.83zm4.21 21.94c-0.53,3.68 -0.99,7.39 -1.39,11.1 -0.4,3.68 -0.7,7.29 -0.96,10.74 -0.23,3.48 -0.4,6.76 -0.53,9.84 -0.1,3.08 -0.16,5.87 -0.16,8.35 0,3.38 0.07,6.26 0.13,8.68 0.1,2.42 0.27,4.44 0.5,6.1 0.23,1.66 0.5,2.95 0.86,3.94 0.33,0.99 0.76,1.76 1.26,2.29 0.5,0.53 1.09,0.89 1.76,1.03 0.66,0.17 1.39,0.27 2.25,0.27 1.56,0 3.21,-0.23 5,-0.7 1.79,-0.5 3.61,-1.13 5.47,-1.99l0.93 2.52c-1.16,0.96 -2.62,1.92 -4.41,2.88 -1.76,0.96 -3.61,1.86 -5.54,2.65 -1.95,0.83 -3.84,1.49 -5.73,1.99 -1.86,0.5 -3.45,0.73 -4.8,0.73 -0.93,0 -1.76,-0.07 -2.48,-0.2 -0.73,-0.16 -1.43,-0.53 -2.02,-1.09 -0.6,-0.6 -1.13,-1.46 -1.59,-2.59 -0.46,-1.13 -0.86,-2.65 -1.16,-4.61 -0.33,-1.92 -0.56,-4.38 -0.73,-7.29 -0.13,-2.92 -0.23,-6.43 -0.23,-10.57 0,-2.42 0.03,-5.17 0.07,-8.22 0.07,-3.08 0.13,-6.36 0.23,-9.87 0.1,-3.51 0.23,-7.19 0.4,-11.1 0.16,-3.91 0.36,-7.92 0.63,-12.06 0.07,-0.89 0.3,-1.66 0.73,-2.22 0.4,-0.56 0.93,-0.99 1.56,-1.29 0.6,-0.33 1.26,-0.53 1.95,-0.63 0.7,-0.13 1.33,-0.16 1.92,-0.16 2.15,0 4.21,0.5 6.1,1.49zm59.68 18.39c0,-2.55 -0.43,-4.77 -1.26,-6.66 -0.86,-1.86 -1.96,-3.41 -3.31,-4.61 -1.36,-1.19 -2.88,-2.09 -4.61,-2.65 -1.72,-0.6 -3.45,-0.89 -5.14,-0.89 -2.32,0 -4.24,0.27 -5.83,0.73 -1.59,0.5 -2.88,1.16 -3.88,1.99 -0.96,0.86 -1.69,1.86 -2.12,2.98 -0.43,1.16 -0.66,2.39 -0.66,3.75 0,1.52 0.3,3.11 0.86,4.67 0.56,1.56 1.39,3.08 2.48,4.57l-0.2 0.53c-1.82,0.93 -3.68,1.36 -5.57,1.36 -1.09,0 -2.12,-0.17 -3.08,-0.5 -0.96,-0.33 -1.79,-0.83 -2.49,-1.49 -0.7,-0.63 -1.23,-1.43 -1.66,-2.35 -0.4,-0.96 -0.6,-1.99 -0.6,-3.18 0,-1.89 0.46,-3.68 1.39,-5.37 0.93,-1.69 2.15,-3.21 3.64,-4.61 1.52,-1.39 3.31,-2.65 5.3,-3.74 2.02,-1.09 4.07,-2.02 6.23,-2.79 2.12,-0.76 4.28,-1.36 6.43,-1.76 2.15,-0.4 4.14,-0.6 6,-0.6 3.38,0 6.3,0.43 8.71,1.36 2.39,0.89 4.34,2.22 5.87,3.94 1.49,1.72 2.59,3.81 3.28,6.3 0.7,2.45 1.06,5.24 1.06,8.35 0,2.12 -0.1,4.47 -0.27,7.03 -0.17,2.55 -0.4,5.23 -0.6,8.02 -0.23,2.82 -0.43,5.7 -0.63,8.68 -0.17,2.98 -0.27,5.93 -0.27,8.88 0,4.67 0.86,8.15 2.62,10.5 1.72,2.35 3.98,3.51 6.79,3.51 2.52,0 5.3,-0.93 8.35,-2.75l1.43 2.09c-2.19,2.15 -4.54,3.81 -7.09,4.94 -2.55,1.13 -5.23,1.69 -8.05,1.72 -2.12,-0.03 -4.04,-0.36 -5.83,-1.09 -1.79,-0.7 -3.31,-1.76 -4.61,-3.18 -1.29,-1.39 -2.32,-3.18 -3.02,-5.3 -0.7,-2.15 -1.06,-4.61 -1.06,-7.42 0,-0.86 0.03,-1.69 0.07,-2.52 0.03,-0.86 0.16,-1.75 0.33,-2.68l-0.3 0c-1.39,2.79 -3.02,5.54 -4.84,8.22 -1.82,2.72 -3.84,5.14 -6.03,7.26 -2.19,2.12 -4.51,3.81 -6.99,5.14 -2.45,1.29 -5.07,1.95 -7.79,1.95 -2.22,0 -4.27,-0.4 -6.1,-1.16 -1.86,-0.76 -3.45,-1.86 -4.74,-3.21 -1.33,-1.36 -2.32,-2.95 -3.05,-4.8 -0.73,-1.86 -1.09,-3.91 -1.09,-6.1 0,-2.85 0.53,-5.43 1.56,-7.79 1.06,-2.32 2.52,-4.41 4.38,-6.26 1.86,-1.82 4.07,-3.41 6.69,-4.77 2.59,-1.33 5.4,-2.45 8.42,-3.35 3.05,-0.89 6.26,-1.56 9.68,-1.99 3.38,-0.43 6.86,-0.66 10.37,-0.66 0.23,-2.02 0.43,-4.01 0.56,-5.9 0.17,-1.92 0.23,-4.04 0.23,-6.33zm-29.82 33.34c0,1.29 0.17,2.49 0.43,3.65 0.26,1.12 0.7,2.15 1.29,3.02 0.6,0.89 1.36,1.56 2.29,2.05 0.93,0.53 2.05,0.76 3.35,0.76 1.46,0 2.95,-0.33 4.51,-1.03 1.56,-0.66 3.08,-1.63 4.57,-2.82 1.52,-1.19 2.95,-2.62 4.34,-4.27 1.36,-1.69 2.59,-3.48 3.71,-5.47 1.09,-1.99 1.99,-4.04 2.72,-6.23 0.73,-2.19 1.23,-4.44 1.46,-6.73 -2.42,0.07 -4.77,0.2 -7.16,0.46 -2.35,0.23 -4.61,0.63 -6.73,1.13 -2.12,0.53 -4.08,1.19 -5.9,2.05 -1.79,0.83 -3.35,1.89 -4.67,3.12 -1.29,1.26 -2.32,2.72 -3.08,4.44 -0.73,1.69 -1.13,3.64 -1.13,5.86zm84.11 -113.73c-0.66,5.5 -1.29,11.17 -1.92,16.93 -0.63,5.77 -1.23,11.6 -1.82,17.53 -0.56,5.9 -1.09,11.83 -1.56,17.79 -0.5,5.93 -0.93,11.8 -1.26,17.6 -0.37,5.77 -0.63,11.43 -0.83,17 -0.2,5.57 -0.3,10.9 -0.3,16.01 0,3.21 0.03,5.96 0.13,8.25 0.07,2.32 0.2,4.24 0.37,5.83 0.2,1.59 0.43,2.88 0.73,3.84 0.33,0.96 0.7,1.72 1.16,2.22 0.43,0.53 0.99,0.86 1.59,1.06 0.63,0.17 1.36,0.27 2.19,0.27 1.56,0 3.21,-0.23 5.04,-0.7 1.79,-0.5 3.61,-1.13 5.43,-1.99l0.93 2.52c-1.16,0.96 -2.62,1.92 -4.38,2.88 -1.76,0.96 -3.61,1.86 -5.57,2.65 -1.95,0.83 -3.84,1.49 -5.7,1.99 -1.86,0.5 -3.48,0.73 -4.84,0.73 -1.76,0 -3.11,-0.43 -4.14,-1.32 -1.03,-0.89 -1.79,-2.32 -2.32,-4.34 -0.53,-1.99 -0.89,-4.61 -1.03,-7.85 -0.17,-3.21 -0.23,-7.12 -0.23,-11.77 0,-1.69 0.07,-4.07 0.17,-7.19 0.1,-3.11 0.23,-6.76 0.4,-10.9 0.2,-4.14 0.4,-8.68 0.6,-13.59 0.23,-4.94 0.5,-10.01 0.73,-15.28 0.26,-5.27 0.53,-10.57 0.83,-15.91 0.3,-5.37 0.6,-10.54 0.89,-15.54 0.27,-5 0.56,-9.71 0.83,-14.15 0.23,-4.44 0.5,-8.35 0.73,-11.77 0.03,-0.76 0.23,-1.42 0.66,-1.99 0.43,-0.6 0.96,-1.03 1.62,-1.36 0.66,-0.36 1.43,-0.6 2.25,-0.76 0.79,-0.17 1.66,-0.27 2.48,-0.27 1.96,0 3.98,0.53 6.13,1.56z"/>
  </g>
 </g>
</svg>
