<?xml version="1.0" encoding="UTF-8"?>
<!DOCTYPE svg PUBLIC "-//W3C//DTD SVG 1.1//EN" "http://www.w3.org/Graphics/SVG/1.1/DTD/svg11.dtd">
<!-- Creator: CorelDRAW 2019 (64 Bit) -->
<svg xmlns="http://www.w3.org/2000/svg" xml:space="preserve" width="59.0755mm" height="20.2732mm" version="1.1" style="shape-rendering:geometricPrecision; text-rendering:geometricPrecision; image-rendering:optimizeQuality; fill-rule:evenodd; clip-rule:evenodd"
viewBox="0 0 896.38 307.61"
 xmlns:xlink="http://www.w3.org/1999/xlink"
 xmlns:xodm="http://www.corel.com/coreldraw/odm/2003">
 <defs>
  <style type="text/css">
   <![CDATA[
    .fil0 {fill:none}
    .fil1 {fill:none;fill-rule:nonzero}
   ]]>
  </style>
 </defs>
 <g id="Camada_x0020_1">
  <metadata id="CorelCorpID_0Corel-Layer"/>
  <path class="fil0" d="M142.23 84.92c2.62,-8.57 36.78,-62.66 42.33,-72.01 13.59,2.16 28.97,4.47 36.43,12.46 11.35,12.17 2.83,25.53 -5.1,34 -22.78,24.35 -44.94,21.96 -73.66,25.55zm45.1 -77.66c2.14,-15.13 -5.01,-2 -9.87,-1.48 -3.5,0.38 -17.53,-1.49 -22.59,-1.69 -16.08,-0.61 -30.06,-0.06 -45.87,1.49 -29.43,2.9 -50.4,7.7 -72.4,25.56 -14.05,11.4 -25.17,31.97 -17.53,51.15 7.31,18.35 30.71,24.99 49.75,14.48 14.04,-7.75 21.52,-25.01 17.61,-29.23 -3.49,1.78 -0.08,4.83 -6.96,13.31 -3.57,4.41 -5.11,6.66 -9.85,9.88 -8.46,5.76 -22.18,7.27 -31.33,1.17 -21.23,-14.15 -6.49,-42.39 6.11,-52.94 16.12,-13.51 29.28,-19.2 55.7,-23.99 25.07,-4.54 47.57,-5.25 73.53,-3.67 -0.63,1.44 -4.2,5.44 -5.56,7.09l-15.17 22.02c-14.13,22.41 -29.88,54.44 -44.99,78.76 -3.53,5.67 -16.5,24.87 -20.34,29 -11.96,12.82 -26.45,26.66 -46.66,27.89 -8.04,0.49 -15.5,0.11 -20.5,-4.78 -4.02,-3.93 -7.71,-10.41 -4.41,-18.02 8.38,-19.36 29.24,-7.08 34.42,-8.85 -2.55,-6.22 -26.62,-6.86 -34.04,-4.43 -8.84,2.89 -18.92,11.63 -15.79,23.81 5.12,19.9 37.25,22.93 58.92,16.26 26.7,-8.21 42.1,-27.19 55.52,-46.92 10.82,-15.91 14.26,-26.42 22.02,-39.04 1.95,5.81 3.16,14.08 4.84,20.23 1.83,6.71 3.67,12.59 5.83,19.21 6.73,20.62 22.93,53.51 50.2,49.74 13.19,-1.82 21.47,-13.37 26.78,-22.48 6.32,2.18 14.61,6.24 20.98,9.14 17.97,8.17 45.66,19.63 37.34,49.91 -12.2,44.41 -75.75,64.28 -121.21,52.19 -37.41,-9.95 -48.85,-40.41 -35.47,-74.49 9.78,-24.89 23.46,-28.49 25.59,-34.82 -20.25,-0.16 -60.13,51.7 -34.97,88.1 19.03,27.54 62.26,36.23 105.34,26.79 29.93,-6.56 68.9,-31.07 78.18,-61.53 9.44,-30.96 -23.59,-46.94 -45.26,-56.44 -7.11,-3.12 -16.77,-7.13 -23.11,-11.11 0.86,-4.89 6.3,-12.43 7.8,-18.55 -6.04,0.21 -6.72,9.82 -11.56,15.42l-0.75 0.71c-29.64,-16.38 -21.44,-46.5 26.34,-57.8 22.02,-5.21 48.3,-1.72 54.03,17.04 1.15,3.75 0.97,8.42 -0.7,11.98 -6,12.77 -16.94,4 -17.44,12.97 12.01,0 31.43,-11.67 26.04,-29.06 -7.44,-23.99 -50.17,-22.99 -72.5,-18.1 -50.4,11.04 -69.61,54.05 -23.32,74.99 -2.59,5.86 -14.68,18.3 -26.05,15.64 -8.99,-2.1 -16.19,-13.71 -20.74,-20.99 -11.04,-17.7 -17.32,-38.4 -22.02,-61.64 7.29,-1.61 17.38,-1.63 25.57,-3.28 22.68,-4.57 42.82,-12.19 57.67,-28.12 12.89,-13.82 8.89,-29.44 -3.87,-38.7 -10.76,-7.8 -27.33,-11.81 -43.28,-13.79z"/>
  <g id="_2310557570224">
   <path class="fil1" d="M351.37 117.29c2.74,0 5.27,0.24 7.6,0.75 2.34,0.49 4.35,1.11 6.04,1.84 1.69,0.73 3.02,1.52 3.98,2.36 0.96,0.83 1.46,1.61 1.46,2.29 0,1.43 -0.06,3.32 -0.17,5.61 -0.11,2.31 -0.24,5.1 -0.41,8.35l-2.72 -0.08c0.02,-0.3 0.04,-0.58 0.04,-0.84 0.02,-0.28 0.02,-0.53 0.02,-0.83 -0.02,-1.46 -0.19,-2.83 -0.49,-4.13 -0.3,-1.31 -0.86,-2.55 -1.65,-3.75 -0.83,-1.18 -1.84,-2.25 -3,-3.17 -1.16,-0.92 -2.42,-1.69 -3.81,-2.31 -1.37,-0.62 -2.85,-1.11 -4.41,-1.44 -1.56,-0.32 -3.17,-0.49 -4.8,-0.49 -2.81,0 -5.35,0.45 -7.64,1.3 -2.29,0.88 -4.32,2.08 -6.12,3.62 -1.8,1.54 -3.36,3.34 -4.69,5.46 -1.33,2.1 -2.44,4.37 -3.3,6.85 -0.88,2.46 -1.52,5.05 -1.95,7.77 -0.43,2.72 -0.64,5.46 -0.64,8.24 0,3.3 0.28,6.38 0.81,9.29 0.54,2.91 1.33,5.59 2.31,8.03 1.01,2.44 2.23,4.65 3.64,6.57 1.43,1.95 3.02,3.6 4.8,4.95 1.76,1.35 3.68,2.38 5.74,3.08 2.06,0.73 4.22,1.07 6.51,1.07 1.58,0 3.21,-0.17 4.9,-0.51 1.69,-0.34 3.38,-0.88 5.14,-1.63 1.73,-0.75 3.47,-1.69 5.25,-2.83 1.76,-1.13 3.53,-2.51 5.29,-4.09 0.17,0.08 0.36,0.19 0.58,0.32 0.21,0.11 0.43,0.26 0.6,0.41 0.19,0.17 0.36,0.34 0.49,0.54 0.13,0.17 0.21,0.36 0.21,0.56 0,0.13 -0.09,0.3 -0.26,0.54 -2.05,2.25 -4.13,4.15 -6.21,5.67 -2.1,1.52 -4.2,2.76 -6.32,3.7 -2.1,0.94 -4.24,1.61 -6.38,2.01 -2.14,0.41 -4.28,0.62 -6.4,0.62 -2.83,0 -5.52,-0.39 -8.07,-1.18 -2.57,-0.79 -4.95,-1.91 -7.15,-3.38 -2.18,-1.46 -4.18,-3.23 -5.95,-5.31 -1.78,-2.08 -3.3,-4.41 -4.54,-7 -1.26,-2.59 -2.23,-5.42 -2.91,-8.46 -0.68,-3.04 -1.03,-6.25 -1.03,-9.64 0,-3.28 0.34,-6.55 1.01,-9.85 0.64,-3.3 1.63,-6.44 2.93,-9.44 1.3,-3.02 2.95,-5.82 4.92,-8.43 1.99,-2.63 4.28,-4.9 6.92,-6.83 2.63,-1.93 5.61,-3.45 8.91,-4.54 3.32,-1.11 6.96,-1.65 10.92,-1.65zm26.1 55.73c0,-2.12 0.21,-4.26 0.66,-6.44 0.43,-2.16 1.09,-4.28 1.95,-6.32 0.86,-2.03 1.91,-3.94 3.17,-5.74 1.26,-1.78 2.72,-3.34 4.39,-4.69 1.65,-1.33 3.49,-2.4 5.5,-3.17 2.03,-0.77 4.24,-1.16 6.64,-1.16 2.68,0 5.03,0.56 7.09,1.69 2.08,1.13 3.79,2.61 5.2,4.48 1.39,1.84 2.46,3.96 3.17,6.32 0.73,2.36 1.09,4.78 1.09,7.24 0,2.12 -0.21,4.26 -0.66,6.44 -0.43,2.16 -1.09,4.28 -1.95,6.32 -0.88,2.03 -1.95,3.94 -3.21,5.74 -1.26,1.78 -2.72,3.34 -4.37,4.69 -1.65,1.33 -3.49,2.4 -5.52,3.17 -2.03,0.77 -4.24,1.16 -6.62,1.16 -2.68,0 -5.05,-0.56 -7.11,-1.69 -2.05,-1.13 -3.79,-2.61 -5.18,-4.47 -1.37,-1.84 -2.44,-3.96 -3.15,-6.32 -0.73,-2.35 -1.09,-4.78 -1.09,-7.24zm7.49 -2.98c0,1.41 0.11,2.85 0.34,4.32 0.21,1.46 0.56,2.87 1.01,4.22 0.47,1.37 1.03,2.63 1.71,3.81 0.69,1.2 1.48,2.23 2.42,3.1 0.92,0.88 1.97,1.56 3.13,2.06 1.16,0.51 2.44,0.77 3.85,0.77 1.52,0 2.87,-0.34 4.03,-1.01 1.16,-0.64 2.16,-1.52 3,-2.61 0.86,-1.09 1.56,-2.33 2.12,-3.73 0.56,-1.41 0.98,-2.85 1.33,-4.35 0.34,-1.5 0.58,-2.98 0.71,-4.43 0.13,-1.48 0.19,-2.83 0.19,-4.05 0,-1.46 -0.11,-2.89 -0.32,-4.35 -0.22,-1.46 -0.56,-2.87 -1.03,-4.22 -0.45,-1.35 -1.03,-2.61 -1.69,-3.79 -0.68,-1.18 -1.5,-2.2 -2.42,-3.06 -0.94,-0.88 -1.99,-1.56 -3.15,-2.06 -1.16,-0.51 -2.44,-0.75 -3.83,-0.75 -1.52,0 -2.87,0.32 -4.03,0.96 -1.18,0.64 -2.16,1.52 -3.02,2.61 -0.86,1.07 -1.54,2.31 -2.1,3.73 -0.56,1.39 -1.01,2.85 -1.33,4.33 -0.34,1.48 -0.58,2.95 -0.71,4.43 -0.15,1.48 -0.22,2.83 -0.22,4.05zm44.32 -15.07c0,-0.86 -0.07,-1.56 -0.19,-2.16 -0.13,-0.58 -0.32,-1.05 -0.58,-1.39 -0.28,-0.34 -0.6,-0.58 -0.98,-0.73 -0.41,-0.15 -0.88,-0.24 -1.41,-0.24 -0.77,0 -1.67,0.11 -2.7,0.32 -1.05,0.21 -2.25,0.49 -3.57,0.86l-0.47 -2.27c1.48,-0.51 2.91,-0.99 4.28,-1.41 1.37,-0.43 2.61,-0.81 3.77,-1.11 1.16,-0.32 2.16,-0.56 3.04,-0.73 0.88,-0.17 1.56,-0.26 2.08,-0.26 1.22,0 2.16,0.36 2.83,1.09 0.69,0.71 1.03,1.95 1.03,3.7 0,0.21 -0.02,0.71 -0.07,1.46 -0.04,0.77 -0.08,1.73 -0.17,2.91 -0.06,1.18 -0.15,2.51 -0.26,4.03 -0.11,1.52 -0.24,3.13 -0.36,4.84 -0.15,1.73 -0.3,3.49 -0.45,5.33 -0.17,1.82 -0.36,3.64 -0.54,5.46l0.17 0.04c1.61,-5.4 3.3,-9.96 5.12,-13.66 1.82,-3.7 3.68,-6.72 5.55,-9.04 1.88,-2.31 3.77,-3.98 5.63,-5.01 1.86,-1.01 3.64,-1.52 5.33,-1.52 1.16,0 2.29,0.22 3.38,0.64 1.09,0.45 2.05,1.16 2.89,2.1 0.86,0.96 1.52,2.2 2.03,3.73 0.49,1.52 0.75,3.36 0.75,5.5 0,0.62 -0.04,1.48 -0.11,2.53 -0.07,1.05 -0.17,2.23 -0.26,3.53 -0.11,1.29 -0.24,2.68 -0.36,4.11 -0.15,1.46 -0.26,2.89 -0.36,4.28 -0.11,1.41 -0.19,2.74 -0.28,4 -0.06,1.26 -0.11,2.38 -0.11,3.32 0,1.63 0.06,2.95 0.21,3.98 0.13,1.03 0.36,1.82 0.66,2.42 0.32,0.6 0.73,1.01 1.26,1.22 0.51,0.24 1.16,0.34 1.91,0.34 1.09,0 2.23,-0.15 3.38,-0.45 1.18,-0.32 2.35,-0.73 3.56,-1.29l0.6 1.63c-0.75,0.62 -1.71,1.24 -2.87,1.86 -1.13,0.62 -2.35,1.2 -3.62,1.71 -1.26,0.54 -2.53,0.96 -3.77,1.29 -1.26,0.32 -2.38,0.47 -3.34,0.47 -1.11,0 -2.01,-0.3 -2.66,-0.9 -0.64,-0.6 -1.13,-1.43 -1.46,-2.48 -0.32,-1.05 -0.54,-2.27 -0.62,-3.66 -0.11,-1.41 -0.15,-2.91 -0.15,-4.52 0,-1.97 0.06,-3.98 0.21,-6.08 0.13,-2.08 0.28,-4.05 0.45,-5.93 0.17,-1.88 0.32,-3.6 0.45,-5.14 0.13,-1.52 0.21,-2.76 0.21,-3.68 0,-2.44 -0.47,-4.24 -1.39,-5.4 -0.92,-1.18 -2.14,-1.76 -3.66,-1.76 -1.22,0 -2.51,0.51 -3.83,1.54 -1.35,1.03 -2.68,2.44 -4,4.22 -1.33,1.8 -2.59,3.9 -3.83,6.34 -1.22,2.44 -2.31,5.07 -3.3,7.9 -0.98,2.83 -1.8,5.8 -2.44,8.89 -0.66,3.1 -1.07,6.19 -1.22,9.29l-6.57 0.81 -0.49 -0.02c0.17,-1.99 0.32,-4.15 0.47,-6.51 0.15,-2.33 0.28,-4.71 0.41,-7.13 0.13,-2.42 0.24,-4.8 0.32,-7.17 0.11,-2.38 0.19,-4.6 0.26,-6.66 0.08,-2.05 0.13,-3.9 0.15,-5.52 0.04,-1.65 0.07,-2.93 0.07,-3.88zm53.83 24.75c0.13,1.58 0.56,2.96 1.26,4.11 0.71,1.16 1.56,2.1 2.59,2.83 1.03,0.73 2.16,1.26 3.4,1.63 1.24,0.36 2.48,0.53 3.7,0.53 1.16,0 2.27,-0.15 3.34,-0.47 1.05,-0.32 1.99,-0.77 2.81,-1.35 0.81,-0.58 1.48,-1.31 1.97,-2.16 0.49,-0.86 0.73,-1.82 0.73,-2.89 0,-1.11 -0.26,-2.08 -0.77,-2.91 -0.54,-0.84 -1.22,-1.61 -2.1,-2.29 -0.88,-0.69 -1.91,-1.33 -3.06,-1.91 -1.16,-0.6 -2.38,-1.2 -3.62,-1.8 -1.11,-0.51 -2.23,-1.05 -3.34,-1.59 -1.13,-0.53 -2.21,-1.11 -3.25,-1.73 -1.05,-0.62 -2.03,-1.31 -2.93,-2.03 -0.92,-0.75 -1.71,-1.54 -2.38,-2.44 -0.68,-0.88 -1.22,-1.88 -1.61,-2.98 -0.39,-1.09 -0.58,-2.31 -0.58,-3.66 0,-1.44 0.26,-2.76 0.75,-3.98 0.49,-1.2 1.18,-2.29 2.06,-3.28 0.86,-0.96 1.86,-1.82 3.02,-2.55 1.13,-0.73 2.36,-1.35 3.64,-1.84 1.31,-0.49 2.63,-0.86 4,-1.09 1.37,-0.24 2.7,-0.36 4,-0.36 1.67,0 3.25,0.19 4.75,0.56 1.48,0.36 2.8,0.9 3.92,1.59 1.11,0.71 2.01,1.56 2.66,2.57 0.66,1.01 0.98,2.12 0.98,3.38 0,0.47 -0.09,1.01 -0.24,1.56 -0.17,0.58 -0.45,1.09 -0.86,1.58 -0.39,0.49 -0.92,0.9 -1.56,1.24 -0.64,0.34 -1.43,0.51 -2.38,0.54 -0.88,0 -1.8,-0.13 -2.76,-0.41l-0.11 -0.32c0.3,-0.66 0.51,-1.28 0.64,-1.84 0.11,-0.58 0.17,-1.09 0.17,-1.56 -0.02,-0.96 -0.26,-1.78 -0.73,-2.44 -0.47,-0.66 -1.07,-1.2 -1.78,-1.61 -0.71,-0.43 -1.5,-0.73 -2.35,-0.92 -0.88,-0.19 -1.73,-0.28 -2.57,-0.28 -1.48,0 -2.8,0.19 -3.98,0.6 -1.16,0.39 -2.16,0.92 -2.96,1.58 -0.81,0.66 -1.43,1.39 -1.86,2.23 -0.43,0.86 -0.64,1.71 -0.64,2.61 0,1.16 0.3,2.18 0.92,3.08 0.6,0.92 1.41,1.76 2.42,2.53 0.98,0.75 2.14,1.48 3.45,2.14 1.3,0.66 2.68,1.33 4.11,2.01 1.58,0.75 3.17,1.52 4.73,2.33 1.56,0.79 2.95,1.71 4.2,2.74 1.24,1.03 2.23,2.2 3,3.53 0.77,1.33 1.13,2.89 1.13,4.69 0,2.14 -0.47,4.07 -1.41,5.74 -0.96,1.67 -2.23,3.08 -3.81,4.24 -1.59,1.13 -3.43,2.01 -5.48,2.61 -2.05,0.6 -4.2,0.9 -6.4,0.9 -1.11,0 -2.27,-0.09 -3.45,-0.26 -1.18,-0.17 -2.31,-0.43 -3.43,-0.75 -1.11,-0.34 -2.16,-0.75 -3.15,-1.24 -1.01,-0.49 -1.86,-1.05 -2.61,-1.69 -0.75,-0.64 -1.33,-1.35 -1.76,-2.14 -0.43,-0.77 -0.64,-1.65 -0.64,-2.59 0,-0.81 0.17,-1.5 0.51,-2.06 0.34,-0.58 0.79,-1.03 1.37,-1.39 0.56,-0.34 1.2,-0.62 1.88,-0.79 0.71,-0.17 1.44,-0.28 2.16,-0.3l0.26 0.21zm45.5 -27.94c0,1.41 -0.06,2.93 -0.15,4.56 -0.08,1.63 -0.21,3.28 -0.34,4.95 -0.13,1.67 -0.28,3.34 -0.45,4.99 -0.15,1.67 -0.3,3.25 -0.43,4.73 -0.13,1.48 -0.26,2.85 -0.34,4.09 -0.08,1.24 -0.15,2.29 -0.15,3.13 0,2.48 0.47,4.3 1.41,5.46 0.94,1.13 2.2,1.71 3.77,1.71 1.78,0 3.6,-0.94 5.46,-2.87 1.86,-1.91 3.64,-4.71 5.33,-8.39 1.69,-3.66 3.13,-7.81 4.33,-12.4 1.2,-4.58 1.95,-9.53 2.29,-14.86l6.66 -0.81 0.49 0.04c-0.19,1.99 -0.36,4.09 -0.51,6.32 -0.17,2.23 -0.3,4.45 -0.43,6.68 -0.13,2.23 -0.21,4.41 -0.28,6.53 -0.07,2.14 -0.11,4.11 -0.11,5.91 0,3.4 0.21,6.19 0.6,8.35 0.41,2.16 0.92,3.88 1.54,5.12 0.62,1.24 1.35,2.1 2.14,2.57 0.81,0.47 1.63,0.71 2.44,0.71 0.47,0 0.96,-0.07 1.43,-0.19 0.47,-0.13 0.9,-0.28 1.33,-0.45 0.41,-0.17 0.79,-0.36 1.13,-0.58 0.34,-0.21 0.64,-0.41 0.9,-0.56l1.03 1.44c-0.6,0.62 -1.29,1.22 -2.06,1.78 -0.77,0.56 -1.61,1.03 -2.46,1.44 -0.86,0.41 -1.76,0.73 -2.7,0.96 -0.92,0.24 -1.88,0.34 -2.85,0.34 -1.2,0 -2.38,-0.24 -3.53,-0.73 -1.13,-0.47 -2.14,-1.29 -3.02,-2.42 -0.88,-1.11 -1.58,-2.63 -2.12,-4.52 -0.54,-1.86 -0.79,-4.22 -0.79,-7.02 0,-0.9 0.02,-1.8 0.06,-2.72 0.04,-0.92 0.11,-1.88 0.17,-2.91 0.08,-1.03 0.21,-2.14 0.34,-3.32 0.13,-1.18 0.3,-2.48 0.49,-3.9l-0.36 -0.06c-1.41,5.25 -2.95,9.66 -4.62,13.21 -1.65,3.55 -3.36,6.4 -5.1,8.59 -1.76,2.16 -3.51,3.73 -5.27,4.65 -1.76,0.94 -3.43,1.41 -5.01,1.41 -1.2,0 -2.34,-0.21 -3.45,-0.62 -1.09,-0.41 -2.06,-1.07 -2.91,-2.01 -0.86,-0.92 -1.54,-2.16 -2.06,-3.68 -0.51,-1.52 -0.77,-3.4 -0.77,-5.63 0,-1.48 0.08,-3.17 0.24,-5.12 0.17,-1.93 0.36,-3.98 0.56,-6.17 0.19,-2.18 0.39,-4.45 0.56,-6.77 0.17,-2.33 0.24,-4.65 0.24,-6.94 0,-0.9 -0.02,-1.71 -0.08,-2.38 -0.07,-0.66 -0.19,-1.22 -0.41,-1.65 -0.22,-0.45 -0.51,-0.77 -0.92,-0.98 -0.41,-0.21 -0.96,-0.32 -1.69,-0.32 -0.71,0 -1.63,0.11 -2.76,0.32 -1.13,0.21 -2.33,0.49 -3.6,0.86l-0.47 -2.27c1.71,-0.6 3.32,-1.13 4.77,-1.59 1.48,-0.45 2.81,-0.81 3.96,-1.11 1.16,-0.28 2.14,-0.51 2.95,-0.66 0.79,-0.13 1.39,-0.21 1.76,-0.21 0.77,0 1.37,0.15 1.86,0.41 0.47,0.28 0.86,0.66 1.16,1.2 0.3,0.51 0.49,1.16 0.62,1.88 0.11,0.73 0.17,1.56 0.17,2.51zm55.84 -44.92c-0.43,3.55 -0.84,7.21 -1.24,10.94 -0.41,3.73 -0.79,7.49 -1.18,11.33 -0.36,3.81 -0.71,7.64 -1.01,11.5 -0.32,3.83 -0.6,7.62 -0.81,11.37 -0.24,3.73 -0.41,7.39 -0.54,10.98 -0.13,3.6 -0.19,7.05 -0.19,10.34 0,2.08 0.02,3.85 0.08,5.33 0.04,1.5 0.13,2.74 0.24,3.77 0.13,1.03 0.28,1.86 0.47,2.48 0.21,0.62 0.45,1.11 0.75,1.44 0.28,0.34 0.64,0.56 1.03,0.68 0.41,0.11 0.88,0.17 1.41,0.17 1.01,0 2.08,-0.15 3.25,-0.45 1.16,-0.32 2.33,-0.73 3.51,-1.29l0.6 1.63c-0.75,0.62 -1.69,1.24 -2.83,1.86 -1.13,0.62 -2.33,1.2 -3.6,1.71 -1.26,0.54 -2.48,0.96 -3.68,1.29 -1.2,0.32 -2.25,0.47 -3.13,0.47 -1.13,0 -2.01,-0.28 -2.68,-0.86 -0.66,-0.58 -1.16,-1.5 -1.5,-2.81 -0.34,-1.29 -0.58,-2.98 -0.66,-5.07 -0.11,-2.08 -0.15,-4.6 -0.15,-7.6 0,-1.09 0.04,-2.63 0.11,-4.65 0.06,-2.01 0.15,-4.37 0.26,-7.04 0.13,-2.68 0.26,-5.61 0.39,-8.78 0.15,-3.19 0.32,-6.47 0.47,-9.87 0.17,-3.4 0.34,-6.83 0.53,-10.28 0.19,-3.47 0.39,-6.81 0.58,-10.04 0.17,-3.23 0.36,-6.27 0.54,-9.14 0.15,-2.87 0.32,-5.4 0.47,-7.6 0.02,-0.49 0.15,-0.92 0.43,-1.28 0.28,-0.39 0.62,-0.66 1.05,-0.88 0.43,-0.24 0.92,-0.39 1.46,-0.49 0.51,-0.11 1.07,-0.17 1.61,-0.17 1.26,0 2.57,0.34 3.96,1.01zm25.71 16.38c-0.88,3.98 -1.61,8.07 -2.2,12.31 -0.6,4.24 -1.11,8.42 -1.52,12.53 0.98,0.04 1.93,0.08 2.87,0.11 0.92,0.02 1.8,0.02 2.59,0.04 0.81,0.02 1.54,0.04 2.21,0.04 0.66,0 1.2,0 1.65,0 1.91,0 3.45,-0.11 4.67,-0.34 0.11,0.34 0.19,0.69 0.26,0.96 0.06,0.3 0.08,0.58 0.08,0.81 0,0.92 -0.39,1.52 -1.13,1.8 -0.77,0.28 -1.86,0.41 -3.32,0.41 -1.37,0 -2.91,-0.09 -4.62,-0.26 -1.69,-0.17 -3.58,-0.32 -5.59,-0.47 -0.24,2.25 -0.43,4.41 -0.58,6.55 -0.17,2.12 -0.3,4.11 -0.39,6 -0.09,1.88 -0.17,3.64 -0.21,5.25 -0.04,1.61 -0.04,3 -0.04,4.2 0,2.25 0.11,4.24 0.34,6 0.21,1.76 0.62,3.23 1.22,4.48 0.58,1.22 1.39,2.14 2.42,2.8 1.01,0.64 2.31,0.96 3.88,0.96 1.13,0 2.4,-0.19 3.79,-0.6 1.39,-0.39 2.98,-1.03 4.75,-1.91 0.56,0.56 0.88,1.24 0.96,2.08 -1.31,0.86 -2.61,1.63 -3.92,2.33 -1.33,0.69 -2.61,1.29 -3.9,1.8 -1.26,0.49 -2.51,0.88 -3.7,1.16 -1.18,0.28 -2.31,0.41 -3.38,0.41 -1.39,0 -2.68,-0.26 -3.83,-0.77 -1.16,-0.51 -2.16,-1.41 -3.02,-2.72 -0.84,-1.3 -1.5,-3.06 -1.97,-5.29 -0.47,-2.23 -0.71,-5.01 -0.71,-8.42 0,-1.88 0.02,-3.85 0.08,-5.87 0.07,-2.03 0.15,-4.07 0.26,-6.15 0.11,-2.06 0.24,-4.13 0.41,-6.21 0.17,-2.06 0.36,-4.11 0.56,-6.1 -1.65,0.02 -3.17,0.08 -4.58,0.19 -1.41,0.13 -2.61,0.3 -3.62,0.56 -0.06,-0.13 -0.11,-0.28 -0.11,-0.45 0,-0.43 0.21,-0.83 0.64,-1.24 0.43,-0.39 1.03,-0.73 1.8,-1.05 0.75,-0.3 1.67,-0.56 2.74,-0.77 1.07,-0.22 2.23,-0.36 3.51,-0.45 0.47,-4.37 0.98,-8.5 1.54,-12.38 0.53,-3.9 1.09,-7.37 1.63,-10.43 0.11,-0.54 0.3,-0.98 0.58,-1.35 0.28,-0.34 0.62,-0.62 0.98,-0.84 0.39,-0.21 0.79,-0.36 1.22,-0.45 0.45,-0.08 0.88,-0.13 1.28,-0.13 0.71,0 1.33,0.09 1.88,0.24 0.54,0.15 1.07,0.34 1.54,0.62zm14.05 49.78c0,-2.12 0.21,-4.26 0.66,-6.44 0.43,-2.16 1.09,-4.28 1.95,-6.32 0.86,-2.03 1.91,-3.94 3.17,-5.74 1.26,-1.78 2.72,-3.34 4.39,-4.69 1.65,-1.33 3.49,-2.4 5.5,-3.17 2.03,-0.77 4.24,-1.16 6.64,-1.16 2.68,0 5.03,0.56 7.09,1.69 2.08,1.13 3.79,2.61 5.2,4.48 1.39,1.84 2.46,3.96 3.17,6.32 0.73,2.36 1.09,4.78 1.09,7.24 0,2.12 -0.21,4.26 -0.66,6.44 -0.43,2.16 -1.09,4.28 -1.95,6.32 -0.88,2.03 -1.95,3.94 -3.21,5.74 -1.26,1.78 -2.72,3.34 -4.37,4.69 -1.65,1.33 -3.49,2.4 -5.52,3.17 -2.03,0.77 -4.24,1.16 -6.62,1.16 -2.68,0 -5.05,-0.56 -7.11,-1.69 -2.05,-1.13 -3.79,-2.61 -5.18,-4.47 -1.37,-1.84 -2.44,-3.96 -3.15,-6.32 -0.73,-2.35 -1.09,-4.78 -1.09,-7.24zm7.49 -2.98c0,1.41 0.11,2.85 0.34,4.32 0.21,1.46 0.56,2.87 1.01,4.22 0.47,1.37 1.03,2.63 1.71,3.81 0.69,1.2 1.48,2.23 2.42,3.1 0.92,0.88 1.97,1.56 3.13,2.06 1.16,0.51 2.44,0.77 3.85,0.77 1.52,0 2.87,-0.34 4.03,-1.01 1.16,-0.64 2.16,-1.52 3,-2.61 0.86,-1.09 1.56,-2.33 2.12,-3.73 0.56,-1.41 0.98,-2.85 1.33,-4.35 0.34,-1.5 0.58,-2.98 0.71,-4.43 0.13,-1.48 0.19,-2.83 0.19,-4.05 0,-1.46 -0.11,-2.89 -0.32,-4.35 -0.22,-1.46 -0.56,-2.87 -1.03,-4.22 -0.45,-1.35 -1.03,-2.61 -1.69,-3.79 -0.68,-1.18 -1.5,-2.2 -2.42,-3.06 -0.94,-0.88 -1.99,-1.56 -3.15,-2.06 -1.16,-0.51 -2.44,-0.75 -3.83,-0.75 -1.52,0 -2.87,0.32 -4.03,0.96 -1.18,0.64 -2.16,1.52 -3.02,2.61 -0.86,1.07 -1.54,2.31 -2.1,3.73 -0.56,1.39 -1.01,2.85 -1.33,4.33 -0.34,1.48 -0.58,2.95 -0.71,4.43 -0.15,1.48 -0.22,2.83 -0.22,4.05zm43.15 21.82l-0.49 -0.02c0.17,-1.99 0.32,-4.15 0.47,-6.51 0.15,-2.33 0.28,-4.71 0.41,-7.13 0.13,-2.42 0.24,-4.8 0.32,-7.17 0.11,-2.38 0.19,-4.6 0.26,-6.66 0.08,-2.05 0.13,-3.9 0.15,-5.52 0.04,-1.65 0.07,-2.93 0.07,-3.88 0,-0.77 -0.04,-1.44 -0.11,-1.99 -0.06,-0.58 -0.19,-1.05 -0.43,-1.41 -0.21,-0.39 -0.54,-0.66 -0.94,-0.83 -0.43,-0.17 -0.98,-0.28 -1.69,-0.28 -0.36,0 -0.73,0.02 -1.11,0.07 -0.36,0.04 -0.79,0.11 -1.24,0.19 -0.47,0.08 -0.98,0.19 -1.56,0.34 -0.58,0.13 -1.24,0.28 -1.99,0.47l-0.47 -2.25c3.47,-1.26 6.3,-2.14 8.44,-2.66 2.16,-0.51 3.62,-0.77 4.37,-0.77 1.37,0 2.38,0.41 2.95,1.22 0.6,0.79 0.9,1.99 0.9,3.57 0,0.15 -0.02,0.58 -0.07,1.29 -0.04,0.73 -0.08,1.65 -0.17,2.78 -0.06,1.13 -0.15,2.46 -0.26,3.96 -0.11,1.52 -0.24,3.13 -0.36,4.86 -0.15,1.71 -0.3,3.51 -0.45,5.4 -0.17,1.86 -0.36,3.73 -0.54,5.59l0.3 0.02c1.01,-4.09 2.14,-7.9 3.4,-11.45 1.26,-3.53 2.7,-6.62 4.26,-9.23 1.59,-2.61 3.32,-4.67 5.23,-6.17 1.88,-1.5 3.96,-2.25 6.21,-2.25 0.81,0 1.54,0.13 2.23,0.39 0.71,0.24 1.29,0.6 1.8,1.05 0.49,0.45 0.9,0.98 1.2,1.58 0.28,0.62 0.43,1.31 0.43,2.03 0,0.94 -0.19,1.84 -0.6,2.72 -0.43,0.86 -1.07,1.63 -1.95,2.29l-0.24 0c-0.88,-0.73 -1.71,-1.26 -2.51,-1.58 -0.77,-0.32 -1.61,-0.47 -2.48,-0.47 -0.94,0 -1.86,0.17 -2.74,0.54 -0.88,0.34 -1.67,0.86 -2.4,1.52 -1.2,1.09 -2.31,2.53 -3.34,4.33 -1.03,1.78 -1.95,3.77 -2.81,5.93 -0.83,2.18 -1.61,4.47 -2.29,6.85 -0.66,2.4 -1.26,4.73 -1.76,7 -0.49,2.27 -0.88,4.41 -1.18,6.4 -0.32,1.99 -0.54,3.66 -0.64,5.03l-6.57 0.81z"/>
   <path class="fil1" d="M717.66 132.75c-0.73,0 -1.39,-0.15 -1.95,-0.45 -0.56,-0.32 -1.05,-0.71 -1.44,-1.2 -0.41,-0.49 -0.71,-1.05 -0.92,-1.69 -0.21,-0.64 -0.3,-1.31 -0.3,-1.97 0,-0.94 0.15,-1.78 0.47,-2.48 0.3,-0.73 0.71,-1.33 1.22,-1.82 0.49,-0.49 1.05,-0.86 1.65,-1.09 0.62,-0.26 1.2,-0.36 1.8,-0.36 0.71,0 1.35,0.13 1.91,0.39 0.56,0.26 1.05,0.62 1.46,1.09 0.41,0.45 0.73,0.99 0.94,1.59 0.21,0.58 0.34,1.22 0.34,1.93 0,0.73 -0.13,1.46 -0.39,2.16 -0.26,0.73 -0.6,1.39 -1.05,1.97 -0.45,0.58 -0.98,1.05 -1.63,1.41 -0.64,0.36 -1.35,0.53 -2.12,0.53zm2.72 14.18c-0.34,2.38 -0.64,4.78 -0.9,7.17 -0.26,2.38 -0.45,4.71 -0.62,6.94 -0.15,2.25 -0.26,4.37 -0.34,6.36 -0.06,1.99 -0.11,3.79 -0.11,5.4 0,2.18 0.04,4.05 0.08,5.61 0.07,1.56 0.17,2.87 0.32,3.94 0.15,1.07 0.32,1.91 0.56,2.55 0.21,0.64 0.49,1.13 0.81,1.48 0.32,0.34 0.71,0.58 1.13,0.66 0.43,0.11 0.9,0.17 1.46,0.17 1.01,0 2.08,-0.15 3.23,-0.45 1.16,-0.32 2.34,-0.73 3.53,-1.29l0.6 1.63c-0.75,0.62 -1.69,1.24 -2.85,1.86 -1.13,0.62 -2.33,1.2 -3.58,1.71 -1.26,0.54 -2.48,0.96 -3.7,1.29 -1.2,0.32 -2.23,0.47 -3.1,0.47 -0.6,0 -1.13,-0.04 -1.61,-0.13 -0.47,-0.11 -0.92,-0.34 -1.31,-0.71 -0.39,-0.39 -0.73,-0.94 -1.03,-1.67 -0.3,-0.73 -0.56,-1.71 -0.75,-2.98 -0.21,-1.24 -0.36,-2.83 -0.47,-4.71 -0.08,-1.88 -0.15,-4.15 -0.15,-6.83 0,-1.56 0.02,-3.34 0.04,-5.31 0.04,-1.99 0.08,-4.11 0.15,-6.38 0.06,-2.27 0.15,-4.65 0.26,-7.17 0.11,-2.53 0.24,-5.12 0.41,-7.79 0.04,-0.58 0.19,-1.07 0.47,-1.43 0.26,-0.36 0.6,-0.64 1.01,-0.83 0.39,-0.22 0.81,-0.34 1.26,-0.41 0.45,-0.08 0.86,-0.11 1.24,-0.11 1.39,0 2.72,0.32 3.94,0.96zm38.56 11.88c0,-1.65 -0.28,-3.08 -0.81,-4.3 -0.56,-1.2 -1.26,-2.2 -2.14,-2.98 -0.88,-0.77 -1.86,-1.35 -2.98,-1.71 -1.11,-0.39 -2.23,-0.58 -3.32,-0.58 -1.5,0 -2.74,0.17 -3.77,0.47 -1.03,0.32 -1.86,0.75 -2.51,1.29 -0.62,0.56 -1.09,1.2 -1.37,1.93 -0.28,0.75 -0.43,1.54 -0.43,2.42 0,0.98 0.19,2.01 0.56,3.02 0.36,1.01 0.9,1.99 1.61,2.96l-0.13 0.34c-1.18,0.6 -2.38,0.88 -3.6,0.88 -0.71,0 -1.37,-0.11 -1.99,-0.32 -0.62,-0.21 -1.16,-0.54 -1.61,-0.96 -0.45,-0.41 -0.79,-0.92 -1.07,-1.52 -0.26,-0.62 -0.39,-1.28 -0.39,-2.05 0,-1.22 0.3,-2.38 0.9,-3.47 0.6,-1.09 1.39,-2.08 2.35,-2.98 0.98,-0.9 2.14,-1.71 3.43,-2.42 1.3,-0.71 2.63,-1.31 4.02,-1.8 1.37,-0.49 2.76,-0.88 4.15,-1.13 1.39,-0.26 2.68,-0.39 3.88,-0.39 2.18,0 4.07,0.28 5.63,0.88 1.54,0.58 2.81,1.43 3.79,2.55 0.96,1.11 1.67,2.46 2.12,4.07 0.45,1.59 0.69,3.38 0.69,5.4 0,1.37 -0.07,2.89 -0.17,4.54 -0.11,1.65 -0.26,3.38 -0.39,5.18 -0.15,1.82 -0.28,3.68 -0.41,5.61 -0.11,1.93 -0.17,3.83 -0.17,5.74 0,3.02 0.56,5.27 1.69,6.79 1.11,1.52 2.57,2.27 4.39,2.27 1.63,0 3.43,-0.6 5.4,-1.78l0.92 1.35c-1.41,1.39 -2.93,2.46 -4.58,3.19 -1.65,0.73 -3.38,1.09 -5.2,1.11 -1.37,-0.02 -2.61,-0.24 -3.77,-0.71 -1.16,-0.45 -2.14,-1.13 -2.98,-2.05 -0.83,-0.9 -1.5,-2.06 -1.95,-3.43 -0.45,-1.39 -0.68,-2.98 -0.68,-4.8 0,-0.56 0.02,-1.09 0.04,-1.63 0.02,-0.56 0.11,-1.13 0.21,-1.73l-0.19 0c-0.9,1.8 -1.95,3.58 -3.13,5.31 -1.18,1.76 -2.48,3.32 -3.9,4.69 -1.41,1.37 -2.91,2.46 -4.52,3.32 -1.58,0.83 -3.28,1.26 -5.03,1.26 -1.44,0 -2.76,-0.26 -3.94,-0.75 -1.2,-0.49 -2.23,-1.2 -3.06,-2.08 -0.86,-0.88 -1.5,-1.9 -1.97,-3.1 -0.47,-1.2 -0.71,-2.53 -0.71,-3.94 0,-1.84 0.34,-3.51 1.01,-5.03 0.68,-1.5 1.63,-2.85 2.83,-4.05 1.2,-1.18 2.63,-2.21 4.32,-3.08 1.67,-0.86 3.49,-1.59 5.44,-2.16 1.97,-0.58 4.05,-1.01 6.25,-1.28 2.18,-0.28 4.43,-0.43 6.7,-0.43 0.15,-1.31 0.28,-2.59 0.36,-3.81 0.11,-1.24 0.15,-2.61 0.15,-4.09zm-19.27 21.54c0,0.84 0.11,1.61 0.28,2.36 0.17,0.73 0.45,1.39 0.83,1.95 0.39,0.58 0.88,1.01 1.48,1.33 0.6,0.34 1.33,0.49 2.16,0.49 0.94,0 1.91,-0.21 2.91,-0.66 1.01,-0.43 1.99,-1.05 2.95,-1.82 0.98,-0.77 1.91,-1.69 2.81,-2.76 0.88,-1.09 1.67,-2.25 2.4,-3.53 0.71,-1.29 1.29,-2.61 1.76,-4.03 0.47,-1.41 0.79,-2.87 0.94,-4.35 -1.56,0.04 -3.08,0.13 -4.62,0.3 -1.52,0.15 -2.98,0.41 -4.35,0.73 -1.37,0.34 -2.63,0.77 -3.81,1.33 -1.16,0.54 -2.16,1.22 -3.02,2.01 -0.83,0.81 -1.5,1.76 -1.99,2.87 -0.47,1.09 -0.73,2.35 -0.73,3.79z"/>
  </g>
  <g id="_2310557563920">
   <path class="fil1" d="M427.98 213.79c0,-0.88 -0.07,-1.63 -0.22,-2.25 -0.13,-0.62 -0.39,-1.13 -0.75,-1.52 -0.36,-0.39 -0.86,-0.66 -1.52,-0.86 -0.64,-0.17 -1.48,-0.26 -2.51,-0.26 -0.66,0 -1.41,0.04 -2.25,0.11 -0.86,0.06 -1.8,0.17 -2.87,0.3l-0.34 -2.91c2.06,-0.32 3.96,-0.6 5.72,-0.83 1.76,-0.24 3.4,-0.45 4.93,-0.62 1.54,-0.19 2.98,-0.32 4.32,-0.41 1.33,-0.08 2.59,-0.13 3.79,-0.13 3.3,0 6.44,-0.02 9.4,-0.07 2.95,-0.06 5.59,-0.11 7.88,-0.17 2.27,-0.04 4.15,-0.11 5.63,-0.15 1.48,-0.04 2.38,-0.09 2.72,-0.09 0.96,0 1.69,0.24 2.2,0.69 0.51,0.45 0.77,1.13 0.77,2.08 0,0.39 -0.04,1.11 -0.11,2.2 -0.07,1.09 -0.17,2.33 -0.28,3.75 -0.13,1.41 -0.26,2.89 -0.41,4.47 -0.13,1.56 -0.3,3.02 -0.47,4.39l-3 -0.11c0.04,-0.79 0.06,-1.52 0.09,-2.23 0.02,-0.68 0.04,-1.33 0.04,-1.95 0,-1.76 -0.11,-3.17 -0.32,-4.26 -0.21,-1.11 -0.6,-1.97 -1.13,-2.59 -0.56,-0.64 -1.33,-1.07 -2.29,-1.29 -0.96,-0.24 -2.18,-0.36 -3.66,-0.39 -2.08,-0.02 -3.9,-0.04 -5.46,-0.04 -1.56,-0.02 -3.06,-0.02 -4.52,-0.02l-1.65 0c-0.81,0 -1.61,0 -2.44,0.02 -0.83,0 -1.82,0.04 -3,0.06 -0.04,1.76 -0.09,3.68 -0.13,5.82 -0.06,2.14 -0.13,4.43 -0.19,6.89 -0.04,2.44 -0.13,5.03 -0.19,7.75 -0.06,2.72 -0.15,5.5 -0.24,8.39 2.7,0.13 5.1,0.21 7.17,0.28 2.1,0.04 4.03,0.07 5.8,0.07 2.16,0 4.07,-0.07 5.74,-0.19 1.65,-0.15 3.23,-0.36 4.71,-0.64 0.34,0.92 0.51,1.73 0.51,2.46 0,0.62 -0.19,1.13 -0.58,1.54 -0.36,0.43 -0.9,0.77 -1.58,1.03 -0.71,0.26 -1.54,0.45 -2.53,0.56 -0.96,0.13 -2.08,0.17 -3.28,0.17 -2.16,0 -4.6,-0.11 -7.32,-0.36 -2.74,-0.24 -5.65,-0.53 -8.78,-0.88 -0.04,1.2 -0.08,2.66 -0.15,4.37 -0.06,1.71 -0.15,3.51 -0.21,5.44 -0.08,1.93 -0.19,3.9 -0.3,5.91 -0.13,2.03 -0.24,3.96 -0.34,5.8 -0.13,1.86 -0.26,3.55 -0.39,5.1 -0.13,1.52 -0.28,2.78 -0.43,3.77 2.03,-0.3 4,-0.51 5.93,-0.64 1.93,-0.13 3.66,-0.19 5.25,-0.19 2.18,0 4.24,0.04 6.15,0.17 1.93,0.11 3.81,0.17 5.69,0.17 1.26,0 2.35,-0.17 3.32,-0.54 0.94,-0.34 1.78,-0.94 2.48,-1.84 0.73,-0.88 1.31,-2.08 1.78,-3.6 0.47,-1.5 0.83,-3.4 1.11,-5.74l2.83 0.17c-0.06,3.51 -0.32,6.4 -0.75,8.67 -0.45,2.29 -1.05,4.09 -1.84,5.4 -0.79,1.33 -1.73,2.25 -2.87,2.74 -1.13,0.51 -2.4,0.77 -3.83,0.77 -1.11,0 -2.35,-0.08 -3.73,-0.3 -1.35,-0.21 -2.85,-0.45 -4.45,-0.71 -1.61,-0.26 -3.36,-0.49 -5.22,-0.71 -1.86,-0.22 -3.88,-0.32 -6.04,-0.32 -1.91,0 -4,0.13 -6.3,0.36 -2.29,0.24 -4.62,0.64 -7.02,1.2l-0.58 -0.06c0.32,-2.08 0.6,-4.6 0.83,-7.58 0.24,-2.98 0.45,-6.21 0.64,-9.74 0.19,-3.51 0.34,-7.24 0.47,-11.16 0.13,-3.9 0.24,-7.86 0.32,-11.84 0.09,-3.98 0.13,-7.92 0.17,-11.82 0.02,-3.9 0.04,-7.6 0.04,-11.09zm42.16 20.64c1.48,-0.51 2.91,-0.99 4.28,-1.41 1.37,-0.43 2.61,-0.81 3.77,-1.11 1.16,-0.32 2.16,-0.56 3.04,-0.73 0.88,-0.17 1.56,-0.26 2.08,-0.26 1.22,0 2.16,0.36 2.83,1.09 0.69,0.71 1.03,1.95 1.03,3.7 0,0.43 -0.04,1.33 -0.13,2.68 -0.09,1.37 -0.19,3.1 -0.36,5.16 -0.15,2.08 -0.34,4.45 -0.58,7.11 -0.21,2.66 -0.49,5.46 -0.77,8.46l0.17 0.04c1.48,-5.33 3.04,-9.79 4.69,-13.38 1.65,-3.62 3.34,-6.53 5.05,-8.74 1.71,-2.23 3.42,-3.81 5.16,-4.75 1.73,-0.96 3.43,-1.43 5.05,-1.43 1.46,0 2.68,0.36 3.68,1.07 0.98,0.71 1.8,1.65 2.44,2.78 0.62,1.16 1.09,2.46 1.37,3.92 0.3,1.46 0.45,2.93 0.45,4.43 0,1.33 -0.04,2.72 -0.13,4.2 -0.08,1.46 -0.19,2.91 -0.32,4.35 -0.13,1.43 -0.26,2.8 -0.39,4.09 -0.13,1.29 -0.26,2.4 -0.36,3.36l0.19 0.04c1.46,-5.4 3.02,-9.94 4.69,-13.58 1.65,-3.64 3.36,-6.57 5.07,-8.8 1.73,-2.2 3.47,-3.79 5.2,-4.75 1.73,-0.94 3.4,-1.41 5.03,-1.41 1.05,0 2.08,0.22 3.06,0.64 0.96,0.45 1.84,1.16 2.61,2.12 0.75,0.98 1.37,2.23 1.84,3.75 0.45,1.54 0.69,3.36 0.69,5.52 0,0.6 -0.04,1.43 -0.11,2.51 -0.08,1.05 -0.17,2.23 -0.28,3.51 -0.11,1.31 -0.21,2.68 -0.36,4.13 -0.13,1.46 -0.26,2.87 -0.36,4.28 -0.08,1.39 -0.19,2.74 -0.26,4 -0.06,1.26 -0.11,2.35 -0.11,3.28 0,1.63 0.07,2.95 0.19,3.98 0.15,1.03 0.36,1.82 0.69,2.42 0.32,0.6 0.73,1.01 1.24,1.22 0.54,0.24 1.18,0.34 1.93,0.34 1.09,0 2.21,-0.15 3.38,-0.45 1.18,-0.32 2.35,-0.73 3.55,-1.29l0.58 1.63c-0.75,0.62 -1.69,1.24 -2.85,1.86 -1.16,0.62 -2.36,1.2 -3.62,1.71 -1.26,0.54 -2.53,0.96 -3.79,1.29 -1.24,0.32 -2.35,0.47 -3.32,0.47 -1.13,0 -2.01,-0.3 -2.66,-0.9 -0.66,-0.6 -1.13,-1.43 -1.48,-2.48 -0.32,-1.05 -0.51,-2.27 -0.62,-3.66 -0.08,-1.41 -0.13,-2.91 -0.13,-4.52 0,-1.95 0.07,-3.98 0.19,-6.12 0.13,-2.12 0.3,-4.15 0.45,-6.08 0.17,-1.93 0.32,-3.66 0.47,-5.22 0.13,-1.56 0.19,-2.74 0.19,-3.53 0,-2.27 -0.41,-3.98 -1.2,-5.12 -0.81,-1.13 -1.91,-1.71 -3.28,-1.71 -1.07,0 -2.2,0.51 -3.4,1.52 -1.2,1.01 -2.42,2.42 -3.62,4.2 -1.2,1.78 -2.36,3.88 -3.47,6.27 -1.13,2.42 -2.14,5.03 -3.04,7.86 -0.9,2.83 -1.65,5.78 -2.27,8.86 -0.62,3.08 -1.01,6.17 -1.2,9.27l-6.55 0.81 -0.51 -0.02c0.24,-4.39 0.45,-8.29 0.64,-11.67 0.19,-3.4 0.39,-6.36 0.54,-8.89 0.15,-2.53 0.28,-4.67 0.39,-6.42 0.09,-1.76 0.13,-3.21 0.13,-4.37 0,-2.33 -0.41,-4.11 -1.2,-5.29 -0.81,-1.2 -1.84,-1.8 -3.08,-1.8 -1.11,0 -2.29,0.49 -3.51,1.5 -1.22,0.98 -2.42,2.36 -3.62,4.11 -1.2,1.76 -2.33,3.83 -3.43,6.23 -1.11,2.4 -2.1,4.99 -3,7.77 -0.88,2.78 -1.63,5.7 -2.23,8.78 -0.58,3.06 -0.98,6.15 -1.16,9.25l-6.57 0.81 -0.49 -0.02c0.17,-1.99 0.32,-4.15 0.47,-6.51 0.15,-2.33 0.28,-4.71 0.41,-7.13 0.13,-2.42 0.24,-4.8 0.32,-7.17 0.11,-2.38 0.19,-4.6 0.26,-6.66 0.08,-2.05 0.13,-3.9 0.15,-5.52 0.04,-1.65 0.07,-2.93 0.07,-3.88 0,-0.86 -0.07,-1.56 -0.19,-2.16 -0.13,-0.58 -0.32,-1.05 -0.58,-1.39 -0.28,-0.34 -0.6,-0.58 -0.98,-0.73 -0.41,-0.15 -0.88,-0.24 -1.41,-0.24 -0.77,0 -1.67,0.11 -2.7,0.32 -1.05,0.21 -2.25,0.49 -3.57,0.86l-0.47 -2.27zm78.52 -0.15c2.35,-0.71 4.35,-1.29 6,-1.73 1.65,-0.43 3.04,-0.77 4.15,-1.03 1.11,-0.26 1.99,-0.43 2.63,-0.51 0.64,-0.11 1.11,-0.15 1.44,-0.15 0.51,0 1.01,0.08 1.48,0.24 0.45,0.15 0.86,0.43 1.2,0.81 0.34,0.36 0.62,0.88 0.79,1.52 0.19,0.62 0.3,1.41 0.3,2.36 0,0.32 -0.02,0.94 -0.06,1.86 -0.02,0.92 -0.08,2.18 -0.17,3.81 -0.08,1.61 -0.19,3.6 -0.32,5.95 -0.13,2.35 -0.3,5.12 -0.51,8.29l0.36 0.04c1.65,-4.07 3.4,-7.64 5.29,-10.77 1.91,-3.13 3.81,-5.76 5.78,-7.9 1.95,-2.12 3.9,-3.75 5.85,-4.84 1.95,-1.09 3.79,-1.65 5.54,-1.65 1.44,0 2.68,0.26 3.77,0.79 1.09,0.53 2.03,1.24 2.85,2.14 0.79,0.88 1.48,1.91 2.01,3.08 0.54,1.16 0.98,2.35 1.33,3.62 0.32,1.28 0.56,2.55 0.71,3.85 0.15,1.28 0.24,2.51 0.24,3.64 0,3.06 -0.32,5.95 -0.94,8.63 -0.64,2.68 -1.5,5.12 -2.59,7.34 -1.07,2.23 -2.36,4.22 -3.85,5.97 -1.48,1.76 -3.08,3.23 -4.82,4.45 -1.71,1.2 -3.53,2.12 -5.42,2.74 -1.88,0.64 -3.79,0.96 -5.7,0.96 -2.03,0 -4,-0.36 -5.93,-1.09 -1.93,-0.73 -3.73,-1.95 -5.42,-3.64 -0.24,5.25 -0.47,10.66 -0.69,16.25 -0.24,5.61 -0.36,11.43 -0.39,17.54l-6.59 0.75 -0.64 -0.04c0.3,-3.9 0.6,-8.01 0.88,-12.31 0.26,-4.28 0.51,-8.61 0.75,-12.93 0.24,-4.32 0.43,-8.59 0.62,-12.78 0.19,-4.2 0.34,-8.14 0.47,-11.8 0.13,-3.68 0.24,-7.02 0.3,-10.02 0.08,-3.02 0.11,-5.5 0.11,-7.45 0,-0.79 -0.04,-1.5 -0.13,-2.1 -0.08,-0.6 -0.24,-1.09 -0.47,-1.48 -0.26,-0.41 -0.6,-0.71 -1.05,-0.9 -0.47,-0.19 -1.07,-0.3 -1.82,-0.3 -0.79,0 -1.71,0.09 -2.83,0.26 -1.11,0.17 -2.44,0.45 -4.02,0.84l-0.47 -2.31zm16.25 35.37c1.78,1.52 3.56,2.61 5.31,3.34 1.78,0.71 3.56,1.05 5.33,1.05 2.33,0 4.5,-0.49 6.47,-1.48 1.97,-1.01 3.68,-2.48 5.12,-4.45 1.43,-1.95 2.55,-4.39 3.36,-7.28 0.79,-2.89 1.2,-6.25 1.2,-10.09 0,-1.41 -0.11,-2.89 -0.32,-4.39 -0.24,-1.5 -0.58,-2.87 -1.05,-4.09 -0.47,-1.22 -1.07,-2.23 -1.84,-3.02 -0.77,-0.79 -1.69,-1.18 -2.78,-1.18 -1.26,0 -2.53,0.34 -3.79,0.99 -1.26,0.66 -2.46,1.56 -3.66,2.68 -1.18,1.11 -2.31,2.42 -3.4,3.94 -1.07,1.5 -2.1,3.08 -3.06,4.78 -0.96,1.69 -1.84,3.42 -2.63,5.2 -0.79,1.8 -1.5,3.53 -2.1,5.22 -0.58,1.69 -1.07,3.3 -1.44,4.8 -0.36,1.52 -0.6,2.85 -0.71,3.98zm46.57 7.28l-0.49 -0.02c0.17,-1.99 0.32,-4.15 0.47,-6.51 0.15,-2.33 0.28,-4.71 0.41,-7.13 0.13,-2.42 0.24,-4.8 0.32,-7.17 0.11,-2.38 0.19,-4.6 0.26,-6.66 0.08,-2.05 0.13,-3.9 0.15,-5.52 0.04,-1.65 0.07,-2.93 0.07,-3.88 0,-0.77 -0.04,-1.44 -0.11,-1.99 -0.06,-0.58 -0.19,-1.05 -0.43,-1.41 -0.21,-0.39 -0.54,-0.66 -0.94,-0.83 -0.43,-0.17 -0.98,-0.28 -1.69,-0.28 -0.36,0 -0.73,0.02 -1.11,0.07 -0.36,0.04 -0.79,0.11 -1.24,0.19 -0.47,0.08 -0.98,0.19 -1.56,0.34 -0.58,0.13 -1.24,0.28 -1.99,0.47l-0.47 -2.25c3.47,-1.26 6.3,-2.14 8.44,-2.66 2.16,-0.51 3.62,-0.77 4.37,-0.77 1.37,0 2.38,0.41 2.95,1.22 0.6,0.79 0.9,1.99 0.9,3.57 0,0.15 -0.02,0.58 -0.07,1.29 -0.04,0.73 -0.08,1.65 -0.17,2.78 -0.06,1.13 -0.15,2.46 -0.26,3.96 -0.11,1.52 -0.24,3.13 -0.36,4.86 -0.15,1.71 -0.3,3.51 -0.45,5.4 -0.17,1.86 -0.36,3.73 -0.54,5.59l0.3 0.02c1.01,-4.09 2.14,-7.9 3.4,-11.45 1.26,-3.53 2.7,-6.62 4.26,-9.23 1.59,-2.61 3.32,-4.67 5.23,-6.17 1.88,-1.5 3.96,-2.25 6.21,-2.25 0.81,0 1.54,0.13 2.23,0.39 0.71,0.24 1.29,0.6 1.8,1.05 0.49,0.45 0.9,0.98 1.2,1.58 0.28,0.62 0.43,1.31 0.43,2.03 0,0.94 -0.19,1.84 -0.6,2.72 -0.43,0.86 -1.07,1.63 -1.95,2.29l-0.24 0c-0.88,-0.73 -1.71,-1.26 -2.51,-1.58 -0.77,-0.32 -1.61,-0.47 -2.48,-0.47 -0.94,0 -1.86,0.17 -2.74,0.54 -0.88,0.34 -1.67,0.86 -2.4,1.52 -1.2,1.09 -2.31,2.53 -3.34,4.33 -1.03,1.78 -1.95,3.77 -2.81,5.93 -0.83,2.18 -1.61,4.47 -2.29,6.85 -0.66,2.4 -1.26,4.73 -1.76,7 -0.49,2.27 -0.88,4.41 -1.18,6.4 -0.32,1.99 -0.54,3.66 -0.64,5.03l-6.57 0.81zm63.72 -10.53c0.11,0.06 0.28,0.15 0.47,0.26 0.19,0.13 0.39,0.26 0.56,0.39 0.17,0.13 0.32,0.28 0.43,0.43 0.13,0.17 0.19,0.32 0.19,0.47 0,0.08 -0.02,0.15 -0.09,0.24 -1.18,1.65 -2.44,3.06 -3.79,4.26 -1.35,1.2 -2.74,2.2 -4.2,3 -1.46,0.81 -2.93,1.41 -4.43,1.8 -1.52,0.39 -3,0.58 -4.45,0.58 -2.51,0 -4.82,-0.51 -6.92,-1.54 -2.08,-1.03 -3.88,-2.42 -5.37,-4.2 -1.52,-1.78 -2.7,-3.85 -3.53,-6.25 -0.86,-2.4 -1.29,-4.97 -1.29,-7.71 0,-2.23 0.26,-4.48 0.75,-6.7 0.49,-2.25 1.2,-4.37 2.12,-6.4 0.94,-2.03 2.08,-3.92 3.4,-5.67 1.35,-1.73 2.87,-3.25 4.56,-4.54 1.71,-1.28 3.58,-2.29 5.63,-3.02 2.03,-0.75 4.22,-1.11 6.57,-1.11 1.54,0 3.02,0.21 4.41,0.64 1.41,0.41 2.63,1.01 3.68,1.8 1.07,0.79 1.9,1.76 2.53,2.89 0.62,1.16 0.94,2.46 0.94,3.94 0,2.12 -0.69,3.98 -2.08,5.57 -1.39,1.58 -3.32,2.93 -5.76,4.05 -2.44,1.11 -5.33,2.01 -8.65,2.7 -3.3,0.66 -6.89,1.18 -10.73,1.52l0 0.51c0,2.68 0.32,5.14 1.01,7.34 0.69,2.23 1.63,4.11 2.81,5.69 1.2,1.59 2.59,2.81 4.22,3.68 1.61,0.88 3.34,1.33 5.2,1.33 1.88,0 3.81,-0.47 5.78,-1.39 1.97,-0.94 3.98,-2.44 6.02,-4.54zm-5.91 -25.18c0,-0.96 -0.15,-1.86 -0.49,-2.7 -0.32,-0.84 -0.77,-1.56 -1.35,-2.18 -0.56,-0.62 -1.24,-1.11 -2.06,-1.46 -0.79,-0.36 -1.65,-0.54 -2.57,-0.54 -1.35,0 -2.59,0.24 -3.68,0.71 -1.11,0.49 -2.12,1.13 -3,1.97 -0.88,0.83 -1.65,1.8 -2.31,2.89 -0.66,1.09 -1.24,2.27 -1.71,3.49 -0.47,1.24 -0.86,2.51 -1.13,3.79 -0.3,1.31 -0.51,2.57 -0.64,3.81 2.98,-0.22 5.63,-0.58 7.99,-1.09 2.35,-0.51 4.35,-1.18 5.97,-1.97 1.61,-0.81 2.85,-1.78 3.7,-2.89 0.86,-1.11 1.29,-2.4 1.29,-3.83zm18.31 23.57c0.13,1.58 0.56,2.96 1.26,4.11 0.71,1.16 1.56,2.1 2.59,2.83 1.03,0.73 2.16,1.26 3.4,1.63 1.24,0.36 2.48,0.53 3.7,0.53 1.16,0 2.27,-0.15 3.34,-0.47 1.05,-0.32 1.99,-0.77 2.81,-1.35 0.81,-0.58 1.48,-1.31 1.97,-2.16 0.49,-0.86 0.73,-1.82 0.73,-2.89 0,-1.11 -0.26,-2.08 -0.77,-2.91 -0.54,-0.84 -1.22,-1.61 -2.1,-2.29 -0.88,-0.69 -1.91,-1.33 -3.06,-1.91 -1.16,-0.6 -2.38,-1.2 -3.62,-1.8 -1.11,-0.51 -2.23,-1.05 -3.34,-1.59 -1.13,-0.53 -2.21,-1.11 -3.25,-1.73 -1.05,-0.62 -2.03,-1.31 -2.93,-2.03 -0.92,-0.75 -1.71,-1.54 -2.38,-2.44 -0.68,-0.88 -1.22,-1.88 -1.61,-2.98 -0.39,-1.09 -0.58,-2.31 -0.58,-3.66 0,-1.44 0.26,-2.76 0.75,-3.98 0.49,-1.2 1.18,-2.29 2.06,-3.28 0.86,-0.96 1.86,-1.82 3.02,-2.55 1.13,-0.73 2.36,-1.35 3.64,-1.84 1.31,-0.49 2.63,-0.86 4,-1.09 1.37,-0.24 2.7,-0.36 4,-0.36 1.67,0 3.25,0.19 4.75,0.56 1.48,0.36 2.8,0.9 3.92,1.59 1.11,0.71 2.01,1.56 2.66,2.57 0.66,1.01 0.98,2.12 0.98,3.38 0,0.47 -0.09,1.01 -0.24,1.56 -0.17,0.58 -0.45,1.09 -0.86,1.58 -0.39,0.49 -0.92,0.9 -1.56,1.24 -0.64,0.34 -1.43,0.51 -2.38,0.54 -0.88,0 -1.8,-0.13 -2.76,-0.41l-0.11 -0.32c0.3,-0.66 0.51,-1.28 0.64,-1.84 0.11,-0.58 0.17,-1.09 0.17,-1.56 -0.02,-0.96 -0.26,-1.78 -0.73,-2.44 -0.47,-0.66 -1.07,-1.2 -1.78,-1.61 -0.71,-0.43 -1.5,-0.73 -2.35,-0.92 -0.88,-0.19 -1.73,-0.28 -2.57,-0.28 -1.48,0 -2.8,0.19 -3.98,0.6 -1.16,0.39 -2.16,0.92 -2.96,1.58 -0.81,0.66 -1.43,1.39 -1.86,2.23 -0.43,0.86 -0.64,1.71 -0.64,2.61 0,1.16 0.3,2.18 0.92,3.08 0.6,0.92 1.41,1.76 2.42,2.53 0.98,0.75 2.14,1.48 3.45,2.14 1.3,0.66 2.68,1.33 4.11,2.01 1.58,0.75 3.17,1.52 4.73,2.33 1.56,0.79 2.95,1.71 4.2,2.74 1.24,1.03 2.23,2.2 3,3.53 0.77,1.33 1.13,2.89 1.13,4.69 0,2.14 -0.47,4.07 -1.41,5.74 -0.96,1.67 -2.23,3.08 -3.81,4.24 -1.59,1.13 -3.43,2.01 -5.48,2.61 -2.05,0.6 -4.2,0.9 -6.4,0.9 -1.11,0 -2.27,-0.09 -3.45,-0.26 -1.18,-0.17 -2.31,-0.43 -3.43,-0.75 -1.11,-0.34 -2.16,-0.75 -3.15,-1.24 -1.01,-0.49 -1.86,-1.05 -2.61,-1.69 -0.75,-0.64 -1.33,-1.35 -1.76,-2.14 -0.43,-0.77 -0.64,-1.65 -0.64,-2.59 0,-0.81 0.17,-1.5 0.51,-2.06 0.34,-0.58 0.79,-1.03 1.37,-1.39 0.56,-0.34 1.2,-0.62 1.88,-0.79 0.71,-0.17 1.44,-0.28 2.16,-0.3l0.26 0.21zm58.8 -20.92c0,-1.65 -0.28,-3.08 -0.81,-4.3 -0.56,-1.2 -1.26,-2.2 -2.14,-2.98 -0.88,-0.77 -1.86,-1.35 -2.98,-1.71 -1.11,-0.39 -2.23,-0.58 -3.32,-0.58 -1.5,0 -2.74,0.17 -3.77,0.47 -1.03,0.32 -1.86,0.75 -2.51,1.29 -0.62,0.56 -1.09,1.2 -1.37,1.93 -0.28,0.75 -0.43,1.54 -0.43,2.42 0,0.98 0.19,2.01 0.56,3.02 0.36,1.01 0.9,1.99 1.61,2.96l-0.13 0.34c-1.18,0.6 -2.38,0.88 -3.6,0.88 -0.71,0 -1.37,-0.11 -1.99,-0.32 -0.62,-0.21 -1.16,-0.54 -1.61,-0.96 -0.45,-0.41 -0.79,-0.92 -1.07,-1.52 -0.26,-0.62 -0.39,-1.28 -0.39,-2.05 0,-1.22 0.3,-2.38 0.9,-3.47 0.6,-1.09 1.39,-2.08 2.35,-2.98 0.98,-0.9 2.14,-1.71 3.43,-2.42 1.3,-0.71 2.63,-1.31 4.02,-1.8 1.37,-0.49 2.76,-0.88 4.15,-1.13 1.39,-0.26 2.68,-0.39 3.88,-0.39 2.18,0 4.07,0.28 5.63,0.88 1.54,0.58 2.81,1.43 3.79,2.55 0.96,1.11 1.67,2.46 2.12,4.07 0.45,1.59 0.69,3.38 0.69,5.4 0,1.37 -0.07,2.89 -0.17,4.54 -0.11,1.65 -0.26,3.38 -0.39,5.18 -0.15,1.82 -0.28,3.68 -0.41,5.61 -0.11,1.93 -0.17,3.83 -0.17,5.74 0,3.02 0.56,5.27 1.69,6.79 1.11,1.52 2.57,2.27 4.39,2.27 1.63,0 3.43,-0.6 5.4,-1.78l0.92 1.35c-1.41,1.39 -2.93,2.46 -4.58,3.19 -1.65,0.73 -3.38,1.09 -5.2,1.11 -1.37,-0.02 -2.61,-0.24 -3.77,-0.71 -1.16,-0.45 -2.14,-1.13 -2.98,-2.05 -0.83,-0.9 -1.5,-2.06 -1.95,-3.43 -0.45,-1.39 -0.68,-2.98 -0.68,-4.8 0,-0.56 0.02,-1.09 0.04,-1.63 0.02,-0.56 0.11,-1.13 0.21,-1.73l-0.19 0c-0.9,1.8 -1.95,3.58 -3.13,5.31 -1.18,1.76 -2.48,3.32 -3.9,4.69 -1.41,1.37 -2.91,2.46 -4.52,3.32 -1.58,0.83 -3.28,1.26 -5.03,1.26 -1.44,0 -2.76,-0.26 -3.94,-0.75 -1.2,-0.49 -2.23,-1.2 -3.06,-2.08 -0.86,-0.88 -1.5,-1.9 -1.97,-3.1 -0.47,-1.2 -0.71,-2.53 -0.71,-3.94 0,-1.84 0.34,-3.51 1.01,-5.03 0.68,-1.5 1.63,-2.85 2.83,-4.05 1.2,-1.18 2.63,-2.21 4.32,-3.08 1.67,-0.86 3.49,-1.59 5.44,-2.16 1.97,-0.58 4.05,-1.01 6.25,-1.28 2.18,-0.28 4.43,-0.43 6.7,-0.43 0.15,-1.31 0.28,-2.59 0.36,-3.81 0.11,-1.24 0.15,-2.61 0.15,-4.09zm-19.27 21.54c0,0.84 0.11,1.61 0.28,2.36 0.17,0.73 0.45,1.39 0.83,1.95 0.39,0.58 0.88,1.01 1.48,1.33 0.6,0.34 1.33,0.49 2.16,0.49 0.94,0 1.91,-0.21 2.91,-0.66 1.01,-0.43 1.99,-1.05 2.95,-1.82 0.98,-0.77 1.91,-1.69 2.81,-2.76 0.88,-1.09 1.67,-2.25 2.4,-3.53 0.71,-1.29 1.29,-2.61 1.76,-4.03 0.47,-1.41 0.79,-2.87 0.94,-4.35 -1.56,0.04 -3.08,0.13 -4.62,0.3 -1.52,0.15 -2.98,0.41 -4.35,0.73 -1.37,0.34 -2.63,0.77 -3.81,1.33 -1.16,0.54 -2.16,1.22 -3.02,2.01 -0.83,0.81 -1.5,1.76 -1.99,2.87 -0.47,1.09 -0.73,2.35 -0.73,3.79zm43.72 11.52l-0.49 -0.02c0.17,-1.99 0.32,-4.15 0.47,-6.51 0.15,-2.33 0.28,-4.71 0.41,-7.13 0.13,-2.42 0.24,-4.8 0.32,-7.17 0.11,-2.38 0.19,-4.6 0.26,-6.66 0.08,-2.05 0.13,-3.9 0.15,-5.52 0.04,-1.65 0.07,-2.93 0.07,-3.88 0,-0.77 -0.04,-1.44 -0.11,-1.99 -0.06,-0.58 -0.19,-1.05 -0.43,-1.41 -0.21,-0.39 -0.54,-0.66 -0.94,-0.83 -0.43,-0.17 -0.98,-0.28 -1.69,-0.28 -0.36,0 -0.73,0.02 -1.11,0.07 -0.36,0.04 -0.79,0.11 -1.24,0.19 -0.47,0.08 -0.98,0.19 -1.56,0.34 -0.58,0.13 -1.24,0.28 -1.99,0.47l-0.47 -2.25c3.47,-1.26 6.3,-2.14 8.44,-2.66 2.16,-0.51 3.62,-0.77 4.37,-0.77 1.37,0 2.38,0.41 2.95,1.22 0.6,0.79 0.9,1.99 0.9,3.57 0,0.15 -0.02,0.58 -0.07,1.29 -0.04,0.73 -0.08,1.65 -0.17,2.78 -0.06,1.13 -0.15,2.46 -0.26,3.96 -0.11,1.52 -0.24,3.13 -0.36,4.86 -0.15,1.71 -0.3,3.51 -0.45,5.4 -0.17,1.86 -0.36,3.73 -0.54,5.59l0.3 0.02c1.01,-4.09 2.14,-7.9 3.4,-11.45 1.26,-3.53 2.7,-6.62 4.26,-9.23 1.59,-2.61 3.32,-4.67 5.23,-6.17 1.88,-1.5 3.96,-2.25 6.21,-2.25 0.81,0 1.54,0.13 2.23,0.39 0.71,0.24 1.29,0.6 1.8,1.05 0.49,0.45 0.9,0.98 1.2,1.58 0.28,0.62 0.43,1.31 0.43,2.03 0,0.94 -0.19,1.84 -0.6,2.72 -0.43,0.86 -1.07,1.63 -1.95,2.29l-0.24 0c-0.88,-0.73 -1.71,-1.26 -2.51,-1.58 -0.77,-0.32 -1.61,-0.47 -2.48,-0.47 -0.94,0 -1.86,0.17 -2.74,0.54 -0.88,0.34 -1.67,0.86 -2.4,1.52 -1.2,1.09 -2.31,2.53 -3.34,4.33 -1.03,1.78 -1.95,3.77 -2.81,5.93 -0.83,2.18 -1.61,4.47 -2.29,6.85 -0.66,2.4 -1.26,4.73 -1.76,7 -0.49,2.27 -0.88,4.41 -1.18,6.4 -0.32,1.99 -0.54,3.66 -0.64,5.03l-6.57 0.81z"/>
   <path class="fil1" d="M813.64 217.81c-0.73,0 -1.39,-0.15 -1.95,-0.45 -0.56,-0.32 -1.05,-0.71 -1.44,-1.2 -0.41,-0.49 -0.71,-1.05 -0.92,-1.69 -0.21,-0.64 -0.3,-1.31 -0.3,-1.97 0,-0.94 0.15,-1.78 0.47,-2.48 0.3,-0.73 0.71,-1.33 1.22,-1.82 0.49,-0.49 1.05,-0.86 1.65,-1.09 0.62,-0.26 1.2,-0.36 1.8,-0.36 0.71,0 1.35,0.13 1.91,0.39 0.56,0.26 1.05,0.62 1.46,1.09 0.41,0.45 0.73,0.99 0.94,1.59 0.21,0.58 0.34,1.22 0.34,1.93 0,0.73 -0.13,1.46 -0.39,2.16 -0.26,0.73 -0.6,1.39 -1.05,1.97 -0.45,0.58 -0.98,1.05 -1.63,1.41 -0.64,0.36 -1.35,0.53 -2.12,0.53zm2.72 14.18c-0.34,2.38 -0.64,4.78 -0.9,7.17 -0.26,2.38 -0.45,4.71 -0.62,6.94 -0.15,2.25 -0.26,4.37 -0.34,6.36 -0.06,1.99 -0.11,3.79 -0.11,5.4 0,2.18 0.04,4.05 0.08,5.61 0.07,1.56 0.17,2.87 0.32,3.94 0.15,1.07 0.32,1.91 0.56,2.55 0.21,0.64 0.49,1.13 0.81,1.48 0.32,0.34 0.71,0.58 1.13,0.66 0.43,0.11 0.9,0.17 1.46,0.17 1.01,0 2.08,-0.15 3.23,-0.45 1.16,-0.32 2.34,-0.73 3.53,-1.29l0.6 1.63c-0.75,0.62 -1.69,1.24 -2.85,1.86 -1.13,0.62 -2.33,1.2 -3.58,1.71 -1.26,0.54 -2.48,0.96 -3.7,1.29 -1.2,0.32 -2.23,0.47 -3.1,0.47 -0.6,0 -1.13,-0.04 -1.61,-0.13 -0.47,-0.11 -0.92,-0.34 -1.31,-0.71 -0.39,-0.39 -0.73,-0.94 -1.03,-1.67 -0.3,-0.73 -0.56,-1.71 -0.75,-2.98 -0.21,-1.24 -0.36,-2.83 -0.47,-4.71 -0.08,-1.88 -0.15,-4.15 -0.15,-6.83 0,-1.56 0.02,-3.34 0.04,-5.31 0.04,-1.99 0.08,-4.11 0.15,-6.38 0.06,-2.27 0.15,-4.65 0.26,-7.17 0.11,-2.53 0.24,-5.12 0.41,-7.79 0.04,-0.58 0.19,-1.07 0.47,-1.43 0.26,-0.36 0.6,-0.64 1.01,-0.83 0.39,-0.22 0.81,-0.34 1.26,-0.41 0.45,-0.08 0.86,-0.11 1.24,-0.11 1.39,0 2.72,0.32 3.94,0.96zm38.56 11.88c0,-1.65 -0.28,-3.08 -0.81,-4.3 -0.56,-1.2 -1.26,-2.2 -2.14,-2.98 -0.88,-0.77 -1.86,-1.35 -2.98,-1.71 -1.11,-0.39 -2.23,-0.58 -3.32,-0.58 -1.5,0 -2.74,0.17 -3.77,0.47 -1.03,0.32 -1.86,0.75 -2.51,1.29 -0.62,0.56 -1.09,1.2 -1.37,1.93 -0.28,0.75 -0.43,1.54 -0.43,2.42 0,0.98 0.19,2.01 0.56,3.02 0.36,1.01 0.9,1.99 1.61,2.96l-0.13 0.34c-1.18,0.6 -2.38,0.88 -3.6,0.88 -0.71,0 -1.37,-0.11 -1.99,-0.32 -0.62,-0.21 -1.16,-0.54 -1.61,-0.96 -0.45,-0.41 -0.79,-0.92 -1.07,-1.52 -0.26,-0.62 -0.39,-1.28 -0.39,-2.05 0,-1.22 0.3,-2.38 0.9,-3.47 0.6,-1.09 1.39,-2.08 2.35,-2.98 0.98,-0.9 2.14,-1.71 3.43,-2.42 1.3,-0.71 2.63,-1.31 4.02,-1.8 1.37,-0.49 2.76,-0.88 4.15,-1.13 1.39,-0.26 2.68,-0.39 3.88,-0.39 2.18,0 4.07,0.28 5.63,0.88 1.54,0.58 2.81,1.43 3.79,2.55 0.96,1.11 1.67,2.46 2.12,4.07 0.45,1.59 0.69,3.38 0.69,5.4 0,1.37 -0.07,2.89 -0.17,4.54 -0.11,1.65 -0.26,3.38 -0.39,5.18 -0.15,1.82 -0.28,3.68 -0.41,5.61 -0.11,1.93 -0.17,3.83 -0.17,5.74 0,3.02 0.56,5.27 1.69,6.79 1.11,1.52 2.57,2.27 4.39,2.27 1.63,0 3.43,-0.6 5.4,-1.78l0.92 1.35c-1.41,1.39 -2.93,2.46 -4.58,3.19 -1.65,0.73 -3.38,1.09 -5.2,1.11 -1.37,-0.02 -2.61,-0.24 -3.77,-0.71 -1.16,-0.45 -2.14,-1.13 -2.98,-2.05 -0.83,-0.9 -1.5,-2.06 -1.95,-3.43 -0.45,-1.39 -0.68,-2.98 -0.68,-4.8 0,-0.56 0.02,-1.09 0.04,-1.63 0.02,-0.56 0.11,-1.13 0.21,-1.73l-0.19 0c-0.9,1.8 -1.95,3.58 -3.13,5.31 -1.18,1.76 -2.48,3.32 -3.9,4.69 -1.41,1.37 -2.91,2.46 -4.52,3.32 -1.58,0.83 -3.28,1.26 -5.03,1.26 -1.44,0 -2.76,-0.26 -3.94,-0.75 -1.2,-0.49 -2.23,-1.2 -3.06,-2.08 -0.86,-0.88 -1.5,-1.9 -1.97,-3.1 -0.47,-1.2 -0.71,-2.53 -0.71,-3.94 0,-1.84 0.34,-3.51 1.01,-5.03 0.68,-1.5 1.63,-2.85 2.83,-4.05 1.2,-1.18 2.63,-2.21 4.32,-3.08 1.67,-0.86 3.49,-1.59 5.44,-2.16 1.97,-0.58 4.05,-1.01 6.25,-1.28 2.18,-0.28 4.43,-0.43 6.7,-0.43 0.15,-1.31 0.28,-2.59 0.36,-3.81 0.11,-1.24 0.15,-2.61 0.15,-4.09zm-19.27 21.54c0,0.84 0.11,1.61 0.28,2.36 0.17,0.73 0.45,1.39 0.83,1.95 0.39,0.58 0.88,1.01 1.48,1.33 0.6,0.34 1.33,0.49 2.16,0.49 0.94,0 1.91,-0.21 2.91,-0.66 1.01,-0.43 1.99,-1.05 2.95,-1.82 0.98,-0.77 1.91,-1.69 2.81,-2.76 0.88,-1.09 1.67,-2.25 2.4,-3.53 0.71,-1.29 1.29,-2.61 1.76,-4.03 0.47,-1.41 0.79,-2.87 0.94,-4.35 -1.56,0.04 -3.08,0.13 -4.62,0.3 -1.52,0.15 -2.98,0.41 -4.35,0.73 -1.37,0.34 -2.63,0.77 -3.81,1.33 -1.16,0.54 -2.16,1.22 -3.02,2.01 -0.83,0.81 -1.5,1.76 -1.99,2.87 -0.47,1.09 -0.73,2.35 -0.73,3.79zm54.34 -73.48c-0.43,3.55 -0.84,7.21 -1.24,10.94 -0.41,3.73 -0.79,7.49 -1.18,11.33 -0.36,3.81 -0.71,7.64 -1.01,11.5 -0.32,3.83 -0.6,7.62 -0.81,11.37 -0.24,3.73 -0.41,7.39 -0.54,10.98 -0.13,3.6 -0.19,7.05 -0.19,10.34 0,2.08 0.02,3.85 0.08,5.33 0.04,1.5 0.13,2.74 0.24,3.77 0.13,1.03 0.28,1.86 0.47,2.48 0.21,0.62 0.45,1.11 0.75,1.44 0.28,0.34 0.64,0.56 1.03,0.68 0.41,0.11 0.88,0.17 1.41,0.17 1.01,0 2.08,-0.15 3.25,-0.45 1.16,-0.32 2.33,-0.73 3.51,-1.29l0.6 1.63c-0.75,0.62 -1.69,1.24 -2.83,1.86 -1.13,0.62 -2.33,1.2 -3.6,1.71 -1.26,0.54 -2.48,0.96 -3.68,1.29 -1.2,0.32 -2.25,0.47 -3.13,0.47 -1.13,0 -2.01,-0.28 -2.68,-0.86 -0.66,-0.58 -1.16,-1.5 -1.5,-2.81 -0.34,-1.29 -0.58,-2.98 -0.66,-5.07 -0.11,-2.08 -0.15,-4.6 -0.15,-7.6 0,-1.09 0.04,-2.63 0.11,-4.65 0.06,-2.01 0.15,-4.37 0.26,-7.04 0.13,-2.68 0.26,-5.61 0.39,-8.78 0.15,-3.19 0.32,-6.47 0.47,-9.87 0.17,-3.4 0.34,-6.83 0.53,-10.28 0.19,-3.47 0.39,-6.81 0.58,-10.04 0.17,-3.23 0.36,-6.27 0.54,-9.14 0.15,-2.87 0.32,-5.4 0.47,-7.6 0.02,-0.49 0.15,-0.92 0.43,-1.28 0.28,-0.39 0.62,-0.66 1.05,-0.88 0.43,-0.24 0.92,-0.39 1.46,-0.49 0.51,-0.11 1.07,-0.17 1.61,-0.17 1.26,0 2.57,0.34 3.96,1.01z"/>
  </g>
 </g>
</svg>
